{"glyphs":{"0":{"ha":742,"x_min":88,"x_max":654,"o":"m 371 -15 q 160 90 233 -15 q 88 390 88 194 q 160 690 88 585 q 371 796 233 796 q 581 690 508 796 q 654 390 654 585 q 581 90 654 194 q 371 -15 508 -15 m 371 28 q 537 122 479 28 q 594 390 594 215 q 537 658 594 565 q 371 751 479 751 q 205 658 263 751 q 147 390 147 565 q 205 121 147 214 q 371 28 263 28 z "},"1":{"ha":399,"x_min":67,"x_max":351,"o":"m 69 44 l 182 44 l 182 724 l 68 697 l 67 743 l 240 782 l 240 44 l 351 44 l 351 0 l 69 0 l 69 44 z "},"2":{"ha":650,"x_min":74,"x_max":567,"o":"m 567 0 l 74 0 l 74 44 l 333 304 q 466 460 429 400 q 503 586 503 519 q 457 706 503 661 q 328 751 411 751 q 191 705 242 751 q 140 576 140 658 q 151 492 140 540 l 96 492 q 83 578 83 536 q 151 736 83 676 q 332 796 219 796 q 501 740 439 796 q 563 589 563 683 q 518 447 563 514 q 369 275 474 379 l 139 47 l 511 47 l 511 190 l 565 190 l 567 0 z "},"3":{"ha":649,"x_min":42,"x_max":581,"o":"m 393 411 q 531 344 481 399 q 581 206 581 290 q 510 46 581 106 q 319 -14 439 -14 q 42 142 122 -14 l 89 169 q 321 35 157 35 q 465 81 411 35 q 519 206 519 126 q 455 342 519 296 q 263 388 390 388 l 263 433 q 447 474 385 433 q 510 593 510 515 q 461 708 510 667 q 324 749 413 749 q 185 713 243 749 q 100 611 128 676 l 53 632 q 156 753 85 710 q 324 796 226 796 q 503 742 439 796 q 568 594 568 689 q 522 473 568 521 q 393 411 476 425 z "},"4":{"ha":619,"x_min":18,"x_max":578,"o":"m 264 44 l 388 44 l 388 207 l 26 207 l 18 249 l 393 782 l 444 782 l 444 251 l 578 251 l 578 207 l 444 207 l 444 44 l 542 44 l 542 0 l 264 0 l 264 44 m 388 251 l 388 696 l 76 251 l 388 251 z "},"5":{"ha":667,"x_min":56,"x_max":607,"o":"m 350 496 q 539 427 471 496 q 607 242 607 358 q 533 54 607 124 q 329 -15 458 -15 q 177 19 246 -15 q 56 115 108 53 l 94 153 q 199 66 138 97 q 329 35 260 35 q 490 90 433 35 q 546 240 546 146 q 492 390 546 336 q 343 444 439 444 q 146 363 231 444 l 93 385 l 103 782 l 572 782 l 572 607 l 514 607 l 514 733 l 156 733 l 147 424 q 350 496 231 496 z "},"6":{"ha":594,"x_min":43,"x_max":550,"o":"m 311 469 q 483 404 417 469 q 550 231 550 339 q 480 52 550 119 q 296 -15 410 -15 q 166 16 224 -15 q 76 103 108 47 q 43 229 43 158 q 65 349 43 294 q 135 482 86 404 l 350 839 l 401 808 l 156 417 q 229 456 188 442 q 311 469 271 469 m 296 32 q 440 85 388 32 q 493 229 493 139 q 442 372 493 319 q 301 424 390 424 q 205 400 250 424 q 132 331 160 376 q 104 222 104 285 q 156 85 104 139 q 296 32 208 32 z "},"7":{"ha":583,"x_min":15,"x_max":522,"o":"m 460 736 l 74 736 l 74 583 l 15 583 l 15 782 l 522 782 l 522 739 l 260 0 l 203 0 l 460 736 z "},"8":{"ha":622,"x_min":47,"x_max":575,"o":"m 311 -15 q 117 44 188 -15 q 47 204 47 104 q 89 340 47 283 q 210 413 131 396 q 106 484 138 439 q 74 597 74 529 q 137 742 74 688 q 307 796 200 796 q 483 743 418 796 q 549 597 549 690 q 514 476 549 526 q 408 408 479 425 q 532 336 489 390 q 575 204 575 282 q 504 45 575 106 q 311 -15 433 -15 m 372 428 q 489 593 489 461 q 442 707 489 665 q 311 749 394 749 q 182 707 229 749 q 135 593 135 665 q 192 475 135 515 q 372 428 249 435 m 311 32 q 457 78 403 32 q 511 206 511 125 q 451 338 511 292 q 256 393 392 383 q 150 333 189 382 q 111 206 111 285 q 165 79 111 126 q 311 32 219 32 z "},"9":{"ha":594,"x_min":42,"x_max":549,"o":"m 297 797 q 426 766 369 797 q 516 680 483 735 q 549 554 549 625 q 527 431 549 486 q 457 300 506 376 l 242 -57 l 190 -25 l 435 364 q 363 326 404 340 q 282 313 322 313 q 109 378 176 313 q 42 551 42 444 q 112 730 42 663 q 297 797 182 797 m 290 358 q 387 383 342 358 q 460 453 432 407 q 488 560 488 499 q 435 697 488 643 q 296 751 383 751 q 151 697 204 751 q 99 553 99 643 q 150 411 99 464 q 290 358 201 358 z "},"\u0000":{"ha":0,"x_min":0,"x_max":0,"o":""},"\r":{"ha":390,"x_min":0,"x_max":0,"o":""}," ":{"ha":390,"x_min":0,"x_max":0,"o":""},"A":{"ha":938,"x_min":51,"x_max":885,"o":"m 51 44 l 156 44 l 410 738 l 315 738 l 315 782 l 625 782 l 625 738 l 528 738 l 785 44 l 885 44 l 885 0 l 614 0 l 614 44 l 715 44 l 617 318 l 317 318 l 218 44 l 319 44 l 319 0 l 51 0 l 51 44 m 603 363 l 469 735 l 464 735 l 331 363 l 603 363 z "},"Á":{"ha":938,"x_min":51,"x_max":885,"o":"m 51 44 l 156 44 l 410 738 l 315 738 l 315 782 l 625 782 l 625 738 l 528 738 l 785 44 l 885 44 l 885 0 l 614 0 l 614 44 l 715 44 l 617 318 l 317 318 l 218 44 l 319 44 l 319 0 l 51 0 l 51 44 m 603 363 l 469 735 l 464 735 l 331 363 l 603 363 m 519 1085 l 586 1085 l 490 904 l 454 904 l 519 1085 z "},"Ă":{"ha":938,"x_min":51,"x_max":885,"o":"m 51 44 l 156 44 l 410 738 l 315 738 l 315 782 l 625 782 l 625 738 l 528 738 l 785 44 l 885 44 l 885 0 l 614 0 l 614 44 l 715 44 l 617 318 l 317 318 l 218 44 l 319 44 l 319 0 l 51 0 l 51 44 m 603 363 l 469 735 l 464 735 l 331 363 l 603 363 m 469 892 q 390 920 421 892 q 353 1000 360 949 l 392 1000 q 469 932 408 932 q 546 1000 529 932 l 586 1000 q 548 921 578 949 q 469 892 518 893 z "},"Ắ":{"ha":938,"x_min":51,"x_max":885,"o":"m 51 44 l 156 44 l 410 738 l 315 738 l 315 782 l 625 782 l 625 738 l 528 738 l 785 44 l 885 44 l 885 0 l 614 0 l 614 44 l 715 44 l 617 318 l 317 318 l 218 44 l 319 44 l 319 0 l 51 0 l 51 44 m 603 363 l 469 735 l 464 735 l 331 363 l 603 363 m 500 1135 l 567 1135 l 476 1000 l 442 1000 l 500 1135 m 467 874 q 389 903 419 874 q 353 982 358 932 l 394 982 q 420 931 400 949 q 469 914 440 914 q 518 931 499 914 q 543 982 538 949 l 586 982 q 549 901 581 929 q 467 874 517 874 z "},"Ặ":{"ha":938,"x_min":51,"x_max":885,"o":"m 51 44 l 156 44 l 410 738 l 315 738 l 315 782 l 625 782 l 625 738 l 528 738 l 785 44 l 885 44 l 885 0 l 614 0 l 614 44 l 715 44 l 617 318 l 317 318 l 218 44 l 319 44 l 319 0 l 51 0 l 51 44 m 603 363 l 469 735 l 464 735 l 331 363 l 603 363 m 469 892 q 390 920 421 892 q 353 1000 360 949 l 392 1000 q 469 932 408 932 q 546 1000 529 932 l 586 1000 q 548 921 578 949 q 469 892 518 893 m 468 -164 q 432 -150 446 -164 q 418 -118 418 -136 q 431 -85 418 -99 q 468 -71 444 -71 q 505 -84 492 -71 q 518 -118 518 -97 q 504 -149 518 -135 q 468 -164 490 -164 z "},"Ằ":{"ha":938,"x_min":51,"x_max":885,"o":"m 51 44 l 156 44 l 410 738 l 315 738 l 315 782 l 625 782 l 625 738 l 528 738 l 785 44 l 885 44 l 885 0 l 614 0 l 614 44 l 715 44 l 617 318 l 317 318 l 218 44 l 319 44 l 319 0 l 51 0 l 51 44 m 603 363 l 469 735 l 464 735 l 331 363 l 603 363 m 371 1135 l 438 1135 l 496 1000 l 461 1000 l 371 1135 m 467 874 q 389 903 419 874 q 353 982 358 932 l 394 982 q 420 931 400 949 q 469 914 440 914 q 518 931 499 914 q 543 982 538 949 l 586 982 q 549 901 581 929 q 467 874 517 874 z "},"Ẳ":{"ha":938,"x_min":51,"x_max":885,"o":"m 51 44 l 156 44 l 410 738 l 315 738 l 315 782 l 625 782 l 625 738 l 528 738 l 785 44 l 885 44 l 885 0 l 614 0 l 614 44 l 715 44 l 617 318 l 317 318 l 218 44 l 319 44 l 319 0 l 51 0 l 51 44 m 603 363 l 469 735 l 464 735 l 331 363 l 603 363 m 454 1019 q 496 1068 496 1035 q 483 1098 496 1088 q 449 1108 471 1108 q 392 1090 424 1108 l 376 1128 q 453 1150 415 1150 q 519 1128 494 1150 q 544 1071 544 1106 q 468 982 544 1006 l 454 1019 m 468 874 q 390 903 421 874 q 354 982 360 932 l 396 982 q 422 931 401 949 q 471 914 442 914 q 519 931 500 914 q 544 982 539 949 l 588 982 q 550 901 582 929 q 468 874 518 874 z "},"Ẵ":{"ha":938,"x_min":51,"x_max":885,"o":"m 51 44 l 156 44 l 410 738 l 315 738 l 315 782 l 625 782 l 625 738 l 528 738 l 785 44 l 885 44 l 885 0 l 614 0 l 614 44 l 715 44 l 617 318 l 317 318 l 218 44 l 319 44 l 319 0 l 51 0 l 51 44 m 603 363 l 469 735 l 464 735 l 331 363 l 603 363 m 539 1022 q 505 1028 521 1022 q 461 1046 489 1033 q 393 1068 414 1068 q 357 1025 361 1068 l 325 1025 q 347 1090 326 1067 q 401 1114 368 1114 q 435 1108 418 1114 q 476 1090 451 1101 q 511 1075 493 1082 q 542 1068 529 1068 q 581 1111 576 1068 l 613 1111 q 539 1022 610 1022 m 467 874 q 389 903 419 874 q 353 982 358 932 l 394 982 q 420 931 400 949 q 469 914 440 914 q 518 931 499 914 q 543 982 538 949 l 586 982 q 549 901 581 929 q 467 874 517 874 z "},"Ǎ":{"ha":938,"x_min":51,"x_max":885,"o":"m 51 44 l 156 44 l 410 738 l 315 738 l 315 782 l 625 782 l 625 738 l 528 738 l 785 44 l 885 44 l 885 0 l 614 0 l 614 44 l 715 44 l 617 318 l 317 318 l 218 44 l 319 44 l 319 0 l 51 0 l 51 44 m 603 363 l 469 735 l 464 735 l 331 363 l 603 363 m 328 1090 l 375 1090 l 469 922 l 564 1090 l 610 1090 l 494 882 l 446 882 l 328 1090 z "},"Â":{"ha":938,"x_min":51,"x_max":885,"o":"m 51 44 l 156 44 l 410 738 l 315 738 l 315 782 l 625 782 l 625 738 l 528 738 l 785 44 l 885 44 l 885 0 l 614 0 l 614 44 l 715 44 l 617 318 l 317 318 l 218 44 l 319 44 l 319 0 l 51 0 l 51 44 m 603 363 l 469 735 l 464 735 l 331 363 l 603 363 m 443 1076 l 497 1076 l 614 864 l 567 864 l 469 1042 l 372 864 l 325 864 l 443 1076 z "},"Ấ":{"ha":938,"x_min":51,"x_max":885,"o":"m 51 44 l 156 44 l 410 738 l 315 738 l 315 782 l 625 782 l 625 738 l 528 738 l 785 44 l 885 44 l 885 0 l 614 0 l 614 44 l 715 44 l 617 318 l 317 318 l 218 44 l 319 44 l 319 0 l 51 0 l 51 44 m 603 363 l 469 735 l 464 735 l 331 363 l 603 363 m 626 1143 l 686 1143 l 606 986 l 569 986 l 626 1143 m 443 1035 l 497 1035 l 614 864 l 567 864 l 469 1000 l 372 864 l 325 864 l 443 1035 z "},"Ậ":{"ha":938,"x_min":51,"x_max":885,"o":"m 51 44 l 156 44 l 410 738 l 315 738 l 315 782 l 625 782 l 625 738 l 528 738 l 785 44 l 885 44 l 885 0 l 614 0 l 614 44 l 715 44 l 617 318 l 317 318 l 218 44 l 319 44 l 319 0 l 51 0 l 51 44 m 603 363 l 469 735 l 464 735 l 331 363 l 603 363 m 443 1076 l 497 1076 l 614 864 l 567 864 l 469 1042 l 372 864 l 325 864 l 443 1076 m 468 -164 q 432 -150 446 -164 q 418 -118 418 -136 q 431 -85 418 -99 q 468 -71 444 -71 q 505 -84 492 -71 q 518 -118 518 -97 q 504 -149 518 -135 q 468 -164 490 -164 z "},"Ầ":{"ha":938,"x_min":51,"x_max":885,"o":"m 51 44 l 156 44 l 410 738 l 315 738 l 315 782 l 625 782 l 625 738 l 528 738 l 785 44 l 885 44 l 885 0 l 614 0 l 614 44 l 715 44 l 617 318 l 317 318 l 218 44 l 319 44 l 319 0 l 51 0 l 51 44 m 603 363 l 469 735 l 464 735 l 331 363 l 603 363 m 590 986 l 510 1143 l 569 1143 l 626 986 l 590 986 m 443 1035 l 497 1035 l 614 864 l 567 864 l 469 1000 l 372 864 l 325 864 l 443 1035 z "},"Ẩ":{"ha":938,"x_min":51,"x_max":885,"o":"m 51 44 l 156 44 l 410 738 l 315 738 l 315 782 l 625 782 l 625 738 l 528 738 l 785 44 l 885 44 l 885 0 l 614 0 l 614 44 l 715 44 l 617 318 l 317 318 l 218 44 l 319 44 l 319 0 l 51 0 l 51 44 m 603 363 l 469 735 l 464 735 l 331 363 l 603 363 m 563 1018 q 606 1067 606 1033 q 593 1096 606 1085 q 558 1107 581 1107 q 499 1089 531 1107 l 482 1128 q 563 1149 524 1149 q 628 1126 604 1149 q 653 1069 653 1104 q 578 978 653 1004 l 563 1018 m 443 1035 l 497 1035 l 614 864 l 567 864 l 469 1000 l 372 864 l 325 864 l 443 1035 z "},"Ẫ":{"ha":938,"x_min":51,"x_max":885,"o":"m 51 44 l 156 44 l 410 738 l 315 738 l 315 782 l 625 782 l 625 738 l 528 738 l 785 44 l 885 44 l 885 0 l 614 0 l 614 44 l 715 44 l 617 318 l 317 318 l 218 44 l 319 44 l 319 0 l 51 0 l 51 44 m 603 363 l 469 735 l 464 735 l 331 363 l 603 363 m 539 1061 q 505 1067 521 1061 q 461 1085 489 1072 q 393 1107 414 1107 q 357 1064 361 1107 l 325 1064 q 347 1128 326 1104 q 401 1153 368 1153 q 435 1147 418 1153 q 476 1129 451 1140 q 511 1114 493 1121 q 542 1107 529 1107 q 581 1150 576 1107 l 613 1150 q 539 1061 610 1061 m 443 1035 l 497 1035 l 614 864 l 567 864 l 469 1000 l 372 864 l 325 864 l 443 1035 z "},"Ȁ":{"ha":938,"x_min":51,"x_max":885,"o":"m 51 44 l 156 44 l 410 738 l 315 738 l 315 782 l 625 782 l 625 738 l 528 738 l 785 44 l 885 44 l 885 0 l 614 0 l 614 44 l 715 44 l 617 318 l 317 318 l 218 44 l 319 44 l 319 0 l 51 0 l 51 44 m 603 363 l 469 735 l 464 735 l 331 363 l 603 363 m 257 1108 l 324 1108 l 399 904 l 363 904 l 257 1108 m 408 1108 l 474 1108 l 549 904 l 513 904 l 408 1108 z "},"Ä":{"ha":938,"x_min":51,"x_max":885,"o":"m 51 44 l 156 44 l 410 738 l 315 738 l 315 782 l 625 782 l 625 738 l 528 738 l 785 44 l 885 44 l 885 0 l 614 0 l 614 44 l 715 44 l 617 318 l 317 318 l 218 44 l 319 44 l 319 0 l 51 0 l 51 44 m 603 363 l 469 735 l 464 735 l 331 363 l 603 363 m 351 896 q 322 907 333 896 q 311 936 311 918 q 322 965 311 954 q 351 975 333 975 q 382 965 371 975 q 393 936 393 954 q 382 907 393 918 q 351 896 371 896 m 588 896 q 557 906 568 896 q 546 935 546 917 q 557 964 546 953 q 588 975 568 975 q 617 964 606 975 q 628 935 628 953 q 617 906 628 917 q 588 896 606 896 z "},"Ȧ":{"ha":938,"x_min":51,"x_max":885,"o":"m 51 44 l 156 44 l 410 738 l 315 738 l 315 782 l 625 782 l 625 738 l 528 738 l 785 44 l 885 44 l 885 0 l 614 0 l 614 44 l 715 44 l 617 318 l 317 318 l 218 44 l 319 44 l 319 0 l 51 0 l 51 44 m 603 363 l 469 735 l 464 735 l 331 363 l 603 363 m 469 896 q 433 910 447 896 q 419 942 419 924 q 433 975 419 961 q 469 989 446 989 q 506 976 493 989 q 519 942 519 963 q 506 910 519 925 q 469 896 492 896 z "},"Ạ":{"ha":938,"x_min":51,"x_max":885,"o":"m 51 44 l 156 44 l 410 738 l 315 738 l 315 782 l 625 782 l 625 738 l 528 738 l 785 44 l 885 44 l 885 0 l 614 0 l 614 44 l 715 44 l 617 318 l 317 318 l 218 44 l 319 44 l 319 0 l 51 0 l 51 44 m 603 363 l 469 735 l 464 735 l 331 363 l 603 363 m 468 -164 q 432 -150 446 -164 q 418 -118 418 -136 q 431 -85 418 -99 q 468 -71 444 -71 q 505 -84 492 -71 q 518 -118 518 -97 q 504 -149 518 -135 q 468 -164 490 -164 z "},"À":{"ha":938,"x_min":51,"x_max":885,"o":"m 51 44 l 156 44 l 410 738 l 315 738 l 315 782 l 625 782 l 625 738 l 528 738 l 785 44 l 885 44 l 885 0 l 614 0 l 614 44 l 715 44 l 617 318 l 317 318 l 218 44 l 319 44 l 319 0 l 51 0 l 51 44 m 603 363 l 469 735 l 464 735 l 331 363 l 603 363 m 353 1085 l 419 1085 l 485 904 l 449 904 l 353 1085 z "},"Ả":{"ha":938,"x_min":51,"x_max":885,"o":"m 51 44 l 156 44 l 410 738 l 315 738 l 315 782 l 625 782 l 625 738 l 528 738 l 785 44 l 885 44 l 885 0 l 614 0 l 614 44 l 715 44 l 617 318 l 317 318 l 218 44 l 319 44 l 319 0 l 51 0 l 51 44 m 603 363 l 469 735 l 464 735 l 331 363 l 603 363 m 454 883 q 497 932 497 899 q 485 961 497 950 q 450 972 472 972 q 390 954 422 972 l 374 993 q 454 1014 415 1014 q 520 992 496 1014 q 544 935 544 969 q 469 843 544 869 l 454 883 z "},"Ȃ":{"ha":938,"x_min":51,"x_max":885,"o":"m 51 44 l 156 44 l 410 738 l 315 738 l 315 782 l 625 782 l 625 738 l 528 738 l 785 44 l 885 44 l 885 0 l 614 0 l 614 44 l 715 44 l 617 318 l 317 318 l 218 44 l 319 44 l 319 0 l 51 0 l 51 44 m 603 363 l 469 735 l 464 735 l 331 363 l 603 363 m 349 882 q 390 965 358 936 q 469 994 421 994 q 551 965 519 994 q 589 882 582 935 l 544 882 q 469 947 528 947 q 394 882 410 947 l 349 882 z "},"Ā":{"ha":938,"x_min":51,"x_max":885,"o":"m 51 44 l 156 44 l 410 738 l 315 738 l 315 782 l 625 782 l 625 738 l 528 738 l 785 44 l 885 44 l 885 0 l 614 0 l 614 44 l 715 44 l 617 318 l 317 318 l 218 44 l 319 44 l 319 0 l 51 0 l 51 44 m 603 363 l 469 735 l 464 735 l 331 363 l 603 363 m 336 942 l 603 942 l 603 903 l 336 903 l 336 942 z "},"Ą":{"ha":938,"x_min":51,"x_max":885,"o":"m 51 44 l 156 44 l 410 738 l 315 738 l 315 782 l 625 782 l 625 738 l 528 738 l 785 44 l 885 44 l 885 0 l 614 0 l 614 44 l 715 44 l 617 318 l 317 318 l 218 44 l 319 44 l 319 0 l 51 0 l 51 44 m 603 363 l 469 735 l 464 735 l 331 363 l 603 363 m 757 -219 q 688 -195 715 -219 q 660 -131 660 -171 q 735 0 660 -67 l 775 0 q 708 -117 708 -67 q 726 -162 708 -147 q 772 -178 743 -178 q 836 -157 806 -178 l 836 -193 q 757 -219 797 -219 z "},"Å":{"ha":938,"x_min":51,"x_max":885,"o":"m 51 44 l 156 44 l 410 738 l 315 738 l 315 782 l 625 782 l 625 738 l 528 738 l 785 44 l 885 44 l 885 0 l 614 0 l 614 44 l 715 44 l 617 318 l 317 318 l 218 44 l 319 44 l 319 0 l 51 0 l 51 44 m 603 363 l 469 735 l 464 735 l 331 363 l 603 363 m 471 864 q 403 888 428 864 q 378 950 378 911 q 403 1013 379 989 q 469 1036 428 1036 q 536 1013 511 1036 q 561 950 561 989 q 537 888 561 911 q 471 864 513 864 m 471 892 q 513 908 497 892 q 528 950 528 924 q 513 992 528 976 q 471 1007 497 1007 q 427 992 443 1007 q 411 950 411 976 q 427 908 411 924 q 471 892 443 892 z "},"Ǻ":{"ha":938,"x_min":51,"x_max":885,"o":"m 51 44 l 156 44 l 410 738 l 315 738 l 315 782 l 625 782 l 625 738 l 528 738 l 785 44 l 885 44 l 885 0 l 614 0 l 614 44 l 715 44 l 617 318 l 317 318 l 218 44 l 319 44 l 319 0 l 51 0 l 51 44 m 603 363 l 469 735 l 464 735 l 331 363 l 603 363 m 471 864 q 403 888 428 864 q 378 950 378 911 q 403 1013 379 989 q 469 1036 428 1036 q 536 1013 511 1036 q 561 950 561 989 q 537 888 561 911 q 471 864 513 864 m 471 892 q 513 908 497 892 q 528 950 528 924 q 513 992 528 976 q 471 1007 497 1007 q 427 992 443 1007 q 411 950 411 976 q 427 908 411 924 q 471 892 443 892 m 519 1267 l 586 1267 l 490 1086 l 454 1086 l 519 1267 z "},"Ã":{"ha":938,"x_min":51,"x_max":885,"o":"m 51 44 l 156 44 l 410 738 l 315 738 l 315 782 l 625 782 l 625 738 l 528 738 l 785 44 l 885 44 l 885 0 l 614 0 l 614 44 l 715 44 l 617 318 l 317 318 l 218 44 l 319 44 l 319 0 l 51 0 l 51 44 m 603 363 l 469 735 l 464 735 l 331 363 l 603 363 m 547 901 q 509 908 529 901 q 463 929 489 915 q 420 949 438 942 q 388 956 403 956 q 349 904 350 956 l 317 904 q 338 975 318 949 q 393 1001 358 1001 q 429 994 411 1001 q 475 974 447 988 q 517 954 500 961 q 550 947 535 947 q 592 999 588 947 l 624 999 q 603 926 621 951 q 547 901 586 901 z "},"Æ":{"ha":1356,"x_min":40,"x_max":1292,"o":"m 40 44 l 154 44 l 558 738 l 467 738 l 467 782 l 1174 782 l 1203 522 l 1151 522 l 1125 738 l 692 738 l 732 413 l 1011 413 l 997 521 l 1035 521 l 1072 247 l 1035 247 l 1015 367 l 735 367 l 774 44 l 1236 44 l 1208 260 l 1260 260 l 1292 0 l 600 0 l 600 44 l 708 44 l 676 292 l 365 292 l 226 44 l 325 44 l 325 0 l 40 0 l 40 44 m 675 333 l 626 738 l 617 738 l 388 333 l 675 333 z "},"Ǽ":{"ha":1356,"x_min":40,"x_max":1292,"o":"m 40 44 l 154 44 l 558 738 l 467 738 l 467 782 l 1174 782 l 1203 522 l 1151 522 l 1125 738 l 692 738 l 732 413 l 1011 413 l 997 521 l 1035 521 l 1072 247 l 1035 247 l 1015 367 l 735 367 l 774 44 l 1236 44 l 1208 260 l 1260 260 l 1292 0 l 600 0 l 600 44 l 708 44 l 676 292 l 365 292 l 226 44 l 325 44 l 325 0 l 40 0 l 40 44 m 675 333 l 626 738 l 617 738 l 388 333 l 675 333 m 842 1085 l 908 1085 l 813 904 l 776 904 l 842 1085 z "},"Ǣ":{"ha":1356,"x_min":40,"x_max":1292,"o":"m 40 44 l 154 44 l 558 738 l 467 738 l 467 782 l 1174 782 l 1203 522 l 1151 522 l 1125 738 l 692 738 l 732 413 l 1011 413 l 997 521 l 1035 521 l 1072 247 l 1035 247 l 1015 367 l 735 367 l 774 44 l 1236 44 l 1208 260 l 1260 260 l 1292 0 l 600 0 l 600 44 l 708 44 l 676 292 l 365 292 l 226 44 l 325 44 l 325 0 l 40 0 l 40 44 m 675 333 l 626 738 l 617 738 l 388 333 l 675 333 m 658 942 l 925 942 l 925 903 l 658 903 l 658 942 z "},"B":{"ha":856,"x_min":74,"x_max":785,"o":"m 74 44 l 189 44 l 189 738 l 74 738 l 74 782 l 497 782 q 678 733 615 782 q 740 590 740 685 q 708 475 740 522 q 622 415 676 428 q 745 344 706 399 q 785 217 785 290 q 724 60 785 121 q 550 0 664 0 l 74 0 l 74 44 m 522 433 q 639 475 601 433 q 676 588 676 517 q 629 701 676 665 q 485 738 582 738 l 254 738 l 254 433 l 522 433 m 542 44 q 674 91 628 44 q 721 218 721 138 q 672 341 721 294 q 528 388 624 388 l 254 388 l 254 44 l 542 44 z "},"Ḃ":{"ha":856,"x_min":74,"x_max":785,"o":"m 74 44 l 189 44 l 189 738 l 74 738 l 74 782 l 497 782 q 678 733 615 782 q 740 590 740 685 q 708 475 740 522 q 622 415 676 428 q 745 344 706 399 q 785 217 785 290 q 724 60 785 121 q 550 0 664 0 l 74 0 l 74 44 m 522 433 q 639 475 601 433 q 676 588 676 517 q 629 701 676 665 q 485 738 582 738 l 254 738 l 254 433 l 522 433 m 542 44 q 674 91 628 44 q 721 218 721 138 q 672 341 721 294 q 528 388 624 388 l 254 388 l 254 44 l 542 44 m 382 896 q 346 910 360 896 q 332 942 332 924 q 345 975 332 961 q 382 989 358 989 q 419 976 406 989 q 432 942 432 963 q 418 910 432 925 q 382 896 404 896 z "},"C":{"ha":943,"x_min":76,"x_max":843,"o":"m 843 186 q 482 -15 738 -15 q 283 32 375 -15 q 133 172 190 79 q 76 393 76 264 q 127 597 76 506 q 271 742 178 689 q 483 794 364 794 q 666 755 593 794 q 783 640 739 715 l 783 782 l 836 782 l 836 558 l 792 550 q 670 699 742 653 q 485 746 599 746 q 302 698 381 746 q 183 569 224 650 q 142 393 142 489 q 190 199 142 281 q 316 76 238 118 q 485 35 394 35 q 667 76 585 35 q 797 211 750 118 l 843 186 z "},"Ć":{"ha":943,"x_min":76,"x_max":843,"o":"m 843 186 q 482 -15 738 -15 q 283 32 375 -15 q 133 172 190 79 q 76 393 76 264 q 127 597 76 506 q 271 742 178 689 q 483 794 364 794 q 666 755 593 794 q 783 640 739 715 l 783 782 l 836 782 l 836 558 l 792 550 q 670 699 742 653 q 485 746 599 746 q 302 698 381 746 q 183 569 224 650 q 142 393 142 489 q 190 199 142 281 q 316 76 238 118 q 485 35 394 35 q 667 76 585 35 q 797 211 750 118 l 843 186 m 538 1085 l 604 1085 l 508 904 l 472 904 l 538 1085 z "},"Č":{"ha":943,"x_min":76,"x_max":843,"o":"m 843 186 q 482 -15 738 -15 q 283 32 375 -15 q 133 172 190 79 q 76 393 76 264 q 127 597 76 506 q 271 742 178 689 q 483 794 364 794 q 666 755 593 794 q 783 640 739 715 l 783 782 l 836 782 l 836 558 l 792 550 q 670 699 742 653 q 485 746 599 746 q 302 698 381 746 q 183 569 224 650 q 142 393 142 489 q 190 199 142 281 q 316 76 238 118 q 485 35 394 35 q 667 76 585 35 q 797 211 750 118 l 843 186 m 346 1090 l 393 1090 l 488 922 l 582 1090 l 628 1090 l 513 882 l 464 882 l 346 1090 z "},"Ç":{"ha":943,"x_min":76,"x_max":843,"o":"m 843 186 q 700 35 789 82 q 492 -15 611 -12 l 472 -79 q 540 -100 517 -81 q 564 -149 564 -119 q 540 -199 564 -182 q 476 -215 515 -215 q 390 -194 435 -215 l 390 -167 q 454 -178 422 -178 q 507 -146 507 -178 q 488 -118 507 -128 q 425 -107 469 -108 l 460 -15 q 269 39 357 -10 q 129 178 182 88 q 76 393 76 268 q 127 597 76 506 q 271 742 178 689 q 483 794 364 794 q 666 755 593 794 q 783 640 739 715 l 783 782 l 836 782 l 836 558 l 792 550 q 670 699 742 653 q 485 746 599 746 q 302 698 381 746 q 183 569 224 650 q 142 393 142 489 q 190 199 142 281 q 316 76 238 118 q 485 35 394 35 q 667 76 585 35 q 797 211 750 118 l 843 186 z "},"Ḉ":{"ha":943,"x_min":76,"x_max":843,"o":"m 508 904 l 472 904 l 538 1085 l 604 1085 l 508 904 m 843 186 q 700 35 789 82 q 492 -15 611 -12 l 472 -79 q 540 -100 517 -81 q 564 -149 564 -119 q 540 -199 564 -182 q 476 -215 515 -215 q 390 -194 435 -215 l 390 -167 q 454 -178 422 -178 q 507 -146 507 -178 q 488 -118 507 -128 q 425 -107 469 -108 l 460 -15 q 269 39 357 -10 q 129 178 182 88 q 76 393 76 268 q 127 597 76 506 q 271 742 178 689 q 483 794 364 794 q 666 755 593 794 q 783 640 739 715 l 783 782 l 836 782 l 836 558 l 792 550 q 670 699 742 653 q 485 746 599 746 q 302 698 381 746 q 183 569 224 650 q 142 393 142 489 q 190 199 142 281 q 316 76 238 118 q 485 35 394 35 q 667 76 585 35 q 797 211 750 118 l 843 186 z "},"Ĉ":{"ha":943,"x_min":76,"x_max":843,"o":"m 843 186 q 482 -15 738 -15 q 283 32 375 -15 q 133 172 190 79 q 76 393 76 264 q 127 597 76 506 q 271 742 178 689 q 483 794 364 794 q 666 755 593 794 q 783 640 739 715 l 783 782 l 836 782 l 836 558 l 792 550 q 670 699 742 653 q 485 746 599 746 q 302 698 381 746 q 183 569 224 650 q 142 393 142 489 q 190 199 142 281 q 316 76 238 118 q 485 35 394 35 q 667 76 585 35 q 797 211 750 118 l 843 186 m 461 1076 l 515 1076 l 632 864 l 585 864 l 488 1042 l 390 864 l 343 864 l 461 1076 z "},"Ċ":{"ha":943,"x_min":76,"x_max":843,"o":"m 843 186 q 482 -15 738 -15 q 283 32 375 -15 q 133 172 190 79 q 76 393 76 264 q 127 597 76 506 q 271 742 178 689 q 483 794 364 794 q 666 755 593 794 q 783 640 739 715 l 783 782 l 836 782 l 836 558 l 792 550 q 670 699 742 653 q 485 746 599 746 q 302 698 381 746 q 183 569 224 650 q 142 393 142 489 q 190 199 142 281 q 316 76 238 118 q 485 35 394 35 q 667 76 585 35 q 797 211 750 118 l 843 186 m 488 896 q 451 910 465 896 q 438 942 438 924 q 451 975 438 961 q 488 989 464 989 q 524 976 511 989 q 538 942 538 963 q 524 910 538 925 q 488 896 510 896 z "},"D":{"ha":963,"x_min":74,"x_max":883,"o":"m 74 44 l 189 44 l 189 738 l 74 738 l 74 782 l 526 782 q 722 724 642 782 q 843 576 803 667 q 883 392 883 486 q 843 201 883 290 q 723 56 803 111 q 529 0 643 0 l 74 0 l 74 44 m 521 44 q 685 93 618 44 q 785 221 751 142 q 818 390 818 300 q 785 556 818 476 q 685 687 751 636 q 525 738 619 738 l 254 738 l 254 44 l 521 44 z "},"Ǳ":{"ha":1788,"x_min":74,"x_max":1696,"o":"m 74 44 l 189 44 l 189 738 l 74 738 l 74 782 l 526 782 q 722 724 642 782 q 843 576 803 667 q 883 392 883 486 q 843 201 883 290 q 723 56 803 111 q 529 0 643 0 l 74 0 l 74 44 m 521 44 q 685 93 618 44 q 785 221 751 142 q 818 390 818 300 q 785 556 818 476 q 685 687 751 636 q 525 738 619 738 l 254 738 l 254 44 l 521 44 m 1056 47 l 1604 738 l 1125 738 l 1125 538 l 1075 538 l 1075 782 l 1681 782 l 1681 739 l 1131 44 l 1646 44 l 1646 256 l 1696 256 l 1696 0 l 1056 0 l 1056 47 z "},"Ǆ":{"ha":1788,"x_min":74,"x_max":1696,"o":"m 74 44 l 189 44 l 189 738 l 74 738 l 74 782 l 526 782 q 722 724 642 782 q 843 576 803 667 q 883 392 883 486 q 843 201 883 290 q 723 56 803 111 q 529 0 643 0 l 74 0 l 74 44 m 521 44 q 685 93 618 44 q 785 221 751 142 q 818 390 818 300 q 785 556 818 476 q 685 687 751 636 q 525 738 619 738 l 254 738 l 254 44 l 521 44 m 1056 47 l 1604 738 l 1125 738 l 1125 538 l 1075 538 l 1075 782 l 1681 782 l 1681 739 l 1131 44 l 1646 44 l 1646 256 l 1696 256 l 1696 0 l 1056 0 l 1056 47 m 1238 1090 l 1285 1090 l 1379 922 l 1474 1090 l 1519 1090 l 1404 882 l 1356 882 l 1238 1090 z "},"Ð":{"ha":963,"x_min":74,"x_max":883,"o":"m 526 782 q 722 724 642 782 q 843 576 803 667 q 883 392 883 486 q 843 201 883 290 q 723 56 803 111 q 529 0 643 0 l 74 0 l 74 44 l 189 44 l 189 374 l 75 374 l 75 421 l 189 421 l 189 738 l 74 738 l 74 782 l 526 782 m 521 44 q 685 93 618 44 q 785 221 751 142 q 818 390 818 300 q 785 556 818 476 q 685 687 751 636 q 525 738 619 738 l 254 738 l 254 421 l 419 421 l 419 374 l 254 374 l 254 44 l 521 44 z "},"Ď":{"ha":963,"x_min":74,"x_max":883,"o":"m 74 44 l 189 44 l 189 738 l 74 738 l 74 782 l 526 782 q 722 724 642 782 q 843 576 803 667 q 883 392 883 486 q 843 201 883 290 q 723 56 803 111 q 529 0 643 0 l 74 0 l 74 44 m 521 44 q 685 93 618 44 q 785 221 751 142 q 818 390 818 300 q 785 556 818 476 q 685 687 751 636 q 525 738 619 738 l 254 738 l 254 44 l 521 44 m 379 1090 l 426 1090 l 521 922 l 615 1090 l 661 1090 l 546 882 l 497 882 l 379 1090 z "},"Đ":{"ha":963,"x_min":74,"x_max":883,"o":"m 526 782 q 722 724 642 782 q 843 576 803 667 q 883 392 883 486 q 843 201 883 290 q 723 56 803 111 q 529 0 643 0 l 74 0 l 74 44 l 189 44 l 189 374 l 75 374 l 75 421 l 189 421 l 189 738 l 74 738 l 74 782 l 526 782 m 521 44 q 685 93 618 44 q 785 221 751 142 q 818 390 818 300 q 785 556 818 476 q 685 687 751 636 q 525 738 619 738 l 254 738 l 254 421 l 419 421 l 419 374 l 254 374 l 254 44 l 521 44 z "},"Ḋ":{"ha":963,"x_min":74,"x_max":883,"o":"m 74 44 l 189 44 l 189 738 l 74 738 l 74 782 l 526 782 q 722 724 642 782 q 843 576 803 667 q 883 392 883 486 q 843 201 883 290 q 723 56 803 111 q 529 0 643 0 l 74 0 l 74 44 m 521 44 q 685 93 618 44 q 785 221 751 142 q 818 390 818 300 q 785 556 818 476 q 685 687 751 636 q 525 738 619 738 l 254 738 l 254 44 l 521 44 m 521 896 q 485 910 499 896 q 471 942 471 924 q 484 975 471 961 q 521 989 497 989 q 558 976 544 989 q 571 942 571 963 q 557 910 571 925 q 521 896 543 896 z "},"Ḍ":{"ha":963,"x_min":74,"x_max":883,"o":"m 74 44 l 189 44 l 189 738 l 74 738 l 74 782 l 526 782 q 722 724 642 782 q 843 576 803 667 q 883 392 883 486 q 843 201 883 290 q 723 56 803 111 q 529 0 643 0 l 74 0 l 74 44 m 521 44 q 685 93 618 44 q 785 221 751 142 q 818 390 818 300 q 785 556 818 476 q 685 687 751 636 q 525 738 619 738 l 254 738 l 254 44 l 521 44 m 521 -164 q 485 -150 499 -164 q 471 -118 471 -136 q 484 -85 471 -99 q 521 -71 497 -71 q 558 -84 544 -71 q 571 -118 571 -97 q 557 -149 571 -135 q 521 -164 543 -164 z "},"Ḏ":{"ha":963,"x_min":74,"x_max":883,"o":"m 74 44 l 189 44 l 189 738 l 74 738 l 74 782 l 526 782 q 722 724 642 782 q 843 576 803 667 q 883 392 883 486 q 843 201 883 290 q 723 56 803 111 q 529 0 643 0 l 74 0 l 74 44 m 521 44 q 685 93 618 44 q 785 221 751 142 q 818 390 818 300 q 785 556 818 476 q 685 687 751 636 q 525 738 619 738 l 254 738 l 254 44 l 521 44 m 388 -65 l 654 -65 l 654 -104 l 388 -104 l 388 -65 z "},"ǲ":{"ha":1501,"x_min":74,"x_max":1410,"o":"m 74 44 l 189 44 l 189 738 l 74 738 l 74 782 l 526 782 q 722 724 642 782 q 843 576 803 667 q 883 392 883 486 q 843 201 883 290 q 723 56 803 111 q 529 0 643 0 l 74 0 l 74 44 m 521 44 q 685 93 618 44 q 785 221 751 142 q 818 390 818 300 q 785 556 818 476 q 685 687 751 636 q 525 738 619 738 l 254 738 l 254 44 l 521 44 m 958 47 l 1336 503 l 1022 503 l 1022 378 l 972 378 l 972 546 l 1401 546 l 1401 494 l 1029 42 l 1360 42 l 1360 185 l 1410 185 l 1410 0 l 958 0 l 958 47 z "},"ǅ":{"ha":1593,"x_min":74,"x_max":1503,"o":"m 74 44 l 189 44 l 189 738 l 74 738 l 74 782 l 526 782 q 722 724 642 782 q 843 576 803 667 q 883 392 883 486 q 843 201 883 290 q 723 56 803 111 q 529 0 643 0 l 74 0 l 74 44 m 521 44 q 685 93 618 44 q 785 221 751 142 q 818 390 818 300 q 785 556 818 476 q 685 687 751 636 q 525 738 619 738 l 254 738 l 254 44 l 521 44 m 1051 47 l 1429 503 l 1115 503 l 1115 378 l 1065 378 l 1065 546 l 1494 546 l 1494 494 l 1122 42 l 1453 42 l 1453 185 l 1503 185 l 1503 0 l 1051 0 l 1051 47 m 1144 854 l 1192 854 l 1286 686 l 1381 854 l 1426 854 l 1311 646 l 1263 646 l 1144 854 z "},"E":{"ha":822,"x_min":74,"x_max":739,"o":"m 74 44 l 189 44 l 189 738 l 74 738 l 74 782 l 725 782 l 725 556 l 672 556 l 672 738 l 254 738 l 254 424 l 525 424 l 525 531 l 565 531 l 565 264 l 526 264 l 526 378 l 254 378 l 254 44 l 686 44 l 686 229 l 739 229 l 739 0 l 74 0 l 74 44 z "},"É":{"ha":822,"x_min":74,"x_max":739,"o":"m 74 44 l 189 44 l 189 738 l 74 738 l 74 782 l 725 782 l 725 556 l 672 556 l 672 738 l 254 738 l 254 424 l 525 424 l 525 531 l 565 531 l 565 264 l 526 264 l 526 378 l 254 378 l 254 44 l 686 44 l 686 229 l 739 229 l 739 0 l 74 0 l 74 44 m 496 1085 l 563 1085 l 467 904 l 431 904 l 496 1085 z "},"Ĕ":{"ha":822,"x_min":74,"x_max":739,"o":"m 74 44 l 189 44 l 189 738 l 74 738 l 74 782 l 725 782 l 725 556 l 672 556 l 672 738 l 254 738 l 254 424 l 525 424 l 525 531 l 565 531 l 565 264 l 526 264 l 526 378 l 254 378 l 254 44 l 686 44 l 686 229 l 739 229 l 739 0 l 74 0 l 74 44 m 446 892 q 367 920 397 892 q 329 1000 336 949 l 368 1000 q 446 932 385 932 q 522 1000 506 932 l 563 1000 q 524 921 554 949 q 446 892 494 893 z "},"Ě":{"ha":822,"x_min":74,"x_max":739,"o":"m 74 44 l 189 44 l 189 738 l 74 738 l 74 782 l 725 782 l 725 556 l 672 556 l 672 738 l 254 738 l 254 424 l 525 424 l 525 531 l 565 531 l 565 264 l 526 264 l 526 378 l 254 378 l 254 44 l 686 44 l 686 229 l 739 229 l 739 0 l 74 0 l 74 44 m 304 1090 l 351 1090 l 446 922 l 540 1090 l 586 1090 l 471 882 l 422 882 l 304 1090 z "},"Ȩ":{"ha":822,"x_min":74,"x_max":739,"o":"m 74 44 l 189 44 l 189 738 l 74 738 l 74 782 l 725 782 l 725 556 l 672 556 l 672 738 l 254 738 l 254 424 l 525 424 l 525 531 l 565 531 l 565 264 l 526 264 l 526 378 l 254 378 l 254 44 l 686 44 l 686 229 l 739 229 l 739 0 l 74 0 l 74 44 m 460 -215 q 374 -194 418 -215 l 374 -167 q 438 -178 406 -178 q 490 -146 490 -178 q 472 -118 490 -128 q 408 -107 453 -108 l 449 0 l 479 0 l 456 -79 q 524 -100 500 -81 q 547 -149 547 -119 q 523 -199 547 -182 q 460 -215 499 -215 z "},"Ḝ":{"ha":822,"x_min":74,"x_max":739,"o":"m 74 44 l 189 44 l 189 738 l 74 738 l 74 782 l 725 782 l 725 556 l 672 556 l 672 738 l 254 738 l 254 424 l 525 424 l 525 531 l 565 531 l 565 264 l 526 264 l 526 378 l 254 378 l 254 44 l 686 44 l 686 229 l 739 229 l 739 0 l 74 0 l 74 44 m 460 -215 q 374 -194 418 -215 l 374 -167 q 438 -178 406 -178 q 490 -146 490 -178 q 472 -118 490 -128 q 408 -107 453 -108 l 449 0 l 479 0 l 456 -79 q 524 -100 500 -81 q 547 -149 547 -119 q 523 -199 547 -182 q 460 -215 499 -215 m 446 892 q 367 920 397 892 q 329 1000 336 949 l 368 1000 q 446 932 385 932 q 522 1000 506 932 l 563 1000 q 524 921 554 949 q 446 892 494 893 z "},"Ê":{"ha":822,"x_min":74,"x_max":739,"o":"m 74 44 l 189 44 l 189 738 l 74 738 l 74 782 l 725 782 l 725 556 l 672 556 l 672 738 l 254 738 l 254 424 l 525 424 l 525 531 l 565 531 l 565 264 l 526 264 l 526 378 l 254 378 l 254 44 l 686 44 l 686 229 l 739 229 l 739 0 l 74 0 l 74 44 m 419 1076 l 474 1076 l 590 864 l 543 864 l 446 1042 l 349 864 l 301 864 l 419 1076 z "},"Ế":{"ha":822,"x_min":74,"x_max":739,"o":"m 74 44 l 189 44 l 189 738 l 74 738 l 74 782 l 725 782 l 725 556 l 672 556 l 672 738 l 254 738 l 254 424 l 525 424 l 525 531 l 565 531 l 565 264 l 526 264 l 526 378 l 254 378 l 254 44 l 686 44 l 686 229 l 739 229 l 739 0 l 74 0 l 74 44 m 603 1143 l 663 1143 l 582 986 l 546 986 l 603 1143 m 419 1035 l 474 1035 l 590 864 l 543 864 l 446 1000 l 349 864 l 301 864 l 419 1035 z "},"Ệ":{"ha":822,"x_min":74,"x_max":739,"o":"m 74 44 l 189 44 l 189 738 l 74 738 l 74 782 l 725 782 l 725 556 l 672 556 l 672 738 l 254 738 l 254 424 l 525 424 l 525 531 l 565 531 l 565 264 l 526 264 l 526 378 l 254 378 l 254 44 l 686 44 l 686 229 l 739 229 l 739 0 l 74 0 l 74 44 m 419 1076 l 474 1076 l 590 864 l 543 864 l 446 1042 l 349 864 l 301 864 l 419 1076 m 464 -164 q 428 -150 442 -164 q 414 -118 414 -136 q 427 -85 414 -99 q 464 -71 440 -71 q 501 -84 488 -71 q 514 -118 514 -97 q 500 -149 514 -135 q 464 -164 486 -164 z "},"Ề":{"ha":822,"x_min":74,"x_max":739,"o":"m 74 44 l 189 44 l 189 738 l 74 738 l 74 782 l 725 782 l 725 556 l 672 556 l 672 738 l 254 738 l 254 424 l 525 424 l 525 531 l 565 531 l 565 264 l 526 264 l 526 378 l 254 378 l 254 44 l 686 44 l 686 229 l 739 229 l 739 0 l 74 0 l 74 44 m 567 986 l 486 1143 l 546 1143 l 603 986 l 567 986 m 419 1035 l 474 1035 l 590 864 l 543 864 l 446 1000 l 349 864 l 301 864 l 419 1035 z "},"Ể":{"ha":822,"x_min":74,"x_max":739,"o":"m 74 44 l 189 44 l 189 738 l 74 738 l 74 782 l 725 782 l 725 556 l 672 556 l 672 738 l 254 738 l 254 424 l 525 424 l 525 531 l 565 531 l 565 264 l 526 264 l 526 378 l 254 378 l 254 44 l 686 44 l 686 229 l 739 229 l 739 0 l 74 0 l 74 44 m 539 1018 q 582 1067 582 1033 q 569 1096 582 1085 q 535 1107 557 1107 q 475 1089 507 1107 l 458 1128 q 539 1149 500 1149 q 605 1126 581 1149 q 629 1069 629 1104 q 554 978 629 1004 l 539 1018 m 419 1035 l 474 1035 l 590 864 l 543 864 l 446 1000 l 349 864 l 301 864 l 419 1035 z "},"Ễ":{"ha":822,"x_min":74,"x_max":739,"o":"m 74 44 l 189 44 l 189 738 l 74 738 l 74 782 l 725 782 l 725 556 l 672 556 l 672 738 l 254 738 l 254 424 l 525 424 l 525 531 l 565 531 l 565 264 l 526 264 l 526 378 l 254 378 l 254 44 l 686 44 l 686 229 l 739 229 l 739 0 l 74 0 l 74 44 m 515 1061 q 481 1067 497 1061 q 438 1085 465 1072 q 369 1107 390 1107 q 333 1064 338 1107 l 301 1064 q 324 1128 303 1104 q 378 1153 344 1153 q 411 1147 394 1153 q 453 1129 428 1140 q 488 1114 469 1121 q 518 1107 506 1107 q 557 1150 553 1107 l 589 1150 q 515 1061 586 1061 m 419 1035 l 474 1035 l 590 864 l 543 864 l 446 1000 l 349 864 l 301 864 l 419 1035 z "},"Ȅ":{"ha":822,"x_min":74,"x_max":739,"o":"m 74 44 l 189 44 l 189 738 l 74 738 l 74 782 l 725 782 l 725 556 l 672 556 l 672 738 l 254 738 l 254 424 l 525 424 l 525 531 l 565 531 l 565 264 l 526 264 l 526 378 l 254 378 l 254 44 l 686 44 l 686 229 l 739 229 l 739 0 l 74 0 l 74 44 m 233 1108 l 300 1108 l 375 904 l 339 904 l 233 1108 m 385 1108 l 450 1108 l 525 904 l 489 904 l 385 1108 z "},"Ë":{"ha":822,"x_min":74,"x_max":739,"o":"m 74 44 l 189 44 l 189 738 l 74 738 l 74 782 l 725 782 l 725 556 l 672 556 l 672 738 l 254 738 l 254 424 l 525 424 l 525 531 l 565 531 l 565 264 l 526 264 l 526 378 l 254 378 l 254 44 l 686 44 l 686 229 l 739 229 l 739 0 l 74 0 l 74 44 m 328 896 q 299 907 310 896 q 288 936 288 918 q 299 965 288 954 q 328 975 310 975 q 358 965 347 975 q 369 936 369 954 q 358 907 369 918 q 328 896 347 896 m 564 896 q 533 906 544 896 q 522 935 522 917 q 533 964 522 953 q 564 975 544 975 q 593 964 582 975 q 604 935 604 953 q 593 906 604 917 q 564 896 582 896 z "},"Ė":{"ha":822,"x_min":74,"x_max":739,"o":"m 74 44 l 189 44 l 189 738 l 74 738 l 74 782 l 725 782 l 725 556 l 672 556 l 672 738 l 254 738 l 254 424 l 525 424 l 525 531 l 565 531 l 565 264 l 526 264 l 526 378 l 254 378 l 254 44 l 686 44 l 686 229 l 739 229 l 739 0 l 74 0 l 74 44 m 446 896 q 410 910 424 896 q 396 942 396 924 q 409 975 396 961 q 446 989 422 989 q 483 976 469 989 q 496 942 496 963 q 482 910 496 925 q 446 896 468 896 z "},"Ẹ":{"ha":822,"x_min":74,"x_max":739,"o":"m 74 44 l 189 44 l 189 738 l 74 738 l 74 782 l 725 782 l 725 556 l 672 556 l 672 738 l 254 738 l 254 424 l 525 424 l 525 531 l 565 531 l 565 264 l 526 264 l 526 378 l 254 378 l 254 44 l 686 44 l 686 229 l 739 229 l 739 0 l 74 0 l 74 44 m 464 -164 q 428 -150 442 -164 q 414 -118 414 -136 q 427 -85 414 -99 q 464 -71 440 -71 q 501 -84 488 -71 q 514 -118 514 -97 q 500 -149 514 -135 q 464 -164 486 -164 z "},"È":{"ha":822,"x_min":74,"x_max":739,"o":"m 74 44 l 189 44 l 189 738 l 74 738 l 74 782 l 725 782 l 725 556 l 672 556 l 672 738 l 254 738 l 254 424 l 525 424 l 525 531 l 565 531 l 565 264 l 526 264 l 526 378 l 254 378 l 254 44 l 686 44 l 686 229 l 739 229 l 739 0 l 74 0 l 74 44 m 329 1085 l 396 1085 l 461 904 l 425 904 l 329 1085 z "},"Ẻ":{"ha":822,"x_min":74,"x_max":739,"o":"m 74 44 l 189 44 l 189 738 l 74 738 l 74 782 l 725 782 l 725 556 l 672 556 l 672 738 l 254 738 l 254 424 l 525 424 l 525 531 l 565 531 l 565 264 l 526 264 l 526 378 l 254 378 l 254 44 l 686 44 l 686 229 l 739 229 l 739 0 l 74 0 l 74 44 m 431 883 q 474 932 474 899 q 461 961 474 950 q 426 972 449 972 q 367 954 399 972 l 350 993 q 431 1014 392 1014 q 497 992 472 1014 q 521 935 521 969 q 446 843 521 869 l 431 883 z "},"Ȇ":{"ha":822,"x_min":74,"x_max":739,"o":"m 74 44 l 189 44 l 189 738 l 74 738 l 74 782 l 725 782 l 725 556 l 672 556 l 672 738 l 254 738 l 254 424 l 525 424 l 525 531 l 565 531 l 565 264 l 526 264 l 526 378 l 254 378 l 254 44 l 686 44 l 686 229 l 739 229 l 739 0 l 74 0 l 74 44 m 325 882 q 366 965 335 936 q 446 994 397 994 q 527 965 496 994 q 565 882 558 935 l 521 882 q 446 947 504 947 q 371 882 386 947 l 325 882 z "},"Ē":{"ha":822,"x_min":74,"x_max":739,"o":"m 74 44 l 189 44 l 189 738 l 74 738 l 74 782 l 725 782 l 725 556 l 672 556 l 672 738 l 254 738 l 254 424 l 525 424 l 525 531 l 565 531 l 565 264 l 526 264 l 526 378 l 254 378 l 254 44 l 686 44 l 686 229 l 739 229 l 739 0 l 74 0 l 74 44 m 313 942 l 579 942 l 579 903 l 313 903 l 313 942 z "},"Ḗ":{"ha":822,"x_min":74,"x_max":739,"o":"m 74 44 l 189 44 l 189 738 l 74 738 l 74 782 l 725 782 l 725 556 l 672 556 l 672 738 l 254 738 l 254 424 l 525 424 l 525 531 l 565 531 l 565 264 l 526 264 l 526 378 l 254 378 l 254 44 l 686 44 l 686 229 l 739 229 l 739 0 l 74 0 l 74 44 m 313 942 l 579 942 l 579 903 l 313 903 l 313 942 m 496 1229 l 563 1229 l 467 1049 l 431 1049 l 496 1229 z "},"Ḕ":{"ha":822,"x_min":74,"x_max":739,"o":"m 74 44 l 189 44 l 189 738 l 74 738 l 74 782 l 725 782 l 725 556 l 672 556 l 672 738 l 254 738 l 254 424 l 525 424 l 525 531 l 565 531 l 565 264 l 526 264 l 526 378 l 254 378 l 254 44 l 686 44 l 686 229 l 739 229 l 739 0 l 74 0 l 74 44 m 313 942 l 579 942 l 579 903 l 313 903 l 313 942 m 329 1229 l 396 1229 l 461 1049 l 425 1049 l 329 1229 z "},"Ę":{"ha":822,"x_min":74,"x_max":739,"o":"m 74 44 l 189 44 l 189 738 l 74 738 l 74 782 l 725 782 l 725 556 l 672 556 l 672 738 l 254 738 l 254 424 l 525 424 l 525 531 l 565 531 l 565 264 l 526 264 l 526 378 l 254 378 l 254 44 l 686 44 l 686 229 l 739 229 l 739 0 l 74 0 l 74 44 m 656 -219 q 586 -195 614 -219 q 558 -131 558 -171 q 633 0 558 -67 l 674 0 q 607 -117 607 -67 q 624 -162 607 -147 q 671 -178 642 -178 q 735 -157 704 -178 l 735 -193 q 656 -219 696 -219 z "},"Ẽ":{"ha":822,"x_min":74,"x_max":739,"o":"m 74 44 l 189 44 l 189 738 l 74 738 l 74 782 l 725 782 l 725 556 l 672 556 l 672 738 l 254 738 l 254 424 l 525 424 l 525 531 l 565 531 l 565 264 l 526 264 l 526 378 l 254 378 l 254 44 l 686 44 l 686 229 l 739 229 l 739 0 l 74 0 l 74 44 m 524 901 q 485 908 506 901 q 439 929 465 915 q 397 949 414 942 q 364 956 379 956 q 325 904 326 956 l 293 904 q 315 975 294 949 q 369 1001 335 1001 q 406 994 388 1001 q 451 974 424 988 q 494 954 476 961 q 526 947 511 947 q 568 999 564 947 l 600 999 q 580 926 597 951 q 524 901 563 901 z "},"F":{"ha":779,"x_min":74,"x_max":726,"o":"m 74 44 l 189 44 l 189 738 l 74 738 l 74 782 l 726 782 l 726 542 l 675 542 l 675 738 l 254 738 l 254 428 l 524 428 l 524 526 l 563 526 l 563 269 l 524 269 l 524 379 l 254 379 l 254 44 l 369 44 l 369 0 l 74 0 l 74 44 z "},"Ḟ":{"ha":779,"x_min":74,"x_max":726,"o":"m 74 44 l 189 44 l 189 738 l 74 738 l 74 782 l 726 782 l 726 542 l 675 542 l 675 738 l 254 738 l 254 428 l 524 428 l 524 526 l 563 526 l 563 269 l 524 269 l 524 379 l 254 379 l 254 44 l 369 44 l 369 0 l 74 0 l 74 44 m 429 896 q 393 910 407 896 q 379 942 379 924 q 392 975 379 961 q 429 989 406 989 q 466 976 453 989 q 479 942 479 963 q 465 910 479 925 q 429 896 451 896 z "},"G":{"ha":947,"x_min":75,"x_max":863,"o":"m 863 379 l 863 363 q 808 142 863 226 q 669 21 754 57 q 486 -15 583 -15 q 267 35 360 -15 q 124 179 174 86 q 75 394 75 272 q 126 606 75 515 q 269 747 176 697 q 485 796 363 796 q 653 760 578 796 q 775 658 728 725 l 775 782 l 829 782 l 829 561 l 782 561 q 666 699 744 650 q 486 747 588 747 q 304 705 382 747 q 185 583 226 663 q 143 397 143 504 q 185 206 143 288 q 306 79 228 124 q 488 35 383 35 q 633 65 563 36 q 750 160 703 93 q 799 333 797 226 l 629 333 l 629 379 l 863 379 z "},"Ǵ":{"ha":947,"x_min":75,"x_max":863,"o":"m 863 379 l 863 363 q 808 142 863 226 q 669 21 754 57 q 486 -15 583 -15 q 267 35 360 -15 q 124 179 174 86 q 75 394 75 272 q 126 606 75 515 q 269 747 176 697 q 485 796 363 796 q 653 760 578 796 q 775 658 728 725 l 775 782 l 829 782 l 829 561 l 782 561 q 666 699 744 650 q 486 747 588 747 q 304 705 382 747 q 185 583 226 663 q 143 397 143 504 q 185 206 143 288 q 306 79 228 124 q 488 35 383 35 q 633 65 563 36 q 750 160 703 93 q 799 333 797 226 l 629 333 l 629 379 l 863 379 m 533 1085 l 600 1085 l 504 904 l 468 904 l 533 1085 z "},"Ğ":{"ha":947,"x_min":75,"x_max":863,"o":"m 863 379 l 863 363 q 808 142 863 226 q 669 21 754 57 q 486 -15 583 -15 q 267 35 360 -15 q 124 179 174 86 q 75 394 75 272 q 126 606 75 515 q 269 747 176 697 q 485 796 363 796 q 653 760 578 796 q 775 658 728 725 l 775 782 l 829 782 l 829 561 l 782 561 q 666 699 744 650 q 486 747 588 747 q 304 705 382 747 q 185 583 226 663 q 143 397 143 504 q 185 206 143 288 q 306 79 228 124 q 488 35 383 35 q 633 65 563 36 q 750 160 703 93 q 799 333 797 226 l 629 333 l 629 379 l 863 379 m 483 892 q 404 920 435 892 q 367 1000 374 949 l 406 1000 q 483 932 422 932 q 560 1000 543 932 l 600 1000 q 562 921 592 949 q 483 892 532 893 z "},"Ǧ":{"ha":947,"x_min":75,"x_max":863,"o":"m 863 379 l 863 363 q 808 142 863 226 q 669 21 754 57 q 486 -15 583 -15 q 267 35 360 -15 q 124 179 174 86 q 75 394 75 272 q 126 606 75 515 q 269 747 176 697 q 485 796 363 796 q 653 760 578 796 q 775 658 728 725 l 775 782 l 829 782 l 829 561 l 782 561 q 666 699 744 650 q 486 747 588 747 q 304 705 382 747 q 185 583 226 663 q 143 397 143 504 q 185 206 143 288 q 306 79 228 124 q 488 35 383 35 q 633 65 563 36 q 750 160 703 93 q 799 333 797 226 l 629 333 l 629 379 l 863 379 m 342 1090 l 389 1090 l 483 922 l 578 1090 l 624 1090 l 508 882 l 460 882 l 342 1090 z "},"Ĝ":{"ha":947,"x_min":75,"x_max":863,"o":"m 863 379 l 863 363 q 808 142 863 226 q 669 21 754 57 q 486 -15 583 -15 q 267 35 360 -15 q 124 179 174 86 q 75 394 75 272 q 126 606 75 515 q 269 747 176 697 q 485 796 363 796 q 653 760 578 796 q 775 658 728 725 l 775 782 l 829 782 l 829 561 l 782 561 q 666 699 744 650 q 486 747 588 747 q 304 705 382 747 q 185 583 226 663 q 143 397 143 504 q 185 206 143 288 q 306 79 228 124 q 488 35 383 35 q 633 65 563 36 q 750 160 703 93 q 799 333 797 226 l 629 333 l 629 379 l 863 379 m 457 1076 l 511 1076 l 628 864 l 581 864 l 483 1042 l 386 864 l 339 864 l 457 1076 z "},"Ģ":{"ha":947,"x_min":75,"x_max":863,"o":"m 863 379 l 863 363 q 808 142 863 226 q 669 21 754 57 q 486 -15 583 -15 q 267 35 360 -15 q 124 179 174 86 q 75 394 75 272 q 126 606 75 515 q 269 747 176 697 q 485 796 363 796 q 653 760 578 796 q 775 658 728 725 l 775 782 l 829 782 l 829 561 l 782 561 q 666 699 744 650 q 486 747 588 747 q 304 705 382 747 q 185 583 226 663 q 143 397 143 504 q 185 206 143 288 q 306 79 228 124 q 488 35 383 35 q 633 65 563 36 q 750 160 703 93 q 799 333 797 226 l 629 333 l 629 379 l 863 379 m 433 -256 q 480 -227 468 -251 q 492 -154 492 -203 l 442 -154 l 442 -71 l 529 -71 l 529 -161 q 433 -282 529 -283 l 433 -256 z "},"Ġ":{"ha":947,"x_min":75,"x_max":863,"o":"m 863 379 l 863 363 q 808 142 863 226 q 669 21 754 57 q 486 -15 583 -15 q 267 35 360 -15 q 124 179 174 86 q 75 394 75 272 q 126 606 75 515 q 269 747 176 697 q 485 796 363 796 q 653 760 578 796 q 775 658 728 725 l 775 782 l 829 782 l 829 561 l 782 561 q 666 699 744 650 q 486 747 588 747 q 304 705 382 747 q 185 583 226 663 q 143 397 143 504 q 185 206 143 288 q 306 79 228 124 q 488 35 383 35 q 633 65 563 36 q 750 160 703 93 q 799 333 797 226 l 629 333 l 629 379 l 863 379 m 483 896 q 447 910 461 896 q 433 942 433 924 q 447 975 433 961 q 483 989 460 989 q 520 976 507 989 q 533 942 533 963 q 519 910 533 925 q 483 896 506 896 z "},"Ḡ":{"ha":947,"x_min":75,"x_max":863,"o":"m 863 379 l 863 363 q 808 142 863 226 q 669 21 754 57 q 486 -15 583 -15 q 267 35 360 -15 q 124 179 174 86 q 75 394 75 272 q 126 606 75 515 q 269 747 176 697 q 485 796 363 796 q 653 760 578 796 q 775 658 728 725 l 775 782 l 829 782 l 829 561 l 782 561 q 666 699 744 650 q 486 747 588 747 q 304 705 382 747 q 185 583 226 663 q 143 397 143 504 q 185 206 143 288 q 306 79 228 124 q 488 35 383 35 q 633 65 563 36 q 750 160 703 93 q 799 333 797 226 l 629 333 l 629 379 l 863 379 m 350 942 l 617 942 l 617 903 l 350 903 l 350 942 z "},"H":{"ha":999,"x_min":74,"x_max":924,"o":"m 74 44 l 189 44 l 189 738 l 74 738 l 74 782 l 369 782 l 369 738 l 254 738 l 254 421 l 746 421 l 746 738 l 631 738 l 631 782 l 924 782 l 924 738 l 810 738 l 810 44 l 924 44 l 924 0 l 631 0 l 631 44 l 746 44 l 746 374 l 254 374 l 254 44 l 369 44 l 369 0 l 74 0 l 74 44 z "},"Ħ":{"ha":999,"x_min":74,"x_max":924,"o":"m 810 738 l 810 596 l 878 596 l 878 554 l 810 554 l 810 44 l 924 44 l 924 0 l 631 0 l 631 44 l 746 44 l 746 374 l 254 374 l 254 44 l 369 44 l 369 0 l 74 0 l 74 44 l 189 44 l 189 554 l 121 554 l 121 596 l 189 596 l 189 738 l 74 738 l 74 782 l 369 782 l 369 738 l 254 738 l 254 596 l 746 596 l 746 738 l 631 738 l 631 782 l 924 782 l 924 738 l 810 738 m 746 554 l 254 554 l 254 421 l 746 421 l 746 554 z "},"Ḫ":{"ha":999,"x_min":74,"x_max":924,"o":"m 74 44 l 189 44 l 189 738 l 74 738 l 74 782 l 369 782 l 369 738 l 254 738 l 254 421 l 746 421 l 746 738 l 631 738 l 631 782 l 924 782 l 924 738 l 810 738 l 810 44 l 924 44 l 924 0 l 631 0 l 631 44 l 746 44 l 746 374 l 254 374 l 254 44 l 369 44 l 369 0 l 74 0 l 74 44 m 497 -179 q 418 -151 449 -179 q 381 -71 388 -122 l 419 -71 q 497 -139 436 -139 q 574 -71 557 -139 l 614 -71 q 576 -150 606 -122 q 497 -179 546 -178 z "},"Ȟ":{"ha":999,"x_min":74,"x_max":924,"o":"m 74 44 l 189 44 l 189 738 l 74 738 l 74 782 l 369 782 l 369 738 l 254 738 l 254 421 l 746 421 l 746 738 l 631 738 l 631 782 l 924 782 l 924 738 l 810 738 l 810 44 l 924 44 l 924 0 l 631 0 l 631 44 l 746 44 l 746 374 l 254 374 l 254 44 l 369 44 l 369 0 l 74 0 l 74 44 m 358 1090 l 406 1090 l 500 922 l 594 1090 l 640 1090 l 525 882 l 476 882 l 358 1090 z "},"Ĥ":{"ha":999,"x_min":74,"x_max":924,"o":"m 74 44 l 189 44 l 189 738 l 74 738 l 74 782 l 369 782 l 369 738 l 254 738 l 254 421 l 746 421 l 746 738 l 631 738 l 631 782 l 924 782 l 924 738 l 810 738 l 810 44 l 924 44 l 924 0 l 631 0 l 631 44 l 746 44 l 746 374 l 254 374 l 254 44 l 369 44 l 369 0 l 74 0 l 74 44 m 474 1076 l 528 1076 l 644 864 l 597 864 l 500 1042 l 403 864 l 356 864 l 474 1076 z "},"Ḥ":{"ha":999,"x_min":74,"x_max":924,"o":"m 74 44 l 189 44 l 189 738 l 74 738 l 74 782 l 369 782 l 369 738 l 254 738 l 254 421 l 746 421 l 746 738 l 631 738 l 631 782 l 924 782 l 924 738 l 810 738 l 810 44 l 924 44 l 924 0 l 631 0 l 631 44 l 746 44 l 746 374 l 254 374 l 254 44 l 369 44 l 369 0 l 74 0 l 74 44 m 497 -164 q 461 -150 475 -164 q 447 -118 447 -136 q 460 -85 447 -99 q 497 -71 474 -71 q 534 -84 521 -71 q 547 -118 547 -97 q 533 -149 547 -135 q 497 -164 519 -164 z "},"I":{"ha":444,"x_min":74,"x_max":369,"o":"m 74 44 l 189 44 l 189 738 l 74 738 l 74 782 l 369 782 l 369 738 l 254 738 l 254 44 l 369 44 l 369 0 l 74 0 l 74 44 z "},"Ĳ":{"ha":851,"x_min":74,"x_max":813,"o":"m 74 44 l 189 44 l 189 738 l 74 738 l 74 782 l 369 782 l 369 738 l 254 738 l 254 44 l 369 44 l 369 0 l 74 0 l 74 44 m 506 -28 l 589 -28 q 644 -1 631 -28 q 657 92 657 26 l 657 738 l 561 738 l 561 782 l 813 782 l 813 738 l 722 738 l 722 88 q 692 -42 722 -7 q 590 -78 663 -78 l 506 -78 l 506 -28 z "},"Í":{"ha":444,"x_min":74,"x_max":369,"o":"m 74 44 l 189 44 l 189 738 l 74 738 l 74 782 l 369 782 l 369 738 l 254 738 l 254 44 l 369 44 l 369 0 l 74 0 l 74 44 m 274 1085 l 340 1085 l 244 904 l 208 904 l 274 1085 z "},"Ĭ":{"ha":444,"x_min":74,"x_max":369,"o":"m 74 44 l 189 44 l 189 738 l 74 738 l 74 782 l 369 782 l 369 738 l 254 738 l 254 44 l 369 44 l 369 0 l 74 0 l 74 44 m 224 892 q 144 920 175 892 q 107 1000 114 949 l 146 1000 q 224 932 163 932 q 300 1000 283 932 l 340 1000 q 302 921 332 949 q 224 892 272 893 z "},"Ǐ":{"ha":444,"x_min":74,"x_max":369,"o":"m 74 44 l 189 44 l 189 738 l 74 738 l 74 782 l 369 782 l 369 738 l 254 738 l 254 44 l 369 44 l 369 0 l 74 0 l 74 44 m 82 1090 l 129 1090 l 224 922 l 318 1090 l 364 1090 l 249 882 l 200 882 l 82 1090 z "},"Î":{"ha":444,"x_min":74,"x_max":369,"o":"m 74 44 l 189 44 l 189 738 l 74 738 l 74 782 l 369 782 l 369 738 l 254 738 l 254 44 l 369 44 l 369 0 l 74 0 l 74 44 m 197 1076 l 251 1076 l 368 864 l 321 864 l 224 1042 l 126 864 l 79 864 l 197 1076 z "},"Ȉ":{"ha":444,"x_min":11,"x_max":369,"o":"m 74 44 l 189 44 l 189 738 l 74 738 l 74 782 l 369 782 l 369 738 l 254 738 l 254 44 l 369 44 l 369 0 l 74 0 l 74 44 m 11 1108 l 78 1108 l 153 904 l 117 904 l 11 1108 m 163 1108 l 228 1108 l 303 904 l 267 904 l 163 1108 z "},"Ï":{"ha":444,"x_min":65,"x_max":382,"o":"m 74 44 l 189 44 l 189 738 l 74 738 l 74 782 l 369 782 l 369 738 l 254 738 l 254 44 l 369 44 l 369 0 l 74 0 l 74 44 m 106 896 q 76 907 88 896 q 65 936 65 918 q 76 965 65 954 q 106 975 88 975 q 136 965 125 975 q 147 936 147 954 q 136 907 147 918 q 106 896 125 896 m 342 896 q 311 906 322 896 q 300 935 300 917 q 311 964 300 953 q 342 975 322 975 q 371 964 360 975 q 382 935 382 953 q 371 906 382 917 q 342 896 360 896 z "},"Ḯ":{"ha":444,"x_min":65,"x_max":382,"o":"m 74 44 l 189 44 l 189 738 l 74 738 l 74 782 l 369 782 l 369 738 l 254 738 l 254 44 l 369 44 l 369 0 l 74 0 l 74 44 m 106 896 q 76 907 88 896 q 65 936 65 918 q 76 965 65 954 q 106 975 88 975 q 136 965 125 975 q 147 936 147 954 q 136 907 147 918 q 106 896 125 896 m 342 896 q 311 906 322 896 q 300 935 300 917 q 311 964 300 953 q 342 975 322 975 q 371 964 360 975 q 382 935 382 953 q 371 906 382 917 q 342 896 360 896 m 274 1288 l 340 1288 l 244 1107 l 208 1107 l 274 1288 z "},"İ":{"ha":444,"x_min":74,"x_max":369,"o":"m 74 44 l 189 44 l 189 738 l 74 738 l 74 782 l 369 782 l 369 738 l 254 738 l 254 44 l 369 44 l 369 0 l 74 0 l 74 44 m 224 896 q 188 910 201 896 q 174 942 174 924 q 187 975 174 961 q 224 989 200 989 q 260 976 247 989 q 274 942 274 963 q 260 910 274 925 q 224 896 246 896 z "},"Ị":{"ha":444,"x_min":74,"x_max":369,"o":"m 74 44 l 189 44 l 189 738 l 74 738 l 74 782 l 369 782 l 369 738 l 254 738 l 254 44 l 369 44 l 369 0 l 74 0 l 74 44 m 222 -164 q 186 -150 200 -164 q 172 -118 172 -136 q 185 -85 172 -99 q 222 -71 199 -71 q 259 -84 246 -71 q 272 -118 272 -97 q 258 -149 272 -135 q 222 -164 244 -164 z "},"Ì":{"ha":444,"x_min":74,"x_max":369,"o":"m 74 44 l 189 44 l 189 738 l 74 738 l 74 782 l 369 782 l 369 738 l 254 738 l 254 44 l 369 44 l 369 0 l 74 0 l 74 44 m 107 1085 l 174 1085 l 239 904 l 203 904 l 107 1085 z "},"Ỉ":{"ha":444,"x_min":74,"x_max":369,"o":"m 74 44 l 189 44 l 189 738 l 74 738 l 74 782 l 369 782 l 369 738 l 254 738 l 254 44 l 369 44 l 369 0 l 74 0 l 74 44 m 208 883 q 251 932 251 899 q 239 961 251 950 q 204 972 226 972 q 144 954 176 972 l 128 993 q 208 1014 169 1014 q 274 992 250 1014 q 299 935 299 969 q 224 843 299 869 l 208 883 z "},"Ȋ":{"ha":444,"x_min":74,"x_max":369,"o":"m 74 44 l 189 44 l 189 738 l 74 738 l 74 782 l 369 782 l 369 738 l 254 738 l 254 44 l 369 44 l 369 0 l 74 0 l 74 44 m 103 882 q 144 965 113 936 q 224 994 175 994 q 305 965 274 994 q 343 882 336 935 l 299 882 q 224 947 282 947 q 149 882 164 947 l 103 882 z "},"Ī":{"ha":444,"x_min":74,"x_max":369,"o":"m 74 44 l 189 44 l 189 738 l 74 738 l 74 782 l 369 782 l 369 738 l 254 738 l 254 44 l 369 44 l 369 0 l 74 0 l 74 44 m 90 942 l 357 942 l 357 903 l 90 903 l 90 942 z "},"Į":{"ha":444,"x_min":74,"x_max":369,"o":"m 74 44 l 189 44 l 189 738 l 74 738 l 74 782 l 369 782 l 369 738 l 254 738 l 254 44 l 369 44 l 369 0 l 74 0 l 74 44 m 222 -219 q 153 -195 181 -219 q 125 -131 125 -171 q 200 0 125 -67 l 240 0 q 174 -117 174 -67 q 191 -162 174 -147 q 238 -178 208 -178 q 301 -157 271 -178 l 301 -193 q 222 -219 263 -219 z "},"Ĩ":{"ha":444,"x_min":71,"x_max":378,"o":"m 74 44 l 189 44 l 189 738 l 74 738 l 74 782 l 369 782 l 369 738 l 254 738 l 254 44 l 369 44 l 369 0 l 74 0 l 74 44 m 301 901 q 263 908 283 901 q 217 929 243 915 q 174 949 192 942 q 142 956 157 956 q 103 904 104 956 l 71 904 q 92 975 72 949 q 147 1001 113 1001 q 183 994 165 1001 q 229 974 201 988 q 272 954 254 961 q 304 947 289 947 q 346 999 342 947 l 378 999 q 358 926 375 951 q 301 901 340 901 z "},"J":{"ha":407,"x_min":61,"x_max":368,"o":"m 61 -28 l 144 -28 q 199 -1 186 -28 q 213 92 213 26 l 213 738 l 117 738 l 117 782 l 368 782 l 368 738 l 278 738 l 278 88 q 248 -42 278 -7 q 146 -78 218 -78 l 61 -78 l 61 -28 z "},"Ĵ":{"ha":407,"x_min":61,"x_max":390,"o":"m 61 -28 l 144 -28 q 199 -1 186 -28 q 213 92 213 26 l 213 738 l 117 738 l 117 782 l 368 782 l 368 738 l 278 738 l 278 88 q 248 -42 278 -7 q 146 -78 218 -78 l 61 -78 l 61 -28 m 219 1076 l 274 1076 l 390 864 l 343 864 l 246 1042 l 149 864 l 101 864 l 219 1076 z "},"K":{"ha":882,"x_min":74,"x_max":831,"o":"m 74 44 l 189 44 l 189 738 l 74 738 l 74 782 l 369 782 l 369 738 l 254 738 l 254 404 l 626 738 l 526 738 l 526 782 l 814 782 l 814 738 l 703 738 l 325 397 l 724 44 l 831 44 l 831 0 l 543 0 l 543 44 l 643 44 l 254 386 l 254 44 l 369 44 l 369 0 l 74 0 l 74 44 z "},"Ǩ":{"ha":882,"x_min":74,"x_max":831,"o":"m 74 44 l 189 44 l 189 738 l 74 738 l 74 782 l 369 782 l 369 738 l 254 738 l 254 404 l 626 738 l 526 738 l 526 782 l 814 782 l 814 738 l 703 738 l 325 397 l 724 44 l 831 44 l 831 0 l 543 0 l 543 44 l 643 44 l 254 386 l 254 44 l 369 44 l 369 0 l 74 0 l 74 44 m 304 1090 l 351 1090 l 446 922 l 540 1090 l 586 1090 l 471 882 l 422 882 l 304 1090 z "},"Ķ":{"ha":882,"x_min":74,"x_max":831,"o":"m 74 44 l 189 44 l 189 738 l 74 738 l 74 782 l 369 782 l 369 738 l 254 738 l 254 404 l 626 738 l 526 738 l 526 782 l 814 782 l 814 738 l 703 738 l 325 397 l 724 44 l 831 44 l 831 0 l 543 0 l 543 44 l 643 44 l 254 386 l 254 44 l 369 44 l 369 0 l 74 0 l 74 44 m 406 -256 q 452 -227 440 -251 q 464 -154 464 -203 l 414 -154 l 414 -71 l 501 -71 l 501 -161 q 406 -282 501 -283 l 406 -256 z "},"L":{"ha":722,"x_min":74,"x_max":686,"o":"m 74 44 l 189 44 l 189 738 l 74 738 l 74 782 l 369 782 l 369 738 l 254 738 l 254 44 l 632 44 l 632 272 l 686 272 l 686 0 l 74 0 l 74 44 z "},"Ǉ":{"ha":1129,"x_min":74,"x_max":1090,"o":"m 74 44 l 189 44 l 189 738 l 74 738 l 74 782 l 369 782 l 369 738 l 254 738 l 254 44 l 632 44 l 632 272 l 686 272 l 686 0 l 74 0 l 74 44 m 783 -28 l 867 -28 q 922 -1 908 -28 q 935 92 935 26 l 935 738 l 839 738 l 839 782 l 1090 782 l 1090 738 l 1000 738 l 1000 88 q 970 -42 1000 -7 q 868 -78 940 -78 l 783 -78 l 783 -28 z "},"Ĺ":{"ha":722,"x_min":74,"x_max":686,"o":"m 74 44 l 189 44 l 189 738 l 74 738 l 74 782 l 369 782 l 369 738 l 254 738 l 254 44 l 632 44 l 632 272 l 686 272 l 686 0 l 74 0 l 74 44 m 271 1085 l 338 1085 l 242 904 l 206 904 l 271 1085 z "},"Ľ":{"ha":722,"x_min":74,"x_max":686,"o":"m 74 44 l 189 44 l 189 738 l 74 738 l 74 782 l 369 782 l 369 738 l 254 738 l 254 44 l 632 44 l 632 272 l 686 272 l 686 0 l 74 0 l 74 44 m 593 600 q 637 624 625 606 q 649 692 649 642 l 597 692 l 597 782 l 686 782 l 685 689 q 593 574 688 574 l 593 600 z "},"Ļ":{"ha":722,"x_min":74,"x_max":686,"o":"m 74 44 l 189 44 l 189 738 l 74 738 l 74 782 l 369 782 l 369 738 l 254 738 l 254 44 l 632 44 l 632 272 l 686 272 l 686 0 l 74 0 l 74 44 m 369 -256 q 416 -227 404 -251 q 428 -154 428 -203 l 378 -154 l 378 -71 l 465 -71 l 465 -161 q 369 -282 465 -283 l 369 -256 z "},"Ŀ":{"ha":722,"x_min":74,"x_max":686,"o":"m 74 44 l 189 44 l 189 738 l 74 738 l 74 782 l 369 782 l 369 738 l 254 738 l 254 44 l 632 44 l 632 272 l 686 272 l 686 0 l 74 0 l 74 44 m 578 450 q 542 464 556 450 q 528 500 528 478 q 542 535 528 521 q 578 549 556 549 q 615 535 600 549 q 629 500 629 521 q 615 464 629 478 q 578 450 600 450 z "},"Ḷ":{"ha":722,"x_min":74,"x_max":686,"o":"m 74 44 l 189 44 l 189 738 l 74 738 l 74 782 l 369 782 l 369 738 l 254 738 l 254 44 l 632 44 l 632 272 l 686 272 l 686 0 l 74 0 l 74 44 m 418 -164 q 382 -150 396 -164 q 368 -118 368 -136 q 381 -85 368 -99 q 418 -71 394 -71 q 455 -84 442 -71 q 468 -118 468 -97 q 454 -149 468 -135 q 418 -164 440 -164 z "},"ǈ":{"ha":1024,"x_min":74,"x_max":940,"o":"m 74 44 l 189 44 l 189 738 l 74 738 l 74 782 l 369 782 l 369 738 l 254 738 l 254 44 l 632 44 l 632 272 l 686 272 l 686 0 l 74 0 l 74 44 m 890 681 q 855 694 869 681 q 840 728 840 707 q 855 759 840 746 q 890 772 869 772 q 926 760 913 772 q 940 728 940 747 q 926 694 940 707 q 890 681 913 681 m 733 -136 l 783 -136 q 854 -112 835 -136 q 874 -26 874 -87 l 874 503 l 765 503 l 765 546 l 938 546 l 938 -17 q 903 -142 938 -100 q 782 -183 869 -183 l 733 -183 l 733 -136 z "},"Ḻ":{"ha":722,"x_min":74,"x_max":686,"o":"m 74 44 l 189 44 l 189 738 l 74 738 l 74 782 l 369 782 l 369 738 l 254 738 l 254 44 l 632 44 l 632 272 l 686 272 l 686 0 l 74 0 l 74 44 m 285 -65 l 551 -65 l 551 -104 l 285 -104 l 285 -65 z "},"Ł":{"ha":722,"x_min":74,"x_max":686,"o":"m 686 272 l 686 0 l 74 0 l 74 44 l 189 44 l 189 349 l 74 286 l 74 335 l 189 399 l 189 738 l 74 738 l 74 782 l 369 782 l 369 738 l 254 738 l 254 433 l 418 524 l 418 472 l 254 383 l 254 44 l 632 44 l 632 272 l 686 272 z "},"M":{"ha":1039,"x_min":43,"x_max":996,"o":"m 43 44 l 147 44 l 147 738 l 43 738 l 43 782 l 231 782 l 526 174 l 804 782 l 996 782 l 996 738 l 892 738 l 892 44 l 996 44 l 996 0 l 724 0 l 724 44 l 829 44 l 829 706 l 529 58 l 511 58 l 200 706 l 200 44 l 304 44 l 304 0 l 43 0 l 43 44 z "},"Ṁ":{"ha":1039,"x_min":43,"x_max":996,"o":"m 43 44 l 147 44 l 147 738 l 43 738 l 43 782 l 231 782 l 526 174 l 804 782 l 996 782 l 996 738 l 892 738 l 892 44 l 996 44 l 996 0 l 724 0 l 724 44 l 829 44 l 829 706 l 529 58 l 511 58 l 200 706 l 200 44 l 304 44 l 304 0 l 43 0 l 43 44 m 513 896 q 476 910 490 896 q 463 942 463 924 q 476 975 463 961 q 513 989 489 989 q 549 976 536 989 q 563 942 563 963 q 549 910 563 925 q 513 896 535 896 z "},"Ṃ":{"ha":1039,"x_min":43,"x_max":996,"o":"m 43 44 l 147 44 l 147 738 l 43 738 l 43 782 l 231 782 l 526 174 l 804 782 l 996 782 l 996 738 l 892 738 l 892 44 l 996 44 l 996 0 l 724 0 l 724 44 l 829 44 l 829 706 l 529 58 l 511 58 l 200 706 l 200 44 l 304 44 l 304 0 l 43 0 l 43 44 m 521 -164 q 485 -150 499 -164 q 471 -118 471 -136 q 484 -85 471 -99 q 521 -71 497 -71 q 558 -84 544 -71 q 571 -118 571 -97 q 557 -149 571 -135 q 521 -164 543 -164 z "},"N":{"ha":979,"x_min":78,"x_max":932,"o":"m 78 44 l 182 44 l 182 738 l 78 738 l 78 782 l 251 782 l 783 89 l 783 738 l 676 738 l 676 782 l 932 782 l 932 738 l 838 738 l 838 0 l 772 0 l 236 701 l 236 44 l 340 44 l 340 0 l 78 0 l 78 44 z "},"Ǌ":{"ha":1386,"x_min":78,"x_max":1347,"o":"m 78 44 l 182 44 l 182 738 l 78 738 l 78 782 l 251 782 l 783 89 l 783 738 l 676 738 l 676 782 l 932 782 l 932 738 l 838 738 l 838 0 l 772 0 l 236 701 l 236 44 l 340 44 l 340 0 l 78 0 l 78 44 m 1040 -28 l 1124 -28 q 1178 -1 1165 -28 q 1192 92 1192 26 l 1192 738 l 1096 738 l 1096 782 l 1347 782 l 1347 738 l 1257 738 l 1257 88 q 1227 -42 1257 -7 q 1125 -78 1197 -78 l 1040 -78 l 1040 -28 z "},"Ń":{"ha":979,"x_min":78,"x_max":932,"o":"m 78 44 l 182 44 l 182 738 l 78 738 l 78 782 l 251 782 l 783 89 l 783 738 l 676 738 l 676 782 l 932 782 l 932 738 l 838 738 l 838 0 l 772 0 l 236 701 l 236 44 l 340 44 l 340 0 l 78 0 l 78 44 m 539 1085 l 606 1085 l 510 904 l 474 904 l 539 1085 z "},"Ň":{"ha":979,"x_min":78,"x_max":932,"o":"m 78 44 l 182 44 l 182 738 l 78 738 l 78 782 l 251 782 l 783 89 l 783 738 l 676 738 l 676 782 l 932 782 l 932 738 l 838 738 l 838 0 l 772 0 l 236 701 l 236 44 l 340 44 l 340 0 l 78 0 l 78 44 m 347 1090 l 394 1090 l 489 922 l 583 1090 l 629 1090 l 514 882 l 465 882 l 347 1090 z "},"Ņ":{"ha":979,"x_min":78,"x_max":932,"o":"m 78 44 l 182 44 l 182 738 l 78 738 l 78 782 l 251 782 l 783 89 l 783 738 l 676 738 l 676 782 l 932 782 l 932 738 l 838 738 l 838 0 l 772 0 l 236 701 l 236 44 l 340 44 l 340 0 l 78 0 l 78 44 m 478 -256 q 524 -227 513 -251 q 536 -154 536 -203 l 486 -154 l 486 -71 l 574 -71 l 574 -161 q 478 -282 574 -283 l 478 -256 z "},"Ṅ":{"ha":979,"x_min":78,"x_max":932,"o":"m 78 44 l 182 44 l 182 738 l 78 738 l 78 782 l 251 782 l 783 89 l 783 738 l 676 738 l 676 782 l 932 782 l 932 738 l 838 738 l 838 0 l 772 0 l 236 701 l 236 44 l 340 44 l 340 0 l 78 0 l 78 44 m 489 896 q 453 910 467 896 q 439 942 439 924 q 452 975 439 961 q 489 989 465 989 q 526 976 513 989 q 539 942 539 963 q 525 910 539 925 q 489 896 511 896 z "},"Ṇ":{"ha":979,"x_min":78,"x_max":932,"o":"m 78 44 l 182 44 l 182 738 l 78 738 l 78 782 l 251 782 l 783 89 l 783 738 l 676 738 l 676 782 l 932 782 l 932 738 l 838 738 l 838 0 l 772 0 l 236 701 l 236 44 l 340 44 l 340 0 l 78 0 l 78 44 m 526 -164 q 490 -150 504 -164 q 476 -118 476 -136 q 490 -85 476 -99 q 526 -71 503 -71 q 563 -84 550 -71 q 576 -118 576 -97 q 563 -149 576 -135 q 526 -164 549 -164 z "},"Ǹ":{"ha":979,"x_min":78,"x_max":932,"o":"m 78 44 l 182 44 l 182 738 l 78 738 l 78 782 l 251 782 l 783 89 l 783 738 l 676 738 l 676 782 l 932 782 l 932 738 l 838 738 l 838 0 l 772 0 l 236 701 l 236 44 l 340 44 l 340 0 l 78 0 l 78 44 m 372 1085 l 439 1085 l 504 904 l 468 904 l 372 1085 z "},"Ŋ":{"ha":974,"x_min":74,"x_max":926,"o":"m 567 -201 l 578 -201 q 730 -150 681 -201 q 779 -8 779 -99 l 232 701 l 232 44 l 336 44 l 336 0 l 74 0 l 74 44 l 178 44 l 178 738 l 74 738 l 74 782 l 246 782 l 779 89 l 779 738 l 672 738 l 672 782 l 926 782 l 926 738 l 832 738 l 832 -1 q 765 -187 832 -125 q 581 -249 699 -249 l 567 -249 l 567 -201 z "},"ǋ":{"ha":1281,"x_min":78,"x_max":1197,"o":"m 78 44 l 182 44 l 182 738 l 78 738 l 78 782 l 251 782 l 783 89 l 783 738 l 676 738 l 676 782 l 932 782 l 932 738 l 838 738 l 838 0 l 772 0 l 236 701 l 236 44 l 340 44 l 340 0 l 78 0 l 78 44 m 1147 681 q 1112 694 1126 681 q 1097 728 1097 707 q 1112 759 1097 746 q 1147 772 1126 772 q 1183 760 1169 772 q 1197 728 1197 747 q 1183 694 1197 707 q 1147 681 1169 681 m 990 -136 l 1040 -136 q 1111 -112 1092 -136 q 1131 -26 1131 -87 l 1131 503 l 1022 503 l 1022 546 l 1194 546 l 1194 -17 q 1160 -142 1194 -100 q 1039 -183 1126 -183 l 990 -183 l 990 -136 z "},"Ṉ":{"ha":979,"x_min":78,"x_max":932,"o":"m 78 44 l 182 44 l 182 738 l 78 738 l 78 782 l 251 782 l 783 89 l 783 738 l 676 738 l 676 782 l 932 782 l 932 738 l 838 738 l 838 0 l 772 0 l 236 701 l 236 44 l 340 44 l 340 0 l 78 0 l 78 44 m 393 -65 l 660 -65 l 660 -104 l 393 -104 l 393 -65 z "},"Ñ":{"ha":979,"x_min":78,"x_max":932,"o":"m 78 44 l 182 44 l 182 738 l 78 738 l 78 782 l 251 782 l 783 89 l 783 738 l 676 738 l 676 782 l 932 782 l 932 738 l 838 738 l 838 0 l 772 0 l 236 701 l 236 44 l 340 44 l 340 0 l 78 0 l 78 44 m 567 901 q 528 908 549 901 q 482 929 508 915 q 440 949 457 942 q 407 956 422 956 q 368 904 369 956 l 336 904 q 358 975 338 949 q 413 1001 378 1001 q 449 994 431 1001 q 494 974 467 988 q 537 954 519 961 q 569 947 554 947 q 611 999 607 947 l 643 999 q 623 926 640 951 q 567 901 606 901 z "},"O":{"ha":986,"x_min":79,"x_max":907,"o":"m 492 -15 q 268 42 361 -15 q 127 191 175 99 q 79 388 79 283 q 128 585 79 492 q 270 738 176 679 q 493 796 364 796 q 716 738 622 796 q 858 585 810 679 q 907 388 907 492 q 859 191 907 283 q 717 42 811 99 q 492 -15 622 -15 m 493 35 q 681 85 603 35 q 799 215 760 135 q 839 388 839 296 q 799 562 839 479 q 681 696 760 644 q 493 747 603 747 q 304 696 382 747 q 187 563 226 644 q 147 388 147 481 q 186 213 147 293 q 303 83 225 132 q 493 35 381 35 z "},"Ó":{"ha":986,"x_min":79,"x_max":907,"o":"m 492 -15 q 268 42 361 -15 q 127 191 175 99 q 79 388 79 283 q 128 585 79 492 q 270 738 176 679 q 493 796 364 796 q 716 738 622 796 q 858 585 810 679 q 907 388 907 492 q 859 191 907 283 q 717 42 811 99 q 492 -15 622 -15 m 493 35 q 681 85 603 35 q 799 215 760 135 q 839 388 839 296 q 799 562 839 479 q 681 696 760 644 q 493 747 603 747 q 304 696 382 747 q 187 563 226 644 q 147 388 147 481 q 186 213 147 293 q 303 83 225 132 q 493 35 381 35 m 542 1085 l 608 1085 l 513 904 l 476 904 l 542 1085 z "},"Ŏ":{"ha":986,"x_min":79,"x_max":907,"o":"m 492 -15 q 268 42 361 -15 q 127 191 175 99 q 79 388 79 283 q 128 585 79 492 q 270 738 176 679 q 493 796 364 796 q 716 738 622 796 q 858 585 810 679 q 907 388 907 492 q 859 191 907 283 q 717 42 811 99 q 492 -15 622 -15 m 493 35 q 681 85 603 35 q 799 215 760 135 q 839 388 839 296 q 799 562 839 479 q 681 696 760 644 q 493 747 603 747 q 304 696 382 747 q 187 563 226 644 q 147 388 147 481 q 186 213 147 293 q 303 83 225 132 q 493 35 381 35 m 492 892 q 413 920 443 892 q 375 1000 382 949 l 414 1000 q 492 932 431 932 q 568 1000 551 932 l 608 1000 q 570 921 600 949 q 492 892 540 893 z "},"Ǒ":{"ha":986,"x_min":79,"x_max":907,"o":"m 492 -15 q 268 42 361 -15 q 127 191 175 99 q 79 388 79 283 q 128 585 79 492 q 270 738 176 679 q 493 796 364 796 q 716 738 622 796 q 858 585 810 679 q 907 388 907 492 q 859 191 907 283 q 717 42 811 99 q 492 -15 622 -15 m 493 35 q 681 85 603 35 q 799 215 760 135 q 839 388 839 296 q 799 562 839 479 q 681 696 760 644 q 493 747 603 747 q 304 696 382 747 q 187 563 226 644 q 147 388 147 481 q 186 213 147 293 q 303 83 225 132 q 493 35 381 35 m 350 1090 l 397 1090 l 492 922 l 586 1090 l 632 1090 l 517 882 l 468 882 l 350 1090 z "},"Ô":{"ha":986,"x_min":79,"x_max":907,"o":"m 492 -15 q 268 42 361 -15 q 127 191 175 99 q 79 388 79 283 q 128 585 79 492 q 270 738 176 679 q 493 796 364 796 q 716 738 622 796 q 858 585 810 679 q 907 388 907 492 q 859 191 907 283 q 717 42 811 99 q 492 -15 622 -15 m 493 35 q 681 85 603 35 q 799 215 760 135 q 839 388 839 296 q 799 562 839 479 q 681 696 760 644 q 493 747 603 747 q 304 696 382 747 q 187 563 226 644 q 147 388 147 481 q 186 213 147 293 q 303 83 225 132 q 493 35 381 35 m 465 1076 l 519 1076 l 636 864 l 589 864 l 492 1042 l 394 864 l 347 864 l 465 1076 z "},"Ố":{"ha":986,"x_min":79,"x_max":907,"o":"m 492 -15 q 268 42 361 -15 q 127 191 175 99 q 79 388 79 283 q 128 585 79 492 q 270 738 176 679 q 493 796 364 796 q 716 738 622 796 q 858 585 810 679 q 907 388 907 492 q 859 191 907 283 q 717 42 811 99 q 492 -15 622 -15 m 493 35 q 681 85 603 35 q 799 215 760 135 q 839 388 839 296 q 799 562 839 479 q 681 696 760 644 q 493 747 603 747 q 304 696 382 747 q 187 563 226 644 q 147 388 147 481 q 186 213 147 293 q 303 83 225 132 q 493 35 381 35 m 649 1143 l 708 1143 l 628 986 l 592 986 l 649 1143 m 465 1035 l 519 1035 l 636 864 l 589 864 l 492 1000 l 394 864 l 347 864 l 465 1035 z "},"Ộ":{"ha":986,"x_min":79,"x_max":907,"o":"m 492 -15 q 268 42 361 -15 q 127 191 175 99 q 79 388 79 283 q 128 585 79 492 q 270 738 176 679 q 493 796 364 796 q 716 738 622 796 q 858 585 810 679 q 907 388 907 492 q 859 191 907 283 q 717 42 811 99 q 492 -15 622 -15 m 493 35 q 681 85 603 35 q 799 215 760 135 q 839 388 839 296 q 799 562 839 479 q 681 696 760 644 q 493 747 603 747 q 304 696 382 747 q 187 563 226 644 q 147 388 147 481 q 186 213 147 293 q 303 83 225 132 q 493 35 381 35 m 493 -164 q 457 -150 471 -164 q 443 -118 443 -136 q 456 -85 443 -99 q 493 -71 469 -71 q 530 -84 517 -71 q 543 -118 543 -97 q 529 -149 543 -135 q 493 -164 515 -164 m 465 1076 l 519 1076 l 636 864 l 589 864 l 492 1042 l 394 864 l 347 864 l 465 1076 z "},"Ồ":{"ha":986,"x_min":79,"x_max":907,"o":"m 492 -15 q 268 42 361 -15 q 127 191 175 99 q 79 388 79 283 q 128 585 79 492 q 270 738 176 679 q 493 796 364 796 q 716 738 622 796 q 858 585 810 679 q 907 388 907 492 q 859 191 907 283 q 717 42 811 99 q 492 -15 622 -15 m 493 35 q 681 85 603 35 q 799 215 760 135 q 839 388 839 296 q 799 562 839 479 q 681 696 760 644 q 493 747 603 747 q 304 696 382 747 q 187 563 226 644 q 147 388 147 481 q 186 213 147 293 q 303 83 225 132 q 493 35 381 35 m 613 986 l 532 1143 l 592 1143 l 649 986 l 613 986 m 465 1035 l 519 1035 l 636 864 l 589 864 l 492 1000 l 394 864 l 347 864 l 465 1035 z "},"Ổ":{"ha":986,"x_min":79,"x_max":907,"o":"m 492 -15 q 268 42 361 -15 q 127 191 175 99 q 79 388 79 283 q 128 585 79 492 q 270 738 176 679 q 493 796 364 796 q 716 738 622 796 q 858 585 810 679 q 907 388 907 492 q 859 191 907 283 q 717 42 811 99 q 492 -15 622 -15 m 493 35 q 681 85 603 35 q 799 215 760 135 q 839 388 839 296 q 799 562 839 479 q 681 696 760 644 q 493 747 603 747 q 304 696 382 747 q 187 563 226 644 q 147 388 147 481 q 186 213 147 293 q 303 83 225 132 q 493 35 381 35 m 585 1018 q 628 1067 628 1033 q 615 1096 628 1085 q 581 1107 603 1107 q 521 1089 553 1107 l 504 1128 q 585 1149 546 1149 q 651 1126 626 1149 q 675 1069 675 1104 q 600 978 675 1004 l 585 1018 m 465 1035 l 519 1035 l 636 864 l 589 864 l 492 1000 l 394 864 l 347 864 l 465 1035 z "},"Ỗ":{"ha":986,"x_min":79,"x_max":907,"o":"m 492 -15 q 268 42 361 -15 q 127 191 175 99 q 79 388 79 283 q 128 585 79 492 q 270 738 176 679 q 493 796 364 796 q 716 738 622 796 q 858 585 810 679 q 907 388 907 492 q 859 191 907 283 q 717 42 811 99 q 492 -15 622 -15 m 493 35 q 681 85 603 35 q 799 215 760 135 q 839 388 839 296 q 799 562 839 479 q 681 696 760 644 q 493 747 603 747 q 304 696 382 747 q 187 563 226 644 q 147 388 147 481 q 186 213 147 293 q 303 83 225 132 q 493 35 381 35 m 561 1061 q 527 1067 543 1061 q 483 1085 511 1072 q 415 1107 436 1107 q 379 1064 383 1107 l 347 1064 q 369 1128 349 1104 q 424 1153 390 1153 q 457 1147 440 1153 q 499 1129 474 1140 q 533 1114 515 1121 q 564 1107 551 1107 q 603 1150 599 1107 l 635 1150 q 561 1061 632 1061 m 465 1035 l 519 1035 l 636 864 l 589 864 l 492 1000 l 394 864 l 347 864 l 465 1035 z "},"Ȍ":{"ha":986,"x_min":79,"x_max":907,"o":"m 492 -15 q 268 42 361 -15 q 127 191 175 99 q 79 388 79 283 q 128 585 79 492 q 270 738 176 679 q 493 796 364 796 q 716 738 622 796 q 858 585 810 679 q 907 388 907 492 q 859 191 907 283 q 717 42 811 99 q 492 -15 622 -15 m 493 35 q 681 85 603 35 q 799 215 760 135 q 839 388 839 296 q 799 562 839 479 q 681 696 760 644 q 493 747 603 747 q 304 696 382 747 q 187 563 226 644 q 147 388 147 481 q 186 213 147 293 q 303 83 225 132 q 493 35 381 35 m 279 1108 l 346 1108 l 421 904 l 385 904 l 279 1108 m 431 1108 l 496 1108 l 571 904 l 535 904 l 431 1108 z "},"Ö":{"ha":986,"x_min":79,"x_max":907,"o":"m 492 -15 q 268 42 361 -15 q 127 191 175 99 q 79 388 79 283 q 128 585 79 492 q 270 738 176 679 q 493 796 364 796 q 716 738 622 796 q 858 585 810 679 q 907 388 907 492 q 859 191 907 283 q 717 42 811 99 q 492 -15 622 -15 m 493 35 q 681 85 603 35 q 799 215 760 135 q 839 388 839 296 q 799 562 839 479 q 681 696 760 644 q 493 747 603 747 q 304 696 382 747 q 187 563 226 644 q 147 388 147 481 q 186 213 147 293 q 303 83 225 132 q 493 35 381 35 m 374 896 q 344 907 356 896 q 333 936 333 918 q 344 965 333 954 q 374 975 356 975 q 404 965 393 975 q 415 936 415 954 q 404 907 415 918 q 374 896 393 896 m 610 896 q 579 906 590 896 q 568 935 568 917 q 579 964 568 953 q 610 975 590 975 q 639 964 628 975 q 650 935 650 953 q 639 906 650 917 q 610 896 628 896 z "},"Ȫ":{"ha":986,"x_min":79,"x_max":907,"o":"m 492 -15 q 268 42 361 -15 q 127 191 175 99 q 79 388 79 283 q 128 585 79 492 q 270 738 176 679 q 493 796 364 796 q 716 738 622 796 q 858 585 810 679 q 907 388 907 492 q 859 191 907 283 q 717 42 811 99 q 492 -15 622 -15 m 493 35 q 681 85 603 35 q 799 215 760 135 q 839 388 839 296 q 799 562 839 479 q 681 696 760 644 q 493 747 603 747 q 304 696 382 747 q 187 563 226 644 q 147 388 147 481 q 186 213 147 293 q 303 83 225 132 q 493 35 381 35 m 374 896 q 344 907 356 896 q 333 936 333 918 q 344 965 333 954 q 374 975 356 975 q 404 965 393 975 q 415 936 415 954 q 404 907 415 918 q 374 896 393 896 m 610 896 q 579 906 590 896 q 568 935 568 917 q 579 964 568 953 q 610 975 590 975 q 639 964 628 975 q 650 935 650 953 q 639 906 650 917 q 610 896 628 896 m 358 1144 l 625 1144 l 625 1106 l 358 1106 l 358 1144 z "},"Ȯ":{"ha":986,"x_min":79,"x_max":907,"o":"m 492 -15 q 268 42 361 -15 q 127 191 175 99 q 79 388 79 283 q 128 585 79 492 q 270 738 176 679 q 493 796 364 796 q 716 738 622 796 q 858 585 810 679 q 907 388 907 492 q 859 191 907 283 q 717 42 811 99 q 492 -15 622 -15 m 493 35 q 681 85 603 35 q 799 215 760 135 q 839 388 839 296 q 799 562 839 479 q 681 696 760 644 q 493 747 603 747 q 304 696 382 747 q 187 563 226 644 q 147 388 147 481 q 186 213 147 293 q 303 83 225 132 q 493 35 381 35 m 492 896 q 456 910 469 896 q 442 942 442 924 q 455 975 442 961 q 492 989 468 989 q 528 976 515 989 q 542 942 542 963 q 528 910 542 925 q 492 896 514 896 z "},"Ȱ":{"ha":986,"x_min":79,"x_max":907,"o":"m 492 -15 q 268 42 361 -15 q 127 191 175 99 q 79 388 79 283 q 128 585 79 492 q 270 738 176 679 q 493 796 364 796 q 716 738 622 796 q 858 585 810 679 q 907 388 907 492 q 859 191 907 283 q 717 42 811 99 q 492 -15 622 -15 m 493 35 q 681 85 603 35 q 799 215 760 135 q 839 388 839 296 q 799 562 839 479 q 681 696 760 644 q 493 747 603 747 q 304 696 382 747 q 187 563 226 644 q 147 388 147 481 q 186 213 147 293 q 303 83 225 132 q 493 35 381 35 m 492 896 q 456 910 469 896 q 442 942 442 924 q 455 975 442 961 q 492 989 468 989 q 528 976 515 989 q 542 942 542 963 q 528 910 542 925 q 492 896 514 896 m 358 1144 l 625 1144 l 625 1106 l 358 1106 l 358 1144 z "},"Ọ":{"ha":986,"x_min":79,"x_max":907,"o":"m 492 -15 q 268 42 361 -15 q 127 191 175 99 q 79 388 79 283 q 128 585 79 492 q 270 738 176 679 q 493 796 364 796 q 716 738 622 796 q 858 585 810 679 q 907 388 907 492 q 859 191 907 283 q 717 42 811 99 q 492 -15 622 -15 m 493 35 q 681 85 603 35 q 799 215 760 135 q 839 388 839 296 q 799 562 839 479 q 681 696 760 644 q 493 747 603 747 q 304 696 382 747 q 187 563 226 644 q 147 388 147 481 q 186 213 147 293 q 303 83 225 132 q 493 35 381 35 m 493 -164 q 457 -150 471 -164 q 443 -118 443 -136 q 456 -85 443 -99 q 493 -71 469 -71 q 530 -84 517 -71 q 543 -118 543 -97 q 529 -149 543 -135 q 493 -164 515 -164 z "},"Ò":{"ha":986,"x_min":79,"x_max":907,"o":"m 492 -15 q 268 42 361 -15 q 127 191 175 99 q 79 388 79 283 q 128 585 79 492 q 270 738 176 679 q 493 796 364 796 q 716 738 622 796 q 858 585 810 679 q 907 388 907 492 q 859 191 907 283 q 717 42 811 99 q 492 -15 622 -15 m 493 35 q 681 85 603 35 q 799 215 760 135 q 839 388 839 296 q 799 562 839 479 q 681 696 760 644 q 493 747 603 747 q 304 696 382 747 q 187 563 226 644 q 147 388 147 481 q 186 213 147 293 q 303 83 225 132 q 493 35 381 35 m 375 1085 l 442 1085 l 507 904 l 471 904 l 375 1085 z "},"Ỏ":{"ha":986,"x_min":79,"x_max":907,"o":"m 492 -15 q 268 42 361 -15 q 127 191 175 99 q 79 388 79 283 q 128 585 79 492 q 270 738 176 679 q 493 796 364 796 q 716 738 622 796 q 858 585 810 679 q 907 388 907 492 q 859 191 907 283 q 717 42 811 99 q 492 -15 622 -15 m 493 35 q 681 85 603 35 q 799 215 760 135 q 839 388 839 296 q 799 562 839 479 q 681 696 760 644 q 493 747 603 747 q 304 696 382 747 q 187 563 226 644 q 147 388 147 481 q 186 213 147 293 q 303 83 225 132 q 493 35 381 35 m 476 883 q 519 932 519 899 q 507 961 519 950 q 472 972 494 972 q 413 954 444 972 l 396 993 q 476 1014 438 1014 q 542 992 518 1014 q 567 935 567 969 q 492 843 567 869 l 476 883 z "},"Ơ":{"ha":986,"x_min":79,"x_max":907,"o":"m 689 753 q 850 601 793 701 q 907 388 907 501 q 859 191 907 283 q 717 42 811 99 q 492 -15 622 -15 q 268 42 361 -15 q 127 191 175 99 q 79 388 79 283 q 128 587 79 493 q 270 738 176 681 q 493 796 364 796 q 574 790 526 796 q 601 788 583 789 q 633 786 619 786 q 701 808 675 786 q 732 876 728 831 l 796 876 q 762 793 790 825 q 689 753 733 761 m 493 35 q 681 85 603 35 q 799 215 760 135 q 839 388 839 296 q 799 563 839 481 q 681 697 760 646 q 493 749 603 749 q 304 697 382 749 q 187 563 226 646 q 147 388 147 481 q 186 213 147 293 q 303 83 225 132 q 493 35 381 35 z "},"Ớ":{"ha":986,"x_min":79,"x_max":907,"o":"m 689 753 q 850 601 793 701 q 907 388 907 501 q 859 191 907 283 q 717 42 811 99 q 492 -15 622 -15 q 268 42 361 -15 q 127 191 175 99 q 79 388 79 283 q 128 587 79 493 q 270 738 176 681 q 493 796 364 796 q 574 790 526 796 q 601 788 583 789 q 633 786 619 786 q 701 808 675 786 q 732 876 728 831 l 796 876 q 762 793 790 825 q 689 753 733 761 m 493 35 q 681 85 603 35 q 799 215 760 135 q 839 388 839 296 q 799 563 839 481 q 681 697 760 646 q 493 749 603 749 q 304 697 382 749 q 187 563 226 646 q 147 388 147 481 q 186 213 147 293 q 303 83 225 132 q 493 35 381 35 m 542 1085 l 608 1085 l 513 904 l 476 904 l 542 1085 z "},"Ợ":{"ha":986,"x_min":79,"x_max":907,"o":"m 689 753 q 850 601 793 701 q 907 388 907 501 q 859 191 907 283 q 717 42 811 99 q 492 -15 622 -15 q 268 42 361 -15 q 127 191 175 99 q 79 388 79 283 q 128 587 79 493 q 270 738 176 681 q 493 796 364 796 q 574 790 526 796 q 601 788 583 789 q 633 786 619 786 q 701 808 675 786 q 732 876 728 831 l 796 876 q 762 793 790 825 q 689 753 733 761 m 493 35 q 681 85 603 35 q 799 215 760 135 q 839 388 839 296 q 799 563 839 481 q 681 697 760 646 q 493 749 603 749 q 304 697 382 749 q 187 563 226 646 q 147 388 147 481 q 186 213 147 293 q 303 83 225 132 q 493 35 381 35 m 493 -164 q 457 -150 471 -164 q 443 -118 443 -136 q 456 -85 443 -99 q 493 -71 469 -71 q 530 -84 517 -71 q 543 -118 543 -97 q 529 -149 543 -135 q 493 -164 515 -164 z "},"Ờ":{"ha":986,"x_min":79,"x_max":907,"o":"m 689 753 q 850 601 793 701 q 907 388 907 501 q 859 191 907 283 q 717 42 811 99 q 492 -15 622 -15 q 268 42 361 -15 q 127 191 175 99 q 79 388 79 283 q 128 587 79 493 q 270 738 176 681 q 493 796 364 796 q 574 790 526 796 q 601 788 583 789 q 633 786 619 786 q 701 808 675 786 q 732 876 728 831 l 796 876 q 762 793 790 825 q 689 753 733 761 m 493 35 q 681 85 603 35 q 799 215 760 135 q 839 388 839 296 q 799 563 839 481 q 681 697 760 646 q 493 749 603 749 q 304 697 382 749 q 187 563 226 646 q 147 388 147 481 q 186 213 147 293 q 303 83 225 132 q 493 35 381 35 m 375 1085 l 442 1085 l 507 904 l 471 904 l 375 1085 z "},"Ở":{"ha":986,"x_min":79,"x_max":907,"o":"m 689 753 q 850 601 793 701 q 907 388 907 501 q 859 191 907 283 q 717 42 811 99 q 492 -15 622 -15 q 268 42 361 -15 q 127 191 175 99 q 79 388 79 283 q 128 587 79 493 q 270 738 176 681 q 493 796 364 796 q 574 790 526 796 q 601 788 583 789 q 633 786 619 786 q 701 808 675 786 q 732 876 728 831 l 796 876 q 762 793 790 825 q 689 753 733 761 m 493 35 q 681 85 603 35 q 799 215 760 135 q 839 388 839 296 q 799 563 839 481 q 681 697 760 646 q 493 749 603 749 q 304 697 382 749 q 187 563 226 646 q 147 388 147 481 q 186 213 147 293 q 303 83 225 132 q 493 35 381 35 m 476 883 q 519 932 519 899 q 507 961 519 950 q 472 972 494 972 q 413 954 444 972 l 396 993 q 476 1014 438 1014 q 542 992 518 1014 q 567 935 567 969 q 492 843 567 869 l 476 883 z "},"Ỡ":{"ha":986,"x_min":79,"x_max":907,"o":"m 689 753 q 850 601 793 701 q 907 388 907 501 q 859 191 907 283 q 717 42 811 99 q 492 -15 622 -15 q 268 42 361 -15 q 127 191 175 99 q 79 388 79 283 q 128 587 79 493 q 270 738 176 681 q 493 796 364 796 q 574 790 526 796 q 601 788 583 789 q 633 786 619 786 q 701 808 675 786 q 732 876 728 831 l 796 876 q 762 793 790 825 q 689 753 733 761 m 493 35 q 681 85 603 35 q 799 215 760 135 q 839 388 839 296 q 799 563 839 481 q 681 697 760 646 q 493 749 603 749 q 304 697 382 749 q 187 563 226 646 q 147 388 147 481 q 186 213 147 293 q 303 83 225 132 q 493 35 381 35 m 569 901 q 531 908 551 901 q 485 929 511 915 q 442 949 460 942 q 410 956 425 956 q 371 904 372 956 l 339 904 q 360 975 340 949 q 415 1001 381 1001 q 451 994 433 1001 q 497 974 469 988 q 540 954 522 961 q 572 947 557 947 q 614 999 610 947 l 646 999 q 626 926 643 951 q 569 901 608 901 z "},"Ő":{"ha":986,"x_min":79,"x_max":907,"o":"m 492 -15 q 268 42 361 -15 q 127 191 175 99 q 79 388 79 283 q 128 585 79 492 q 270 738 176 679 q 493 796 364 796 q 716 738 622 796 q 858 585 810 679 q 907 388 907 492 q 859 191 907 283 q 717 42 811 99 q 492 -15 622 -15 m 493 35 q 681 85 603 35 q 799 215 760 135 q 839 388 839 296 q 799 562 839 479 q 681 696 760 644 q 493 747 603 747 q 304 696 382 747 q 187 563 226 644 q 147 388 147 481 q 186 213 147 293 q 303 83 225 132 q 493 35 381 35 m 483 1108 l 550 1108 l 446 904 l 407 904 l 483 1108 m 632 1108 l 699 1108 l 596 904 l 557 904 l 632 1108 z "},"Ȏ":{"ha":986,"x_min":79,"x_max":907,"o":"m 492 -15 q 268 42 361 -15 q 127 191 175 99 q 79 388 79 283 q 128 585 79 492 q 270 738 176 679 q 493 796 364 796 q 716 738 622 796 q 858 585 810 679 q 907 388 907 492 q 859 191 907 283 q 717 42 811 99 q 492 -15 622 -15 m 493 35 q 681 85 603 35 q 799 215 760 135 q 839 388 839 296 q 799 562 839 479 q 681 696 760 644 q 493 747 603 747 q 304 696 382 747 q 187 563 226 644 q 147 388 147 481 q 186 213 147 293 q 303 83 225 132 q 493 35 381 35 m 371 882 q 412 965 381 936 q 492 994 443 994 q 573 965 542 994 q 611 882 604 935 l 567 882 q 492 947 550 947 q 417 882 432 947 l 371 882 z "},"Ō":{"ha":986,"x_min":79,"x_max":907,"o":"m 492 -15 q 268 42 361 -15 q 127 191 175 99 q 79 388 79 283 q 128 585 79 492 q 270 738 176 679 q 493 796 364 796 q 716 738 622 796 q 858 585 810 679 q 907 388 907 492 q 859 191 907 283 q 717 42 811 99 q 492 -15 622 -15 m 493 35 q 681 85 603 35 q 799 215 760 135 q 839 388 839 296 q 799 562 839 479 q 681 696 760 644 q 493 747 603 747 q 304 696 382 747 q 187 563 226 644 q 147 388 147 481 q 186 213 147 293 q 303 83 225 132 q 493 35 381 35 m 358 942 l 625 942 l 625 903 l 358 903 l 358 942 z "},"Ṓ":{"ha":986,"x_min":79,"x_max":907,"o":"m 492 -15 q 268 42 361 -15 q 127 191 175 99 q 79 388 79 283 q 128 585 79 492 q 270 738 176 679 q 493 796 364 796 q 716 738 622 796 q 858 585 810 679 q 907 388 907 492 q 859 191 907 283 q 717 42 811 99 q 492 -15 622 -15 m 493 35 q 681 85 603 35 q 799 215 760 135 q 839 388 839 296 q 799 562 839 479 q 681 696 760 644 q 493 747 603 747 q 304 696 382 747 q 187 563 226 644 q 147 388 147 481 q 186 213 147 293 q 303 83 225 132 q 493 35 381 35 m 358 942 l 625 942 l 625 903 l 358 903 l 358 942 m 542 1229 l 608 1229 l 513 1049 l 476 1049 l 542 1229 z "},"Ṑ":{"ha":986,"x_min":79,"x_max":907,"o":"m 492 -15 q 268 42 361 -15 q 127 191 175 99 q 79 388 79 283 q 128 585 79 492 q 270 738 176 679 q 493 796 364 796 q 716 738 622 796 q 858 585 810 679 q 907 388 907 492 q 859 191 907 283 q 717 42 811 99 q 492 -15 622 -15 m 493 35 q 681 85 603 35 q 799 215 760 135 q 839 388 839 296 q 799 562 839 479 q 681 696 760 644 q 493 747 603 747 q 304 696 382 747 q 187 563 226 644 q 147 388 147 481 q 186 213 147 293 q 303 83 225 132 q 493 35 381 35 m 358 942 l 625 942 l 625 903 l 358 903 l 358 942 m 375 1229 l 442 1229 l 507 1049 l 471 1049 l 375 1229 z "},"Ǫ":{"ha":986,"x_min":79,"x_max":907,"o":"m 907 388 q 862 196 907 286 q 728 48 817 106 q 515 -15 639 -10 q 463 -117 463 -71 q 480 -162 463 -147 q 526 -178 497 -178 q 590 -157 560 -178 l 590 -193 q 511 -219 551 -219 q 442 -195 469 -219 q 414 -131 414 -171 q 472 -15 414 -74 q 258 47 347 -11 q 124 195 169 104 q 79 388 79 286 q 128 585 79 492 q 270 738 176 679 q 493 796 364 796 q 716 738 622 796 q 858 585 810 679 q 907 388 907 492 m 147 388 q 186 213 147 293 q 303 83 225 132 q 493 35 381 35 q 681 85 603 35 q 799 215 760 135 q 839 388 839 296 q 799 562 839 479 q 681 696 760 644 q 493 747 603 747 q 304 696 382 747 q 187 563 226 644 q 147 388 147 481 z "},"Ø":{"ha":907,"x_min":39,"x_max":867,"o":"m 724 699 q 830 558 793 642 q 867 383 867 474 q 819 187 867 279 q 676 38 771 94 q 451 -19 582 -19 q 217 44 315 -19 l 144 -50 l 111 -26 l 185 68 q 76 208 114 125 q 39 383 39 292 q 88 581 39 488 q 230 733 136 675 q 453 792 324 792 q 693 722 590 792 l 772 825 l 804 803 l 724 699 m 107 383 q 135 232 107 303 q 218 113 163 161 l 660 679 q 453 743 574 743 q 264 692 342 743 q 147 558 186 640 q 107 383 107 476 m 453 31 q 641 81 563 31 q 759 211 719 131 q 799 383 799 292 q 771 532 799 461 q 689 654 743 603 l 250 88 q 453 31 333 31 z "},"Ǿ":{"ha":907,"x_min":39,"x_max":867,"o":"m 724 699 q 830 558 793 642 q 867 383 867 474 q 819 187 867 279 q 676 38 771 94 q 451 -19 582 -19 q 217 44 315 -19 l 144 -50 l 111 -26 l 185 68 q 76 208 114 125 q 39 383 39 292 q 88 581 39 488 q 230 733 136 675 q 453 792 324 792 q 693 722 590 792 l 772 825 l 804 803 l 724 699 m 107 383 q 135 232 107 303 q 218 113 163 161 l 660 679 q 453 743 574 743 q 264 692 342 743 q 147 558 186 640 q 107 383 107 476 m 453 31 q 641 81 563 31 q 759 211 719 131 q 799 383 799 292 q 771 532 799 461 q 689 654 743 603 l 250 88 q 453 31 333 31 m 504 1085 l 571 1085 l 475 904 l 439 904 l 504 1085 z "},"Õ":{"ha":986,"x_min":79,"x_max":907,"o":"m 492 -15 q 268 42 361 -15 q 127 191 175 99 q 79 388 79 283 q 128 585 79 492 q 270 738 176 679 q 493 796 364 796 q 716 738 622 796 q 858 585 810 679 q 907 388 907 492 q 859 191 907 283 q 717 42 811 99 q 492 -15 622 -15 m 493 35 q 681 85 603 35 q 799 215 760 135 q 839 388 839 296 q 799 562 839 479 q 681 696 760 644 q 493 747 603 747 q 304 696 382 747 q 187 563 226 644 q 147 388 147 481 q 186 213 147 293 q 303 83 225 132 q 493 35 381 35 m 569 901 q 531 908 551 901 q 485 929 511 915 q 442 949 460 942 q 410 956 425 956 q 371 904 372 956 l 339 904 q 360 975 340 949 q 415 1001 381 1001 q 451 994 433 1001 q 497 974 469 988 q 540 954 522 961 q 572 947 557 947 q 614 999 610 947 l 646 999 q 626 926 643 951 q 569 901 608 901 z "},"Ṍ":{"ha":986,"x_min":79,"x_max":907,"o":"m 492 -15 q 268 42 361 -15 q 127 191 175 99 q 79 388 79 283 q 128 585 79 492 q 270 738 176 679 q 493 796 364 796 q 716 738 622 796 q 858 585 810 679 q 907 388 907 492 q 859 191 907 283 q 717 42 811 99 q 492 -15 622 -15 m 493 35 q 681 85 603 35 q 799 215 760 135 q 839 388 839 296 q 799 562 839 479 q 681 696 760 644 q 493 747 603 747 q 304 696 382 747 q 187 563 226 644 q 147 388 147 481 q 186 213 147 293 q 303 83 225 132 q 493 35 381 35 m 569 901 q 531 908 551 901 q 485 929 511 915 q 442 949 460 942 q 410 956 425 956 q 371 904 372 956 l 339 904 q 360 975 340 949 q 415 1001 381 1001 q 451 994 433 1001 q 497 974 469 988 q 540 954 522 961 q 572 947 557 947 q 614 999 610 947 l 646 999 q 626 926 643 951 q 569 901 608 901 m 542 1282 l 608 1282 l 513 1101 l 476 1101 l 542 1282 z "},"Ṏ":{"ha":986,"x_min":79,"x_max":907,"o":"m 492 -15 q 268 42 361 -15 q 127 191 175 99 q 79 388 79 283 q 128 585 79 492 q 270 738 176 679 q 493 796 364 796 q 716 738 622 796 q 858 585 810 679 q 907 388 907 492 q 859 191 907 283 q 717 42 811 99 q 492 -15 622 -15 m 493 35 q 681 85 603 35 q 799 215 760 135 q 839 388 839 296 q 799 562 839 479 q 681 696 760 644 q 493 747 603 747 q 304 696 382 747 q 187 563 226 644 q 147 388 147 481 q 186 213 147 293 q 303 83 225 132 q 493 35 381 35 m 569 901 q 531 908 551 901 q 485 929 511 915 q 442 949 460 942 q 410 956 425 956 q 371 904 372 956 l 339 904 q 360 975 340 949 q 415 1001 381 1001 q 451 994 433 1001 q 497 974 469 988 q 540 954 522 961 q 572 947 557 947 q 614 999 610 947 l 646 999 q 626 926 643 951 q 569 901 608 901 m 374 1093 q 344 1104 356 1093 q 333 1133 333 1115 q 344 1162 333 1151 q 374 1172 356 1172 q 404 1162 393 1172 q 415 1133 415 1151 q 404 1104 415 1115 q 374 1093 393 1093 m 610 1093 q 579 1103 590 1093 q 568 1132 568 1114 q 579 1161 568 1150 q 610 1172 590 1172 q 639 1161 628 1172 q 650 1132 650 1150 q 639 1103 650 1114 q 610 1093 628 1093 z "},"Ȭ":{"ha":986,"x_min":79,"x_max":907,"o":"m 492 -15 q 268 42 361 -15 q 127 191 175 99 q 79 388 79 283 q 128 585 79 492 q 270 738 176 679 q 493 796 364 796 q 716 738 622 796 q 858 585 810 679 q 907 388 907 492 q 859 191 907 283 q 717 42 811 99 q 492 -15 622 -15 m 493 35 q 681 85 603 35 q 799 215 760 135 q 839 388 839 296 q 799 562 839 479 q 681 696 760 644 q 493 747 603 747 q 304 696 382 747 q 187 563 226 644 q 147 388 147 481 q 186 213 147 293 q 303 83 225 132 q 493 35 381 35 m 569 901 q 531 908 551 901 q 485 929 511 915 q 442 949 460 942 q 410 956 425 956 q 371 904 372 956 l 339 904 q 360 975 340 949 q 415 1001 381 1001 q 451 994 433 1001 q 497 974 469 988 q 540 954 522 961 q 572 947 557 947 q 614 999 610 947 l 646 999 q 626 926 643 951 q 569 901 608 901 m 358 1139 l 625 1139 l 625 1100 l 358 1100 l 358 1139 z "},"Œ":{"ha":1325,"x_min":79,"x_max":1242,"o":"m 519 0 q 285 47 385 0 q 133 181 186 93 q 79 389 79 268 q 133 599 79 511 q 285 735 186 688 q 519 782 385 782 l 1226 782 l 1226 538 l 1174 538 l 1174 735 l 743 735 l 743 411 l 1039 411 l 1039 519 l 1078 519 l 1078 247 l 1039 247 l 1039 364 l 743 364 l 743 46 l 1189 46 l 1189 257 l 1242 257 l 1242 0 l 519 0 m 678 46 l 678 735 l 524 735 q 249 643 350 735 q 147 389 147 551 q 193 207 147 285 q 324 88 239 129 q 524 46 408 46 l 678 46 z "},"P":{"ha":810,"x_min":74,"x_max":731,"o":"m 74 44 l 189 44 l 189 738 l 74 738 l 74 782 l 482 782 q 666 726 601 782 q 731 569 731 671 q 666 395 731 457 q 483 333 601 333 l 314 333 l 315 376 l 482 376 q 616 427 568 376 q 664 568 664 478 q 617 694 664 650 q 486 738 571 738 l 254 738 l 254 44 l 369 44 l 369 0 l 74 0 l 74 44 z "},"Ṗ":{"ha":810,"x_min":74,"x_max":731,"o":"m 74 44 l 189 44 l 189 738 l 74 738 l 74 782 l 482 782 q 666 726 601 782 q 731 569 731 671 q 666 395 731 457 q 483 333 601 333 l 314 333 l 315 376 l 482 376 q 616 427 568 376 q 664 568 664 478 q 617 694 664 650 q 486 738 571 738 l 254 738 l 254 44 l 369 44 l 369 0 l 74 0 l 74 44 m 438 896 q 401 910 415 896 q 388 942 388 924 q 401 975 388 961 q 438 989 414 989 q 474 976 461 989 q 488 942 488 963 q 474 910 488 925 q 438 896 460 896 z "},"Þ":{"ha":797,"x_min":74,"x_max":718,"o":"m 481 619 q 656 568 593 619 q 718 425 718 517 q 657 279 718 331 q 486 228 596 228 l 317 228 l 317 269 l 486 269 q 610 310 565 269 q 654 425 654 350 q 607 536 653 496 q 481 576 561 576 l 254 576 l 254 44 l 369 44 l 369 0 l 74 0 l 74 44 l 189 44 l 189 738 l 74 738 l 74 782 l 369 782 l 369 738 l 254 738 l 254 619 l 481 619 z "},"Q":{"ha":978,"x_min":79,"x_max":907,"o":"m 711 -157 q 584 -120 642 -157 q 472 -14 526 -83 q 258 48 347 -10 q 124 196 169 106 q 79 388 79 286 q 128 585 79 492 q 270 738 176 679 q 493 796 364 796 q 716 738 622 796 q 858 585 810 679 q 907 388 907 492 q 865 201 907 289 q 738 54 822 113 q 535 -12 653 -4 q 618 -87 576 -61 q 713 -112 660 -112 q 793 -99 751 -112 l 794 -143 q 711 -157 754 -157 m 493 35 q 681 85 603 35 q 799 215 760 135 q 839 388 839 296 q 799 562 839 479 q 681 696 760 644 q 493 747 603 747 q 304 696 382 747 q 187 563 226 644 q 147 388 147 481 q 186 213 147 293 q 303 83 225 132 q 493 35 381 35 z "},"R":{"ha":871,"x_min":74,"x_max":817,"o":"m 74 44 l 189 44 l 189 738 l 74 738 l 74 782 l 494 782 q 670 724 610 782 q 731 575 731 665 q 676 431 731 488 q 501 368 622 374 l 701 44 l 817 44 l 817 0 l 658 0 l 436 363 l 301 363 l 301 408 l 464 408 q 622 457 576 408 q 667 575 667 506 q 626 690 667 643 q 497 738 585 738 l 254 738 l 254 44 l 369 44 l 369 0 l 74 0 l 74 44 z "},"Ŕ":{"ha":871,"x_min":74,"x_max":817,"o":"m 74 44 l 189 44 l 189 738 l 74 738 l 74 782 l 494 782 q 670 724 610 782 q 731 575 731 665 q 676 431 731 488 q 501 368 622 374 l 701 44 l 817 44 l 817 0 l 658 0 l 436 363 l 301 363 l 301 408 l 464 408 q 622 457 576 408 q 667 575 667 506 q 626 690 667 643 q 497 738 585 738 l 254 738 l 254 44 l 369 44 l 369 0 l 74 0 l 74 44 m 479 1085 l 546 1085 l 450 904 l 414 904 l 479 1085 z "},"Ř":{"ha":871,"x_min":74,"x_max":817,"o":"m 74 44 l 189 44 l 189 738 l 74 738 l 74 782 l 494 782 q 670 724 610 782 q 731 575 731 665 q 676 431 731 488 q 501 368 622 374 l 701 44 l 817 44 l 817 0 l 658 0 l 436 363 l 301 363 l 301 408 l 464 408 q 622 457 576 408 q 667 575 667 506 q 626 690 667 643 q 497 738 585 738 l 254 738 l 254 44 l 369 44 l 369 0 l 74 0 l 74 44 m 288 1090 l 335 1090 l 429 922 l 524 1090 l 569 1090 l 454 882 l 406 882 l 288 1090 z "},"Ŗ":{"ha":871,"x_min":74,"x_max":817,"o":"m 74 44 l 189 44 l 189 738 l 74 738 l 74 782 l 494 782 q 670 724 610 782 q 731 575 731 665 q 676 431 731 488 q 501 368 622 374 l 701 44 l 817 44 l 817 0 l 658 0 l 436 363 l 301 363 l 301 408 l 464 408 q 622 457 576 408 q 667 575 667 506 q 626 690 667 643 q 497 738 585 738 l 254 738 l 254 44 l 369 44 l 369 0 l 74 0 l 74 44 m 422 -256 q 469 -227 457 -251 q 481 -154 481 -203 l 431 -154 l 431 -71 l 518 -71 l 518 -161 q 422 -282 518 -283 l 422 -256 z "},"Ȑ":{"ha":871,"x_min":74,"x_max":817,"o":"m 74 44 l 189 44 l 189 738 l 74 738 l 74 782 l 494 782 q 670 724 610 782 q 731 575 731 665 q 676 431 731 488 q 501 368 622 374 l 701 44 l 817 44 l 817 0 l 658 0 l 436 363 l 301 363 l 301 408 l 464 408 q 622 457 576 408 q 667 575 667 506 q 626 690 667 643 q 497 738 585 738 l 254 738 l 254 44 l 369 44 l 369 0 l 74 0 l 74 44 m 217 1108 l 283 1108 l 358 904 l 322 904 l 217 1108 m 368 1108 l 433 1108 l 508 904 l 472 904 l 368 1108 z "},"Ṛ":{"ha":871,"x_min":74,"x_max":817,"o":"m 74 44 l 189 44 l 189 738 l 74 738 l 74 782 l 494 782 q 670 724 610 782 q 731 575 731 665 q 676 431 731 488 q 501 368 622 374 l 701 44 l 817 44 l 817 0 l 658 0 l 436 363 l 301 363 l 301 408 l 464 408 q 622 457 576 408 q 667 575 667 506 q 626 690 667 643 q 497 738 585 738 l 254 738 l 254 44 l 369 44 l 369 0 l 74 0 l 74 44 m 471 -164 q 435 -150 449 -164 q 421 -118 421 -136 q 434 -85 421 -99 q 471 -71 447 -71 q 508 -84 494 -71 q 521 -118 521 -97 q 507 -149 521 -135 q 471 -164 493 -164 z "},"Ȓ":{"ha":871,"x_min":74,"x_max":817,"o":"m 74 44 l 189 44 l 189 738 l 74 738 l 74 782 l 494 782 q 670 724 610 782 q 731 575 731 665 q 676 431 731 488 q 501 368 622 374 l 701 44 l 817 44 l 817 0 l 658 0 l 436 363 l 301 363 l 301 408 l 464 408 q 622 457 576 408 q 667 575 667 506 q 626 690 667 643 q 497 738 585 738 l 254 738 l 254 44 l 369 44 l 369 0 l 74 0 l 74 44 m 308 882 q 349 965 318 936 q 429 994 381 994 q 510 965 479 994 q 549 882 542 935 l 504 882 q 429 947 488 947 q 354 882 369 947 l 308 882 z "},"Ṟ":{"ha":871,"x_min":74,"x_max":817,"o":"m 74 44 l 189 44 l 189 738 l 74 738 l 74 782 l 494 782 q 670 724 610 782 q 731 575 731 665 q 676 431 731 488 q 501 368 622 374 l 701 44 l 817 44 l 817 0 l 658 0 l 436 363 l 301 363 l 301 408 l 464 408 q 622 457 576 408 q 667 575 667 506 q 626 690 667 643 q 497 738 585 738 l 254 738 l 254 44 l 369 44 l 369 0 l 74 0 l 74 44 m 338 -65 l 604 -65 l 604 -104 l 338 -104 l 338 -65 z "},"S":{"ha":754,"x_min":110,"x_max":676,"o":"m 446 419 q 622 351 567 401 q 676 203 676 300 q 610 45 676 106 q 426 -15 544 -15 q 265 18 333 -15 q 168 110 197 51 l 168 0 l 113 0 l 113 263 l 167 263 q 232 94 169 154 q 425 33 294 33 q 566 77 515 33 q 617 196 617 121 q 577 311 617 275 q 435 363 538 347 l 349 375 q 170 443 231 392 q 110 590 110 494 q 175 741 110 686 q 356 796 240 796 q 497 767 436 796 q 588 689 558 739 l 588 782 l 642 782 l 642 568 l 589 568 q 528 697 586 646 q 358 749 469 749 q 219 707 269 749 q 169 596 169 665 q 217 482 169 518 q 360 431 264 446 l 446 419 z "},"Ś":{"ha":754,"x_min":110,"x_max":676,"o":"m 446 419 q 622 351 567 401 q 676 203 676 300 q 610 45 676 106 q 426 -15 544 -15 q 265 18 333 -15 q 168 110 197 51 l 168 0 l 113 0 l 113 263 l 167 263 q 232 94 169 154 q 425 33 294 33 q 566 77 515 33 q 617 196 617 121 q 577 311 617 275 q 435 363 538 347 l 349 375 q 170 443 231 392 q 110 590 110 494 q 175 741 110 686 q 356 796 240 796 q 497 767 436 796 q 588 689 558 739 l 588 782 l 642 782 l 642 568 l 589 568 q 528 697 586 646 q 358 749 469 749 q 219 707 269 749 q 169 596 169 665 q 217 482 169 518 q 360 431 264 446 l 446 419 m 439 1085 l 506 1085 l 410 904 l 374 904 l 439 1085 z "},"Ṥ":{"ha":754,"x_min":110,"x_max":676,"o":"m 446 419 q 622 351 567 401 q 676 203 676 300 q 610 45 676 106 q 426 -15 544 -15 q 265 18 333 -15 q 168 110 197 51 l 168 0 l 113 0 l 113 263 l 167 263 q 232 94 169 154 q 425 33 294 33 q 566 77 515 33 q 617 196 617 121 q 577 311 617 275 q 435 363 538 347 l 349 375 q 170 443 231 392 q 110 590 110 494 q 175 741 110 686 q 356 796 240 796 q 497 767 436 796 q 588 689 558 739 l 588 782 l 642 782 l 642 568 l 589 568 q 528 697 586 646 q 358 749 469 749 q 219 707 269 749 q 169 596 169 665 q 217 482 169 518 q 360 431 264 446 l 446 419 m 439 1085 l 506 1085 l 410 904 l 374 904 l 439 1085 m 389 1224 q 353 1238 367 1224 q 339 1269 339 1251 q 352 1303 339 1289 q 389 1317 365 1317 q 426 1303 413 1317 q 439 1269 439 1290 q 425 1238 439 1253 q 389 1224 411 1224 z "},"Š":{"ha":754,"x_min":110,"x_max":676,"o":"m 446 419 q 622 351 567 401 q 676 203 676 300 q 610 45 676 106 q 426 -15 544 -15 q 265 18 333 -15 q 168 110 197 51 l 168 0 l 113 0 l 113 263 l 167 263 q 232 94 169 154 q 425 33 294 33 q 566 77 515 33 q 617 196 617 121 q 577 311 617 275 q 435 363 538 347 l 349 375 q 170 443 231 392 q 110 590 110 494 q 175 741 110 686 q 356 796 240 796 q 497 767 436 796 q 588 689 558 739 l 588 782 l 642 782 l 642 568 l 589 568 q 528 697 586 646 q 358 749 469 749 q 219 707 269 749 q 169 596 169 665 q 217 482 169 518 q 360 431 264 446 l 446 419 m 247 1090 l 294 1090 l 389 922 l 483 1090 l 529 1090 l 414 882 l 365 882 l 247 1090 z "},"Ṧ":{"ha":754,"x_min":110,"x_max":676,"o":"m 446 419 q 622 351 567 401 q 676 203 676 300 q 610 45 676 106 q 426 -15 544 -15 q 265 18 333 -15 q 168 110 197 51 l 168 0 l 113 0 l 113 263 l 167 263 q 232 94 169 154 q 425 33 294 33 q 566 77 515 33 q 617 196 617 121 q 577 311 617 275 q 435 363 538 347 l 349 375 q 170 443 231 392 q 110 590 110 494 q 175 741 110 686 q 356 796 240 796 q 497 767 436 796 q 588 689 558 739 l 588 782 l 642 782 l 642 568 l 589 568 q 528 697 586 646 q 358 749 469 749 q 219 707 269 749 q 169 596 169 665 q 217 482 169 518 q 360 431 264 446 l 446 419 m 247 1090 l 294 1090 l 389 922 l 483 1090 l 529 1090 l 414 882 l 365 882 l 247 1090 m 389 1176 q 353 1190 367 1176 q 339 1222 339 1204 q 352 1256 339 1242 q 389 1269 365 1269 q 426 1256 413 1269 q 439 1222 439 1243 q 425 1191 439 1206 q 389 1176 411 1176 z "},"Ş":{"ha":754,"x_min":110,"x_max":676,"o":"m 676 203 q 613 48 676 108 q 438 -15 550 -12 l 418 -79 q 486 -100 463 -81 q 510 -149 510 -119 q 485 -199 510 -182 q 422 -215 461 -215 q 336 -194 381 -215 l 336 -167 q 400 -178 368 -178 q 453 -146 453 -178 q 434 -118 453 -128 q 371 -107 415 -108 l 406 -15 q 258 22 319 -11 q 168 110 197 56 l 168 0 l 113 0 l 113 263 l 167 263 q 232 94 169 154 q 425 33 294 33 q 566 77 515 33 q 617 196 617 121 q 577 311 617 275 q 435 363 538 347 l 349 375 q 170 443 231 392 q 110 590 110 494 q 175 741 110 686 q 356 796 240 796 q 497 767 436 796 q 588 689 558 739 l 588 782 l 642 782 l 642 568 l 589 568 q 528 697 586 646 q 358 749 469 749 q 219 707 269 749 q 169 596 169 665 q 217 482 169 518 q 360 431 264 446 l 446 419 q 622 351 567 401 q 676 203 676 300 z "},"Ŝ":{"ha":754,"x_min":110,"x_max":676,"o":"m 446 419 q 622 351 567 401 q 676 203 676 300 q 610 45 676 106 q 426 -15 544 -15 q 265 18 333 -15 q 168 110 197 51 l 168 0 l 113 0 l 113 263 l 167 263 q 232 94 169 154 q 425 33 294 33 q 566 77 515 33 q 617 196 617 121 q 577 311 617 275 q 435 363 538 347 l 349 375 q 170 443 231 392 q 110 590 110 494 q 175 741 110 686 q 356 796 240 796 q 497 767 436 796 q 588 689 558 739 l 588 782 l 642 782 l 642 568 l 589 568 q 528 697 586 646 q 358 749 469 749 q 219 707 269 749 q 169 596 169 665 q 217 482 169 518 q 360 431 264 446 l 446 419 m 363 1076 l 417 1076 l 533 864 l 486 864 l 389 1042 l 292 864 l 244 864 l 363 1076 z "},"Ș":{"ha":754,"x_min":110,"x_max":676,"o":"m 446 419 q 622 351 567 401 q 676 203 676 300 q 610 45 676 106 q 426 -15 544 -15 q 265 18 333 -15 q 168 110 197 51 l 168 0 l 113 0 l 113 263 l 167 263 q 232 94 169 154 q 425 33 294 33 q 566 77 515 33 q 617 196 617 121 q 577 311 617 275 q 435 363 538 347 l 349 375 q 170 443 231 392 q 110 590 110 494 q 175 741 110 686 q 356 796 240 796 q 497 767 436 796 q 588 689 558 739 l 588 782 l 642 782 l 642 568 l 589 568 q 528 697 586 646 q 358 749 469 749 q 219 707 269 749 q 169 596 169 665 q 217 482 169 518 q 360 431 264 446 l 446 419 m 378 -256 q 424 -227 413 -251 q 436 -154 436 -203 l 386 -154 l 386 -71 l 474 -71 l 474 -161 q 378 -282 474 -283 l 378 -256 z "},"Ṡ":{"ha":754,"x_min":110,"x_max":676,"o":"m 446 419 q 622 351 567 401 q 676 203 676 300 q 610 45 676 106 q 426 -15 544 -15 q 265 18 333 -15 q 168 110 197 51 l 168 0 l 113 0 l 113 263 l 167 263 q 232 94 169 154 q 425 33 294 33 q 566 77 515 33 q 617 196 617 121 q 577 311 617 275 q 435 363 538 347 l 349 375 q 170 443 231 392 q 110 590 110 494 q 175 741 110 686 q 356 796 240 796 q 497 767 436 796 q 588 689 558 739 l 588 782 l 642 782 l 642 568 l 589 568 q 528 697 586 646 q 358 749 469 749 q 219 707 269 749 q 169 596 169 665 q 217 482 169 518 q 360 431 264 446 l 446 419 m 389 896 q 353 910 367 896 q 339 942 339 924 q 352 975 339 961 q 389 989 365 989 q 426 976 413 989 q 439 942 439 963 q 425 910 439 925 q 389 896 411 896 z "},"Ṣ":{"ha":754,"x_min":110,"x_max":676,"o":"m 446 419 q 622 351 567 401 q 676 203 676 300 q 610 45 676 106 q 426 -15 544 -15 q 265 18 333 -15 q 168 110 197 51 l 168 0 l 113 0 l 113 263 l 167 263 q 232 94 169 154 q 425 33 294 33 q 566 77 515 33 q 617 196 617 121 q 577 311 617 275 q 435 363 538 347 l 349 375 q 170 443 231 392 q 110 590 110 494 q 175 741 110 686 q 356 796 240 796 q 497 767 436 796 q 588 689 558 739 l 588 782 l 642 782 l 642 568 l 589 568 q 528 697 586 646 q 358 749 469 749 q 219 707 269 749 q 169 596 169 665 q 217 482 169 518 q 360 431 264 446 l 446 419 m 426 -164 q 390 -150 404 -164 q 376 -118 376 -136 q 390 -85 376 -99 q 426 -71 403 -71 q 463 -84 450 -71 q 476 -118 476 -97 q 463 -149 476 -135 q 426 -164 449 -164 z "},"Ṩ":{"ha":754,"x_min":110,"x_max":676,"o":"m 446 419 q 622 351 567 401 q 676 203 676 300 q 610 45 676 106 q 426 -15 544 -15 q 265 18 333 -15 q 168 110 197 51 l 168 0 l 113 0 l 113 263 l 167 263 q 232 94 169 154 q 425 33 294 33 q 566 77 515 33 q 617 196 617 121 q 577 311 617 275 q 435 363 538 347 l 349 375 q 170 443 231 392 q 110 590 110 494 q 175 741 110 686 q 356 796 240 796 q 497 767 436 796 q 588 689 558 739 l 588 782 l 642 782 l 642 568 l 589 568 q 528 697 586 646 q 358 749 469 749 q 219 707 269 749 q 169 596 169 665 q 217 482 169 518 q 360 431 264 446 l 446 419 m 426 -164 q 390 -150 404 -164 q 376 -118 376 -136 q 390 -85 376 -99 q 426 -71 403 -71 q 463 -84 450 -71 q 476 -118 476 -97 q 463 -149 476 -135 q 426 -164 449 -164 m 389 896 q 353 910 367 896 q 339 942 339 924 q 352 975 339 961 q 389 989 365 989 q 426 976 413 989 q 439 942 439 963 q 425 910 439 925 q 389 896 411 896 z "},"ẞ":{"ha":838,"x_min":63,"x_max":767,"o":"m 442 33 q 699 221 699 33 q 633 358 699 314 q 428 403 567 403 l 428 444 l 631 699 q 542 735 588 722 q 438 747 496 747 q 260 690 324 747 q 197 518 197 633 l 197 44 l 275 44 l 275 0 l 63 0 l 63 44 l 132 44 l 132 515 q 210 722 132 649 q 436 796 289 796 q 569 777 510 796 q 682 726 628 758 l 682 685 l 489 446 q 694 382 621 442 q 767 222 767 322 q 683 47 767 107 q 442 -14 600 -14 l 442 33 z "},"Ə":{"ha":924,"x_min":67,"x_max":844,"o":"m 442 796 q 643 746 551 796 q 790 603 735 696 q 844 389 844 511 q 790 172 844 264 q 644 33 735 81 q 447 -15 553 -15 q 251 31 338 -15 q 116 167 165 76 q 67 389 67 258 l 67 410 l 778 410 q 727 586 772 510 q 607 705 682 663 q 439 747 532 747 q 263 710 346 747 q 114 608 181 674 l 83 647 q 442 796 246 796 m 447 35 q 608 74 535 35 q 727 188 682 114 q 778 361 772 263 l 133 361 q 176 182 133 256 q 291 72 219 108 q 447 35 363 35 z "},"T":{"ha":778,"x_min":35,"x_max":742,"o":"m 239 44 l 354 44 l 354 738 l 86 738 l 86 519 l 35 519 l 35 782 l 742 782 l 742 519 l 689 519 l 689 738 l 418 738 l 418 44 l 533 44 l 533 0 l 239 0 l 239 44 z "},"Ŧ":{"ha":778,"x_min":35,"x_max":742,"o":"m 742 782 l 742 519 l 689 519 l 689 738 l 418 738 l 418 408 l 519 408 l 519 369 l 418 369 l 418 44 l 533 44 l 533 0 l 239 0 l 239 44 l 354 44 l 354 369 l 253 369 l 253 408 l 354 408 l 354 738 l 86 738 l 86 519 l 35 519 l 35 782 l 742 782 z "},"Ť":{"ha":778,"x_min":35,"x_max":742,"o":"m 239 44 l 354 44 l 354 738 l 86 738 l 86 519 l 35 519 l 35 782 l 742 782 l 742 519 l 689 519 l 689 738 l 418 738 l 418 44 l 533 44 l 533 0 l 239 0 l 239 44 m 243 1090 l 290 1090 l 385 922 l 479 1090 l 525 1090 l 410 882 l 361 882 l 243 1090 z "},"Ţ":{"ha":778,"x_min":35,"x_max":742,"o":"m 239 44 l 354 44 l 354 738 l 86 738 l 86 519 l 35 519 l 35 782 l 742 782 l 742 519 l 689 519 l 689 738 l 418 738 l 418 44 l 533 44 l 533 0 l 239 0 l 239 44 m 382 -215 q 296 -194 340 -215 l 296 -167 q 360 -178 328 -178 q 413 -146 413 -178 q 394 -118 413 -128 q 331 -107 375 -108 l 371 0 l 401 0 l 378 -79 q 446 -100 422 -81 q 469 -149 469 -119 q 445 -199 469 -182 q 382 -215 421 -215 z "},"Ț":{"ha":778,"x_min":35,"x_max":742,"o":"m 239 44 l 354 44 l 354 738 l 86 738 l 86 519 l 35 519 l 35 782 l 742 782 l 742 519 l 689 519 l 689 738 l 418 738 l 418 44 l 533 44 l 533 0 l 239 0 l 239 44 m 338 -256 q 384 -227 372 -251 q 396 -154 396 -203 l 346 -154 l 346 -71 l 433 -71 l 433 -161 q 338 -282 433 -283 l 338 -256 z "},"Ṫ":{"ha":778,"x_min":35,"x_max":742,"o":"m 239 44 l 354 44 l 354 738 l 86 738 l 86 519 l 35 519 l 35 782 l 742 782 l 742 519 l 689 519 l 689 738 l 418 738 l 418 44 l 533 44 l 533 0 l 239 0 l 239 44 m 385 896 q 349 910 363 896 q 335 942 335 924 q 348 975 335 961 q 385 989 361 989 q 422 976 408 989 q 435 942 435 963 q 421 910 435 925 q 385 896 407 896 z "},"Ṭ":{"ha":778,"x_min":35,"x_max":742,"o":"m 239 44 l 354 44 l 354 738 l 86 738 l 86 519 l 35 519 l 35 782 l 742 782 l 742 519 l 689 519 l 689 738 l 418 738 l 418 44 l 533 44 l 533 0 l 239 0 l 239 44 m 386 -164 q 350 -150 364 -164 q 336 -118 336 -136 q 349 -85 336 -99 q 386 -71 363 -71 q 423 -84 410 -71 q 436 -118 436 -97 q 422 -149 436 -135 q 386 -164 408 -164 z "},"Ṯ":{"ha":778,"x_min":35,"x_max":742,"o":"m 239 44 l 354 44 l 354 738 l 86 738 l 86 519 l 35 519 l 35 782 l 742 782 l 742 519 l 689 519 l 689 738 l 418 738 l 418 44 l 533 44 l 533 0 l 239 0 l 239 44 m 253 -65 l 519 -65 l 519 -104 l 253 -104 l 253 -65 z "},"U":{"ha":986,"x_min":51,"x_max":946,"o":"m 489 -15 q 309 20 385 -15 q 194 119 233 56 q 154 264 154 182 l 154 738 l 51 738 l 51 782 l 324 782 l 324 738 l 219 738 l 219 258 q 294 96 219 157 q 490 35 368 35 q 701 96 622 35 q 781 258 781 157 l 781 738 l 679 738 l 679 782 l 946 782 l 946 738 l 839 738 l 839 260 q 794 113 839 175 q 671 18 750 51 q 489 -15 592 -15 z "},"Ú":{"ha":986,"x_min":51,"x_max":946,"o":"m 489 -15 q 309 20 385 -15 q 194 119 233 56 q 154 264 154 182 l 154 738 l 51 738 l 51 782 l 324 782 l 324 738 l 219 738 l 219 258 q 294 96 219 157 q 490 35 368 35 q 701 96 622 35 q 781 258 781 157 l 781 738 l 679 738 l 679 782 l 946 782 l 946 738 l 839 738 l 839 260 q 794 113 839 175 q 671 18 750 51 q 489 -15 592 -15 m 549 1085 l 615 1085 l 519 904 l 483 904 l 549 1085 z "},"Ŭ":{"ha":986,"x_min":51,"x_max":946,"o":"m 489 -15 q 309 20 385 -15 q 194 119 233 56 q 154 264 154 182 l 154 738 l 51 738 l 51 782 l 324 782 l 324 738 l 219 738 l 219 258 q 294 96 219 157 q 490 35 368 35 q 701 96 622 35 q 781 258 781 157 l 781 738 l 679 738 l 679 782 l 946 782 l 946 738 l 839 738 l 839 260 q 794 113 839 175 q 671 18 750 51 q 489 -15 592 -15 m 499 892 q 419 920 450 892 q 382 1000 389 949 l 421 1000 q 499 932 438 932 q 575 1000 558 932 l 615 1000 q 577 921 607 949 q 499 892 547 893 z "},"Ǔ":{"ha":986,"x_min":51,"x_max":946,"o":"m 489 -15 q 309 20 385 -15 q 194 119 233 56 q 154 264 154 182 l 154 738 l 51 738 l 51 782 l 324 782 l 324 738 l 219 738 l 219 258 q 294 96 219 157 q 490 35 368 35 q 701 96 622 35 q 781 258 781 157 l 781 738 l 679 738 l 679 782 l 946 782 l 946 738 l 839 738 l 839 260 q 794 113 839 175 q 671 18 750 51 q 489 -15 592 -15 m 357 1090 l 404 1090 l 499 922 l 593 1090 l 639 1090 l 524 882 l 475 882 l 357 1090 z "},"Û":{"ha":986,"x_min":51,"x_max":946,"o":"m 489 -15 q 309 20 385 -15 q 194 119 233 56 q 154 264 154 182 l 154 738 l 51 738 l 51 782 l 324 782 l 324 738 l 219 738 l 219 258 q 294 96 219 157 q 490 35 368 35 q 701 96 622 35 q 781 258 781 157 l 781 738 l 679 738 l 679 782 l 946 782 l 946 738 l 839 738 l 839 260 q 794 113 839 175 q 671 18 750 51 q 489 -15 592 -15 m 472 1076 l 526 1076 l 643 864 l 596 864 l 499 1042 l 401 864 l 354 864 l 472 1076 z "},"Ȕ":{"ha":986,"x_min":51,"x_max":946,"o":"m 489 -15 q 309 20 385 -15 q 194 119 233 56 q 154 264 154 182 l 154 738 l 51 738 l 51 782 l 324 782 l 324 738 l 219 738 l 219 258 q 294 96 219 157 q 490 35 368 35 q 701 96 622 35 q 781 258 781 157 l 781 738 l 679 738 l 679 782 l 946 782 l 946 738 l 839 738 l 839 260 q 794 113 839 175 q 671 18 750 51 q 489 -15 592 -15 m 286 1108 l 353 1108 l 428 904 l 392 904 l 286 1108 m 438 1108 l 503 1108 l 578 904 l 542 904 l 438 1108 z "},"Ü":{"ha":986,"x_min":51,"x_max":946,"o":"m 489 -15 q 309 20 385 -15 q 194 119 233 56 q 154 264 154 182 l 154 738 l 51 738 l 51 782 l 324 782 l 324 738 l 219 738 l 219 258 q 294 96 219 157 q 490 35 368 35 q 701 96 622 35 q 781 258 781 157 l 781 738 l 679 738 l 679 782 l 946 782 l 946 738 l 839 738 l 839 260 q 794 113 839 175 q 671 18 750 51 q 489 -15 592 -15 m 381 896 q 351 907 363 896 q 340 936 340 918 q 351 965 340 954 q 381 975 363 975 q 411 965 400 975 q 422 936 422 954 q 411 907 422 918 q 381 896 400 896 m 617 896 q 586 906 597 896 q 575 935 575 917 q 586 964 575 953 q 617 975 597 975 q 646 964 635 975 q 657 935 657 953 q 646 906 657 917 q 617 896 635 896 z "},"Ụ":{"ha":986,"x_min":51,"x_max":946,"o":"m 489 -15 q 309 20 385 -15 q 194 119 233 56 q 154 264 154 182 l 154 738 l 51 738 l 51 782 l 324 782 l 324 738 l 219 738 l 219 258 q 294 96 219 157 q 490 35 368 35 q 701 96 622 35 q 781 258 781 157 l 781 738 l 679 738 l 679 782 l 946 782 l 946 738 l 839 738 l 839 260 q 794 113 839 175 q 671 18 750 51 q 489 -15 592 -15 m 490 -164 q 454 -150 468 -164 q 440 -118 440 -136 q 453 -85 440 -99 q 490 -71 467 -71 q 527 -84 514 -71 q 540 -118 540 -97 q 526 -149 540 -135 q 490 -164 513 -164 z "},"Ù":{"ha":986,"x_min":51,"x_max":946,"o":"m 489 -15 q 309 20 385 -15 q 194 119 233 56 q 154 264 154 182 l 154 738 l 51 738 l 51 782 l 324 782 l 324 738 l 219 738 l 219 258 q 294 96 219 157 q 490 35 368 35 q 701 96 622 35 q 781 258 781 157 l 781 738 l 679 738 l 679 782 l 946 782 l 946 738 l 839 738 l 839 260 q 794 113 839 175 q 671 18 750 51 q 489 -15 592 -15 m 382 1085 l 449 1085 l 514 904 l 478 904 l 382 1085 z "},"Ủ":{"ha":986,"x_min":51,"x_max":946,"o":"m 489 -15 q 309 20 385 -15 q 194 119 233 56 q 154 264 154 182 l 154 738 l 51 738 l 51 782 l 324 782 l 324 738 l 219 738 l 219 258 q 294 96 219 157 q 490 35 368 35 q 701 96 622 35 q 781 258 781 157 l 781 738 l 679 738 l 679 782 l 946 782 l 946 738 l 839 738 l 839 260 q 794 113 839 175 q 671 18 750 51 q 489 -15 592 -15 m 483 883 q 526 932 526 899 q 514 961 526 950 q 479 972 501 972 q 419 954 451 972 l 403 993 q 483 1014 444 1014 q 549 992 525 1014 q 574 935 574 969 q 499 843 574 869 l 483 883 z "},"Ư":{"ha":986,"x_min":51,"x_max":957,"o":"m 957 874 q 919 789 950 822 q 839 747 889 756 l 839 260 q 794 113 839 175 q 671 18 750 51 q 489 -15 592 -15 q 309 20 385 -15 q 194 119 233 56 q 154 264 154 182 l 154 738 l 51 738 l 51 782 l 324 782 l 324 738 l 219 738 l 219 258 q 294 96 219 157 q 490 35 368 35 q 701 96 622 35 q 781 258 781 157 l 781 738 l 679 738 l 679 782 l 794 782 q 863 804 836 782 q 893 874 889 826 l 957 874 z "},"Ứ":{"ha":986,"x_min":51,"x_max":957,"o":"m 957 874 q 919 789 950 822 q 839 747 889 756 l 839 260 q 794 113 839 175 q 671 18 750 51 q 489 -15 592 -15 q 309 20 385 -15 q 194 119 233 56 q 154 264 154 182 l 154 738 l 51 738 l 51 782 l 324 782 l 324 738 l 219 738 l 219 258 q 294 96 219 157 q 490 35 368 35 q 701 96 622 35 q 781 258 781 157 l 781 738 l 679 738 l 679 782 l 794 782 q 863 804 836 782 q 893 874 889 826 l 957 874 m 549 1085 l 615 1085 l 519 904 l 483 904 l 549 1085 z "},"Ự":{"ha":986,"x_min":51,"x_max":957,"o":"m 957 874 q 919 789 950 822 q 839 747 889 756 l 839 260 q 794 113 839 175 q 671 18 750 51 q 489 -15 592 -15 q 309 20 385 -15 q 194 119 233 56 q 154 264 154 182 l 154 738 l 51 738 l 51 782 l 324 782 l 324 738 l 219 738 l 219 258 q 294 96 219 157 q 490 35 368 35 q 701 96 622 35 q 781 258 781 157 l 781 738 l 679 738 l 679 782 l 794 782 q 863 804 836 782 q 893 874 889 826 l 957 874 m 490 -164 q 454 -150 468 -164 q 440 -118 440 -136 q 453 -85 440 -99 q 490 -71 467 -71 q 527 -84 514 -71 q 540 -118 540 -97 q 526 -149 540 -135 q 490 -164 513 -164 z "},"Ừ":{"ha":986,"x_min":51,"x_max":957,"o":"m 957 874 q 919 789 950 822 q 839 747 889 756 l 839 260 q 794 113 839 175 q 671 18 750 51 q 489 -15 592 -15 q 309 20 385 -15 q 194 119 233 56 q 154 264 154 182 l 154 738 l 51 738 l 51 782 l 324 782 l 324 738 l 219 738 l 219 258 q 294 96 219 157 q 490 35 368 35 q 701 96 622 35 q 781 258 781 157 l 781 738 l 679 738 l 679 782 l 794 782 q 863 804 836 782 q 893 874 889 826 l 957 874 m 382 1085 l 449 1085 l 514 904 l 478 904 l 382 1085 z "},"Ử":{"ha":986,"x_min":51,"x_max":957,"o":"m 957 874 q 919 789 950 822 q 839 747 889 756 l 839 260 q 794 113 839 175 q 671 18 750 51 q 489 -15 592 -15 q 309 20 385 -15 q 194 119 233 56 q 154 264 154 182 l 154 738 l 51 738 l 51 782 l 324 782 l 324 738 l 219 738 l 219 258 q 294 96 219 157 q 490 35 368 35 q 701 96 622 35 q 781 258 781 157 l 781 738 l 679 738 l 679 782 l 794 782 q 863 804 836 782 q 893 874 889 826 l 957 874 m 483 883 q 526 932 526 899 q 514 961 526 950 q 479 972 501 972 q 419 954 451 972 l 403 993 q 483 1014 444 1014 q 549 992 525 1014 q 574 935 574 969 q 499 843 574 869 l 483 883 z "},"Ữ":{"ha":986,"x_min":51,"x_max":957,"o":"m 957 874 q 919 789 950 822 q 839 747 889 756 l 839 260 q 794 113 839 175 q 671 18 750 51 q 489 -15 592 -15 q 309 20 385 -15 q 194 119 233 56 q 154 264 154 182 l 154 738 l 51 738 l 51 782 l 324 782 l 324 738 l 219 738 l 219 258 q 294 96 219 157 q 490 35 368 35 q 701 96 622 35 q 781 258 781 157 l 781 738 l 679 738 l 679 782 l 794 782 q 863 804 836 782 q 893 874 889 826 l 957 874 m 576 901 q 538 908 558 901 q 492 929 518 915 q 449 949 467 942 q 417 956 432 956 q 378 904 379 956 l 346 904 q 367 975 347 949 q 422 1001 388 1001 q 458 994 440 1001 q 504 974 476 988 q 547 954 529 961 q 579 947 564 947 q 621 999 617 947 l 653 999 q 633 926 650 951 q 576 901 615 901 z "},"Ű":{"ha":986,"x_min":51,"x_max":946,"o":"m 489 -15 q 309 20 385 -15 q 194 119 233 56 q 154 264 154 182 l 154 738 l 51 738 l 51 782 l 324 782 l 324 738 l 219 738 l 219 258 q 294 96 219 157 q 490 35 368 35 q 701 96 622 35 q 781 258 781 157 l 781 738 l 679 738 l 679 782 l 946 782 l 946 738 l 839 738 l 839 260 q 794 113 839 175 q 671 18 750 51 q 489 -15 592 -15 m 490 1108 l 557 1108 l 453 904 l 414 904 l 490 1108 m 639 1108 l 706 1108 l 603 904 l 564 904 l 639 1108 z "},"Ȗ":{"ha":986,"x_min":51,"x_max":946,"o":"m 489 -15 q 309 20 385 -15 q 194 119 233 56 q 154 264 154 182 l 154 738 l 51 738 l 51 782 l 324 782 l 324 738 l 219 738 l 219 258 q 294 96 219 157 q 490 35 368 35 q 701 96 622 35 q 781 258 781 157 l 781 738 l 679 738 l 679 782 l 946 782 l 946 738 l 839 738 l 839 260 q 794 113 839 175 q 671 18 750 51 q 489 -15 592 -15 m 378 882 q 419 965 388 936 q 499 994 450 994 q 580 965 549 994 q 618 882 611 935 l 574 882 q 499 947 557 947 q 424 882 439 947 l 378 882 z "},"Ū":{"ha":986,"x_min":51,"x_max":946,"o":"m 489 -15 q 309 20 385 -15 q 194 119 233 56 q 154 264 154 182 l 154 738 l 51 738 l 51 782 l 324 782 l 324 738 l 219 738 l 219 258 q 294 96 219 157 q 490 35 368 35 q 701 96 622 35 q 781 258 781 157 l 781 738 l 679 738 l 679 782 l 946 782 l 946 738 l 839 738 l 839 260 q 794 113 839 175 q 671 18 750 51 q 489 -15 592 -15 m 365 942 l 632 942 l 632 903 l 365 903 l 365 942 z "},"Ṻ":{"ha":986,"x_min":51,"x_max":946,"o":"m 489 -15 q 309 20 385 -15 q 194 119 233 56 q 154 264 154 182 l 154 738 l 51 738 l 51 782 l 324 782 l 324 738 l 219 738 l 219 258 q 294 96 219 157 q 490 35 368 35 q 701 96 622 35 q 781 258 781 157 l 781 738 l 679 738 l 679 782 l 946 782 l 946 738 l 839 738 l 839 260 q 794 113 839 175 q 671 18 750 51 q 489 -15 592 -15 m 365 942 l 632 942 l 632 903 l 365 903 l 365 942 m 381 1040 q 351 1051 363 1040 q 340 1081 340 1063 q 351 1109 340 1099 q 381 1119 363 1119 q 411 1109 400 1119 q 422 1081 422 1099 q 411 1051 422 1063 q 381 1040 400 1040 m 617 1040 q 586 1051 597 1040 q 575 1079 575 1061 q 586 1108 575 1097 q 617 1119 597 1119 q 646 1108 635 1119 q 657 1079 657 1097 q 646 1051 657 1061 q 617 1040 635 1040 z "},"Ų":{"ha":986,"x_min":51,"x_max":946,"o":"m 946 782 l 946 738 l 839 738 l 839 260 q 795 113 839 175 q 672 18 751 51 q 490 -15 593 -15 q 439 -117 439 -74 q 456 -162 439 -147 q 503 -178 474 -178 q 567 -157 536 -178 l 567 -193 q 488 -219 528 -219 q 418 -195 446 -219 q 390 -131 390 -171 q 450 -14 390 -72 q 233 72 311 -4 q 154 264 154 147 l 154 738 l 51 738 l 51 782 l 324 782 l 324 738 l 219 738 l 219 258 q 294 96 219 157 q 490 35 368 35 q 701 96 622 35 q 781 258 781 157 l 781 738 l 679 738 l 679 782 l 946 782 z "},"Ů":{"ha":986,"x_min":51,"x_max":946,"o":"m 489 -15 q 309 20 385 -15 q 194 119 233 56 q 154 264 154 182 l 154 738 l 51 738 l 51 782 l 324 782 l 324 738 l 219 738 l 219 258 q 294 96 219 157 q 490 35 368 35 q 701 96 622 35 q 781 258 781 157 l 781 738 l 679 738 l 679 782 l 946 782 l 946 738 l 839 738 l 839 260 q 794 113 839 175 q 671 18 750 51 q 489 -15 592 -15 m 500 864 q 432 888 457 864 q 407 950 407 911 q 433 1013 408 989 q 499 1036 457 1036 q 565 1013 540 1036 q 590 950 590 989 q 566 888 590 911 q 500 864 542 864 m 500 892 q 542 908 526 892 q 557 950 557 924 q 542 992 557 976 q 500 1007 526 1007 q 456 992 472 1007 q 440 950 440 976 q 456 908 440 924 q 500 892 472 892 z "},"Ũ":{"ha":986,"x_min":51,"x_max":946,"o":"m 489 -15 q 309 20 385 -15 q 194 119 233 56 q 154 264 154 182 l 154 738 l 51 738 l 51 782 l 324 782 l 324 738 l 219 738 l 219 258 q 294 96 219 157 q 490 35 368 35 q 701 96 622 35 q 781 258 781 157 l 781 738 l 679 738 l 679 782 l 946 782 l 946 738 l 839 738 l 839 260 q 794 113 839 175 q 671 18 750 51 q 489 -15 592 -15 m 576 901 q 538 908 558 901 q 492 929 518 915 q 449 949 467 942 q 417 956 432 956 q 378 904 379 956 l 346 904 q 367 975 347 949 q 422 1001 388 1001 q 458 994 440 1001 q 504 974 476 988 q 547 954 529 961 q 579 947 564 947 q 621 999 617 947 l 653 999 q 633 926 650 951 q 576 901 615 901 z "},"Ṹ":{"ha":986,"x_min":51,"x_max":946,"o":"m 489 -15 q 309 20 385 -15 q 194 119 233 56 q 154 264 154 182 l 154 738 l 51 738 l 51 782 l 324 782 l 324 738 l 219 738 l 219 258 q 294 96 219 157 q 490 35 368 35 q 701 96 622 35 q 781 258 781 157 l 781 738 l 679 738 l 679 782 l 946 782 l 946 738 l 839 738 l 839 260 q 794 113 839 175 q 671 18 750 51 q 489 -15 592 -15 m 576 901 q 538 908 558 901 q 492 929 518 915 q 449 949 467 942 q 417 956 432 956 q 378 904 379 956 l 346 904 q 367 975 347 949 q 422 1001 388 1001 q 458 994 440 1001 q 504 974 476 988 q 547 954 529 961 q 579 947 564 947 q 621 999 617 947 l 653 999 q 633 926 650 951 q 576 901 615 901 m 549 1282 l 615 1282 l 519 1101 l 483 1101 l 549 1282 z "},"V":{"ha":860,"x_min":25,"x_max":832,"o":"m 119 738 l 25 738 l 25 782 l 294 782 l 294 738 l 188 738 l 435 75 l 679 738 l 575 738 l 575 782 l 832 782 l 832 738 l 744 738 l 463 0 l 401 0 l 119 738 z "},"W":{"ha":1310,"x_min":43,"x_max":1267,"o":"m 139 738 l 43 738 l 43 782 l 310 782 l 310 738 l 204 738 l 417 83 l 636 750 l 683 750 l 901 83 l 1110 738 l 1006 738 l 1006 782 l 1267 782 l 1267 738 l 1168 738 l 929 0 l 869 0 l 657 642 l 444 0 l 382 0 l 139 738 z "},"Ẃ":{"ha":1310,"x_min":43,"x_max":1267,"o":"m 139 738 l 43 738 l 43 782 l 310 782 l 310 738 l 204 738 l 417 83 l 636 750 l 683 750 l 901 83 l 1110 738 l 1006 738 l 1006 782 l 1267 782 l 1267 738 l 1168 738 l 929 0 l 869 0 l 657 642 l 444 0 l 382 0 l 139 738 m 710 1053 l 776 1053 l 681 872 l 644 872 l 710 1053 z "},"Ŵ":{"ha":1310,"x_min":43,"x_max":1267,"o":"m 139 738 l 43 738 l 43 782 l 310 782 l 310 738 l 204 738 l 417 83 l 636 750 l 683 750 l 901 83 l 1110 738 l 1006 738 l 1006 782 l 1267 782 l 1267 738 l 1168 738 l 929 0 l 869 0 l 657 642 l 444 0 l 382 0 l 139 738 m 633 1044 l 688 1044 l 804 832 l 757 832 l 660 1010 l 563 832 l 515 832 l 633 1044 z "},"Ẅ":{"ha":1310,"x_min":43,"x_max":1267,"o":"m 139 738 l 43 738 l 43 782 l 310 782 l 310 738 l 204 738 l 417 83 l 636 750 l 683 750 l 901 83 l 1110 738 l 1006 738 l 1006 782 l 1267 782 l 1267 738 l 1168 738 l 929 0 l 869 0 l 657 642 l 444 0 l 382 0 l 139 738 m 542 864 q 513 875 524 864 q 501 904 501 886 q 513 933 501 922 q 542 943 524 943 q 572 933 561 943 q 583 904 583 922 q 572 875 583 886 q 542 864 561 864 m 778 864 q 747 874 758 864 q 736 903 736 885 q 747 932 736 921 q 778 943 758 943 q 807 932 796 943 q 818 903 818 921 q 807 874 818 885 q 778 864 796 864 z "},"Ẁ":{"ha":1310,"x_min":43,"x_max":1267,"o":"m 139 738 l 43 738 l 43 782 l 310 782 l 310 738 l 204 738 l 417 83 l 636 750 l 683 750 l 901 83 l 1110 738 l 1006 738 l 1006 782 l 1267 782 l 1267 738 l 1168 738 l 929 0 l 869 0 l 657 642 l 444 0 l 382 0 l 139 738 m 543 1053 l 610 1053 l 675 872 l 639 872 l 543 1053 z "},"X":{"ha":881,"x_min":64,"x_max":818,"o":"m 64 42 l 163 42 l 404 401 l 175 739 l 72 739 l 72 782 l 340 782 l 340 739 l 240 739 l 442 439 l 640 739 l 539 739 l 539 782 l 804 782 l 804 739 l 701 739 l 472 399 l 715 42 l 818 42 l 818 0 l 549 0 l 549 42 l 649 42 l 433 363 l 224 42 l 328 42 l 328 0 l 64 0 l 64 42 z "},"Y":{"ha":863,"x_min":13,"x_max":847,"o":"m 285 44 l 399 44 l 399 322 l 118 738 l 13 738 l 13 782 l 290 782 l 290 738 l 189 738 l 436 369 l 681 738 l 575 738 l 575 782 l 847 782 l 847 738 l 742 738 l 464 322 l 464 44 l 579 44 l 579 0 l 285 0 l 285 44 z "},"Ý":{"ha":863,"x_min":13,"x_max":847,"o":"m 285 44 l 399 44 l 399 322 l 118 738 l 13 738 l 13 782 l 290 782 l 290 738 l 189 738 l 436 369 l 681 738 l 575 738 l 575 782 l 847 782 l 847 738 l 742 738 l 464 322 l 464 44 l 579 44 l 579 0 l 285 0 l 285 44 m 488 1085 l 554 1085 l 458 904 l 422 904 l 488 1085 z "},"Ŷ":{"ha":863,"x_min":13,"x_max":847,"o":"m 285 44 l 399 44 l 399 322 l 118 738 l 13 738 l 13 782 l 290 782 l 290 738 l 189 738 l 436 369 l 681 738 l 575 738 l 575 782 l 847 782 l 847 738 l 742 738 l 464 322 l 464 44 l 579 44 l 579 0 l 285 0 l 285 44 m 411 1076 l 465 1076 l 582 864 l 535 864 l 438 1042 l 340 864 l 293 864 l 411 1076 z "},"Ÿ":{"ha":863,"x_min":13,"x_max":847,"o":"m 285 44 l 399 44 l 399 322 l 118 738 l 13 738 l 13 782 l 290 782 l 290 738 l 189 738 l 436 369 l 681 738 l 575 738 l 575 782 l 847 782 l 847 738 l 742 738 l 464 322 l 464 44 l 579 44 l 579 0 l 285 0 l 285 44 m 319 896 q 290 907 301 896 q 279 936 279 918 q 290 965 279 954 q 319 975 301 975 q 350 965 339 975 q 361 936 361 954 q 350 907 361 918 q 319 896 339 896 m 556 896 q 525 906 536 896 q 514 935 514 917 q 525 964 514 953 q 556 975 536 975 q 585 964 574 975 q 596 935 596 953 q 585 906 596 917 q 556 896 574 896 z "},"Ẏ":{"ha":863,"x_min":13,"x_max":847,"o":"m 285 44 l 399 44 l 399 322 l 118 738 l 13 738 l 13 782 l 290 782 l 290 738 l 189 738 l 436 369 l 681 738 l 575 738 l 575 782 l 847 782 l 847 738 l 742 738 l 464 322 l 464 44 l 579 44 l 579 0 l 285 0 l 285 44 m 438 896 q 401 910 415 896 q 388 942 388 924 q 401 975 388 961 q 438 989 414 989 q 474 976 461 989 q 488 942 488 963 q 474 910 488 925 q 438 896 460 896 z "},"Ỵ":{"ha":863,"x_min":13,"x_max":847,"o":"m 285 44 l 399 44 l 399 322 l 118 738 l 13 738 l 13 782 l 290 782 l 290 738 l 189 738 l 436 369 l 681 738 l 575 738 l 575 782 l 847 782 l 847 738 l 742 738 l 464 322 l 464 44 l 579 44 l 579 0 l 285 0 l 285 44 m 432 -164 q 396 -150 410 -164 q 382 -118 382 -136 q 395 -85 382 -99 q 432 -71 408 -71 q 469 -84 456 -71 q 482 -118 482 -97 q 468 -149 482 -135 q 432 -164 454 -164 z "},"Ỳ":{"ha":863,"x_min":13,"x_max":847,"o":"m 285 44 l 399 44 l 399 322 l 118 738 l 13 738 l 13 782 l 290 782 l 290 738 l 189 738 l 436 369 l 681 738 l 575 738 l 575 782 l 847 782 l 847 738 l 742 738 l 464 322 l 464 44 l 579 44 l 579 0 l 285 0 l 285 44 m 321 1085 l 388 1085 l 453 904 l 417 904 l 321 1085 z "},"Ỷ":{"ha":863,"x_min":13,"x_max":847,"o":"m 285 44 l 399 44 l 399 322 l 118 738 l 13 738 l 13 782 l 290 782 l 290 738 l 189 738 l 436 369 l 681 738 l 575 738 l 575 782 l 847 782 l 847 738 l 742 738 l 464 322 l 464 44 l 579 44 l 579 0 l 285 0 l 285 44 m 422 883 q 465 932 465 899 q 453 961 465 950 q 418 972 440 972 q 358 954 390 972 l 342 993 q 422 1014 383 1014 q 488 992 464 1014 q 513 935 513 969 q 438 843 513 869 l 422 883 z "},"Ȳ":{"ha":863,"x_min":13,"x_max":847,"o":"m 285 44 l 399 44 l 399 322 l 118 738 l 13 738 l 13 782 l 290 782 l 290 738 l 189 738 l 436 369 l 681 738 l 575 738 l 575 782 l 847 782 l 847 738 l 742 738 l 464 322 l 464 44 l 579 44 l 579 0 l 285 0 l 285 44 m 304 942 l 571 942 l 571 903 l 304 903 l 304 942 z "},"Ỹ":{"ha":863,"x_min":13,"x_max":847,"o":"m 285 44 l 399 44 l 399 322 l 118 738 l 13 738 l 13 782 l 290 782 l 290 738 l 189 738 l 436 369 l 681 738 l 575 738 l 575 782 l 847 782 l 847 738 l 742 738 l 464 322 l 464 44 l 579 44 l 579 0 l 285 0 l 285 44 m 515 901 q 477 908 497 901 q 431 929 457 915 q 388 949 406 942 q 356 956 371 956 q 317 904 318 956 l 285 904 q 306 975 286 949 q 361 1001 326 1001 q 397 994 379 1001 q 443 974 415 988 q 485 954 468 961 q 518 947 503 947 q 560 999 556 947 l 592 999 q 572 926 589 951 q 515 901 554 901 z "},"Z":{"ha":825,"x_min":93,"x_max":733,"o":"m 93 47 l 642 738 l 163 738 l 163 538 l 113 538 l 113 782 l 718 782 l 718 739 l 168 44 l 683 44 l 683 256 l 733 256 l 733 0 l 93 0 l 93 47 z "},"Ź":{"ha":825,"x_min":93,"x_max":733,"o":"m 93 47 l 642 738 l 163 738 l 163 538 l 113 538 l 113 782 l 718 782 l 718 739 l 168 44 l 683 44 l 683 256 l 733 256 l 733 0 l 93 0 l 93 47 m 467 1085 l 533 1085 l 438 904 l 401 904 l 467 1085 z "},"Ž":{"ha":825,"x_min":93,"x_max":733,"o":"m 93 47 l 642 738 l 163 738 l 163 538 l 113 538 l 113 782 l 718 782 l 718 739 l 168 44 l 683 44 l 683 256 l 733 256 l 733 0 l 93 0 l 93 47 m 275 1090 l 322 1090 l 417 922 l 511 1090 l 557 1090 l 442 882 l 393 882 l 275 1090 z "},"Ż":{"ha":825,"x_min":93,"x_max":733,"o":"m 93 47 l 642 738 l 163 738 l 163 538 l 113 538 l 113 782 l 718 782 l 718 739 l 168 44 l 683 44 l 683 256 l 733 256 l 733 0 l 93 0 l 93 47 m 417 896 q 381 910 394 896 q 367 942 367 924 q 380 975 367 961 q 417 989 393 989 q 453 976 440 989 q 467 942 467 963 q 453 910 467 925 q 417 896 439 896 z "},"Ẓ":{"ha":825,"x_min":93,"x_max":733,"o":"m 93 47 l 642 738 l 163 738 l 163 538 l 113 538 l 113 782 l 718 782 l 718 739 l 168 44 l 683 44 l 683 256 l 733 256 l 733 0 l 93 0 l 93 47 m 414 -164 q 378 -150 392 -164 q 364 -118 364 -136 q 377 -85 364 -99 q 414 -71 390 -71 q 451 -84 438 -71 q 464 -118 464 -97 q 450 -149 464 -135 q 414 -164 436 -164 z "},"a":{"ha":621,"x_min":56,"x_max":586,"o":"m 586 44 l 586 0 l 453 0 l 444 54 q 240 -15 336 -15 q 106 31 157 -15 q 56 147 56 76 q 111 272 56 233 q 256 311 167 311 q 442 289 319 311 l 442 363 q 401 476 442 438 q 292 514 361 514 q 199 501 249 514 q 103 468 149 489 l 85 510 q 190 547 135 535 q 290 560 244 560 q 450 506 399 560 q 501 374 501 453 l 501 44 l 586 44 m 113 149 q 148 63 113 97 q 246 28 183 28 q 337 44 292 28 q 442 96 382 60 l 442 250 q 258 272 344 272 q 153 242 194 272 q 113 149 113 213 z "},"á":{"ha":621,"x_min":56,"x_max":586,"o":"m 586 44 l 586 0 l 453 0 l 444 54 q 240 -15 336 -15 q 106 31 157 -15 q 56 147 56 76 q 111 272 56 233 q 256 311 167 311 q 442 289 319 311 l 442 363 q 401 476 442 438 q 292 514 361 514 q 199 501 249 514 q 103 468 149 489 l 85 510 q 190 547 135 535 q 290 560 244 560 q 450 506 399 560 q 501 374 501 453 l 501 44 l 586 44 m 113 149 q 148 63 113 97 q 246 28 183 28 q 337 44 292 28 q 442 96 382 60 l 442 250 q 258 272 344 272 q 153 242 194 272 q 113 149 113 213 m 353 849 l 419 849 l 324 668 l 288 668 l 353 849 z "},"ă":{"ha":621,"x_min":56,"x_max":586,"o":"m 586 44 l 586 0 l 453 0 l 444 54 q 240 -15 336 -15 q 106 31 157 -15 q 56 147 56 76 q 111 272 56 233 q 256 311 167 311 q 442 289 319 311 l 442 363 q 401 476 442 438 q 292 514 361 514 q 199 501 249 514 q 103 468 149 489 l 85 510 q 190 547 135 535 q 290 560 244 560 q 450 506 399 560 q 501 374 501 453 l 501 44 l 586 44 m 113 149 q 148 63 113 97 q 246 28 183 28 q 337 44 292 28 q 442 96 382 60 l 442 250 q 258 272 344 272 q 153 242 194 272 q 113 149 113 213 m 303 656 q 224 684 254 656 q 186 764 193 713 l 225 764 q 303 696 242 696 q 379 764 363 696 l 419 764 q 381 685 411 713 q 303 656 351 657 z "},"ắ":{"ha":621,"x_min":56,"x_max":586,"o":"m 586 44 l 586 0 l 453 0 l 444 54 q 240 -15 336 -15 q 106 31 157 -15 q 56 147 56 76 q 111 272 56 233 q 256 311 167 311 q 442 289 319 311 l 442 363 q 401 476 442 438 q 292 514 361 514 q 199 501 249 514 q 103 468 149 489 l 85 510 q 190 547 135 535 q 290 560 244 560 q 450 506 399 560 q 501 374 501 453 l 501 44 l 586 44 m 113 149 q 148 63 113 97 q 246 28 183 28 q 337 44 292 28 q 442 96 382 60 l 442 250 q 258 272 344 272 q 153 242 194 272 q 113 149 113 213 m 333 899 l 400 899 l 310 764 l 275 764 l 333 899 m 300 638 q 222 667 253 638 q 186 746 192 696 l 228 746 q 253 695 233 713 q 303 678 274 678 q 351 695 332 678 q 376 746 371 713 l 419 746 q 382 665 414 693 q 300 638 350 638 z "},"ặ":{"ha":621,"x_min":56,"x_max":586,"o":"m 586 44 l 586 0 l 453 0 l 444 54 q 240 -15 336 -15 q 106 31 157 -15 q 56 147 56 76 q 111 272 56 233 q 256 311 167 311 q 442 289 319 311 l 442 363 q 401 476 442 438 q 292 514 361 514 q 199 501 249 514 q 103 468 149 489 l 85 510 q 190 547 135 535 q 290 560 244 560 q 450 506 399 560 q 501 374 501 453 l 501 44 l 586 44 m 113 149 q 148 63 113 97 q 246 28 183 28 q 337 44 292 28 q 442 96 382 60 l 442 250 q 258 272 344 272 q 153 242 194 272 q 113 149 113 213 m 326 -164 q 290 -150 304 -164 q 276 -118 276 -136 q 290 -85 276 -99 q 326 -71 303 -71 q 363 -84 350 -71 q 376 -118 376 -97 q 363 -149 376 -135 q 326 -164 349 -164 m 303 656 q 224 684 254 656 q 186 764 193 713 l 225 764 q 303 696 242 696 q 379 764 363 696 l 419 764 q 381 685 411 713 q 303 656 351 657 z "},"ằ":{"ha":621,"x_min":56,"x_max":586,"o":"m 586 44 l 586 0 l 453 0 l 444 54 q 240 -15 336 -15 q 106 31 157 -15 q 56 147 56 76 q 111 272 56 233 q 256 311 167 311 q 442 289 319 311 l 442 363 q 401 476 442 438 q 292 514 361 514 q 199 501 249 514 q 103 468 149 489 l 85 510 q 190 547 135 535 q 290 560 244 560 q 450 506 399 560 q 501 374 501 453 l 501 44 l 586 44 m 113 149 q 148 63 113 97 q 246 28 183 28 q 337 44 292 28 q 442 96 382 60 l 442 250 q 258 272 344 272 q 153 242 194 272 q 113 149 113 213 m 204 899 l 271 899 l 329 764 l 294 764 l 204 899 m 300 638 q 222 667 253 638 q 186 746 192 696 l 228 746 q 253 695 233 713 q 303 678 274 678 q 351 695 332 678 q 376 746 371 713 l 419 746 q 382 665 414 693 q 300 638 350 638 z "},"ẳ":{"ha":621,"x_min":56,"x_max":586,"o":"m 586 44 l 586 0 l 453 0 l 444 54 q 240 -15 336 -15 q 106 31 157 -15 q 56 147 56 76 q 111 272 56 233 q 256 311 167 311 q 442 289 319 311 l 442 363 q 401 476 442 438 q 292 514 361 514 q 199 501 249 514 q 103 468 149 489 l 85 510 q 190 547 135 535 q 290 560 244 560 q 450 506 399 560 q 501 374 501 453 l 501 44 l 586 44 m 113 149 q 148 63 113 97 q 246 28 183 28 q 337 44 292 28 q 442 96 382 60 l 442 250 q 258 272 344 272 q 153 242 194 272 q 113 149 113 213 m 288 783 q 329 832 329 799 q 317 862 329 851 q 282 872 304 872 q 225 854 257 872 l 210 892 q 286 914 249 914 q 353 892 328 914 q 378 835 378 869 q 301 746 378 769 l 288 783 m 301 638 q 224 667 254 638 q 188 746 193 696 l 229 746 q 255 695 235 713 q 304 678 275 678 q 353 695 333 678 q 378 746 372 713 l 421 746 q 383 665 415 693 q 301 638 351 638 z "},"ẵ":{"ha":621,"x_min":56,"x_max":586,"o":"m 586 44 l 586 0 l 453 0 l 444 54 q 240 -15 336 -15 q 106 31 157 -15 q 56 147 56 76 q 111 272 56 233 q 256 311 167 311 q 442 289 319 311 l 442 363 q 401 476 442 438 q 292 514 361 514 q 199 501 249 514 q 103 468 149 489 l 85 510 q 190 547 135 535 q 290 560 244 560 q 450 506 399 560 q 501 374 501 453 l 501 44 l 586 44 m 113 149 q 148 63 113 97 q 246 28 183 28 q 337 44 292 28 q 442 96 382 60 l 442 250 q 258 272 344 272 q 153 242 194 272 q 113 149 113 213 m 372 786 q 338 792 354 786 q 294 810 322 797 q 226 832 247 832 q 190 789 194 832 l 158 789 q 181 854 160 831 q 235 878 201 878 q 268 872 251 878 q 310 854 285 865 q 344 839 326 846 q 375 832 363 832 q 414 875 410 832 l 446 875 q 372 786 443 786 m 300 638 q 222 667 253 638 q 186 746 192 696 l 228 746 q 253 695 233 713 q 303 678 274 678 q 351 695 332 678 q 376 746 371 713 l 419 746 q 382 665 414 693 q 300 638 350 638 z "},"ǎ":{"ha":621,"x_min":56,"x_max":586,"o":"m 586 44 l 586 0 l 453 0 l 444 54 q 240 -15 336 -15 q 106 31 157 -15 q 56 147 56 76 q 111 272 56 233 q 256 311 167 311 q 442 289 319 311 l 442 363 q 401 476 442 438 q 292 514 361 514 q 199 501 249 514 q 103 468 149 489 l 85 510 q 190 547 135 535 q 290 560 244 560 q 450 506 399 560 q 501 374 501 453 l 501 44 l 586 44 m 113 149 q 148 63 113 97 q 246 28 183 28 q 337 44 292 28 q 442 96 382 60 l 442 250 q 258 272 344 272 q 153 242 194 272 q 113 149 113 213 m 161 854 l 208 854 l 303 686 l 397 854 l 443 854 l 328 646 l 279 646 l 161 854 z "},"â":{"ha":621,"x_min":56,"x_max":586,"o":"m 586 44 l 586 0 l 453 0 l 444 54 q 240 -15 336 -15 q 106 31 157 -15 q 56 147 56 76 q 111 272 56 233 q 256 311 167 311 q 442 289 319 311 l 442 363 q 401 476 442 438 q 292 514 361 514 q 199 501 249 514 q 103 468 149 489 l 85 510 q 190 547 135 535 q 290 560 244 560 q 450 506 399 560 q 501 374 501 453 l 501 44 l 586 44 m 113 149 q 148 63 113 97 q 246 28 183 28 q 337 44 292 28 q 442 96 382 60 l 442 250 q 258 272 344 272 q 153 242 194 272 q 113 149 113 213 m 276 840 l 331 840 l 447 628 l 400 628 l 303 806 l 206 628 l 158 628 l 276 840 z "},"ấ":{"ha":621,"x_min":56,"x_max":586,"o":"m 586 44 l 586 0 l 453 0 l 444 54 q 240 -15 336 -15 q 106 31 157 -15 q 56 147 56 76 q 111 272 56 233 q 256 311 167 311 q 442 289 319 311 l 442 363 q 401 476 442 438 q 292 514 361 514 q 199 501 249 514 q 103 468 149 489 l 85 510 q 190 547 135 535 q 290 560 244 560 q 450 506 399 560 q 501 374 501 453 l 501 44 l 586 44 m 113 149 q 148 63 113 97 q 246 28 183 28 q 337 44 292 28 q 442 96 382 60 l 442 250 q 258 272 344 272 q 153 242 194 272 q 113 149 113 213 m 460 907 l 519 907 l 439 750 l 403 750 l 460 907 m 276 799 l 331 799 l 447 628 l 400 628 l 303 764 l 206 628 l 158 628 l 276 799 z "},"ậ":{"ha":621,"x_min":56,"x_max":586,"o":"m 586 44 l 586 0 l 453 0 l 444 54 q 240 -15 336 -15 q 106 31 157 -15 q 56 147 56 76 q 111 272 56 233 q 256 311 167 311 q 442 289 319 311 l 442 363 q 401 476 442 438 q 292 514 361 514 q 199 501 249 514 q 103 468 149 489 l 85 510 q 190 547 135 535 q 290 560 244 560 q 450 506 399 560 q 501 374 501 453 l 501 44 l 586 44 m 113 149 q 148 63 113 97 q 246 28 183 28 q 337 44 292 28 q 442 96 382 60 l 442 250 q 258 272 344 272 q 153 242 194 272 q 113 149 113 213 m 326 -164 q 290 -150 304 -164 q 276 -118 276 -136 q 290 -85 276 -99 q 326 -71 303 -71 q 363 -84 350 -71 q 376 -118 376 -97 q 363 -149 376 -135 q 326 -164 349 -164 m 276 840 l 331 840 l 447 628 l 400 628 l 303 806 l 206 628 l 158 628 l 276 840 z "},"ầ":{"ha":621,"x_min":56,"x_max":586,"o":"m 586 44 l 586 0 l 453 0 l 444 54 q 240 -15 336 -15 q 106 31 157 -15 q 56 147 56 76 q 111 272 56 233 q 256 311 167 311 q 442 289 319 311 l 442 363 q 401 476 442 438 q 292 514 361 514 q 199 501 249 514 q 103 468 149 489 l 85 510 q 190 547 135 535 q 290 560 244 560 q 450 506 399 560 q 501 374 501 453 l 501 44 l 586 44 m 113 149 q 148 63 113 97 q 246 28 183 28 q 337 44 292 28 q 442 96 382 60 l 442 250 q 258 272 344 272 q 153 242 194 272 q 113 149 113 213 m 424 750 l 343 907 l 403 907 l 460 750 l 424 750 m 276 799 l 331 799 l 447 628 l 400 628 l 303 764 l 206 628 l 158 628 l 276 799 z "},"ẩ":{"ha":621,"x_min":56,"x_max":586,"o":"m 586 44 l 586 0 l 453 0 l 444 54 q 240 -15 336 -15 q 106 31 157 -15 q 56 147 56 76 q 111 272 56 233 q 256 311 167 311 q 442 289 319 311 l 442 363 q 401 476 442 438 q 292 514 361 514 q 199 501 249 514 q 103 468 149 489 l 85 510 q 190 547 135 535 q 290 560 244 560 q 450 506 399 560 q 501 374 501 453 l 501 44 l 586 44 m 113 149 q 148 63 113 97 q 246 28 183 28 q 337 44 292 28 q 442 96 382 60 l 442 250 q 258 272 344 272 q 153 242 194 272 q 113 149 113 213 m 396 782 q 439 831 439 797 q 426 860 439 849 q 392 871 414 871 q 332 853 364 871 l 315 892 q 396 913 357 913 q 462 890 438 913 q 486 833 486 868 q 411 742 486 768 l 396 782 m 276 799 l 331 799 l 447 628 l 400 628 l 303 764 l 206 628 l 158 628 l 276 799 z "},"ẫ":{"ha":621,"x_min":56,"x_max":586,"o":"m 586 44 l 586 0 l 453 0 l 444 54 q 240 -15 336 -15 q 106 31 157 -15 q 56 147 56 76 q 111 272 56 233 q 256 311 167 311 q 442 289 319 311 l 442 363 q 401 476 442 438 q 292 514 361 514 q 199 501 249 514 q 103 468 149 489 l 85 510 q 190 547 135 535 q 290 560 244 560 q 450 506 399 560 q 501 374 501 453 l 501 44 l 586 44 m 113 149 q 148 63 113 97 q 246 28 183 28 q 337 44 292 28 q 442 96 382 60 l 442 250 q 258 272 344 272 q 153 242 194 272 q 113 149 113 213 m 372 825 q 338 831 354 825 q 294 849 322 836 q 226 871 247 871 q 190 828 194 871 l 158 828 q 181 892 160 868 q 235 917 201 917 q 268 910 251 917 q 310 893 285 904 q 344 878 326 885 q 375 871 363 871 q 414 914 410 871 l 446 914 q 372 825 443 825 m 276 799 l 331 799 l 447 628 l 400 628 l 303 764 l 206 628 l 158 628 l 276 799 z "},"ȁ":{"ha":621,"x_min":56,"x_max":586,"o":"m 586 44 l 586 0 l 453 0 l 444 54 q 240 -15 336 -15 q 106 31 157 -15 q 56 147 56 76 q 111 272 56 233 q 256 311 167 311 q 442 289 319 311 l 442 363 q 401 476 442 438 q 292 514 361 514 q 199 501 249 514 q 103 468 149 489 l 85 510 q 190 547 135 535 q 290 560 244 560 q 450 506 399 560 q 501 374 501 453 l 501 44 l 586 44 m 113 149 q 148 63 113 97 q 246 28 183 28 q 337 44 292 28 q 442 96 382 60 l 442 250 q 258 272 344 272 q 153 242 194 272 q 113 149 113 213 m 90 872 l 157 872 l 232 668 l 196 668 l 90 872 m 242 872 l 307 872 l 382 668 l 346 668 l 242 872 z "},"ä":{"ha":621,"x_min":56,"x_max":586,"o":"m 586 44 l 586 0 l 453 0 l 444 54 q 240 -15 336 -15 q 106 31 157 -15 q 56 147 56 76 q 111 272 56 233 q 256 311 167 311 q 442 289 319 311 l 442 363 q 401 476 442 438 q 292 514 361 514 q 199 501 249 514 q 103 468 149 489 l 85 510 q 190 547 135 535 q 290 560 244 560 q 450 506 399 560 q 501 374 501 453 l 501 44 l 586 44 m 113 149 q 148 63 113 97 q 246 28 183 28 q 337 44 292 28 q 442 96 382 60 l 442 250 q 258 272 344 272 q 153 242 194 272 q 113 149 113 213 m 185 660 q 156 671 167 660 q 144 700 144 682 q 156 728 144 718 q 185 739 167 739 q 215 728 204 739 q 226 700 226 718 q 215 671 226 682 q 185 660 204 660 m 421 660 q 390 670 401 660 q 379 699 379 681 q 390 728 379 717 q 421 739 401 739 q 450 728 439 739 q 461 699 461 717 q 450 670 461 681 q 421 660 439 660 z "},"ȧ":{"ha":621,"x_min":56,"x_max":586,"o":"m 586 44 l 586 0 l 453 0 l 444 54 q 240 -15 336 -15 q 106 31 157 -15 q 56 147 56 76 q 111 272 56 233 q 256 311 167 311 q 442 289 319 311 l 442 363 q 401 476 442 438 q 292 514 361 514 q 199 501 249 514 q 103 468 149 489 l 85 510 q 190 547 135 535 q 290 560 244 560 q 450 506 399 560 q 501 374 501 453 l 501 44 l 586 44 m 113 149 q 148 63 113 97 q 246 28 183 28 q 337 44 292 28 q 442 96 382 60 l 442 250 q 258 272 344 272 q 153 242 194 272 q 113 149 113 213 m 303 660 q 267 674 281 660 q 253 706 253 688 q 266 739 253 725 q 303 753 279 753 q 340 740 326 753 q 353 706 353 726 q 339 674 353 689 q 303 660 325 660 z "},"ạ":{"ha":621,"x_min":56,"x_max":586,"o":"m 586 44 l 586 0 l 453 0 l 444 54 q 240 -15 336 -15 q 106 31 157 -15 q 56 147 56 76 q 111 272 56 233 q 256 311 167 311 q 442 289 319 311 l 442 363 q 401 476 442 438 q 292 514 361 514 q 199 501 249 514 q 103 468 149 489 l 85 510 q 190 547 135 535 q 290 560 244 560 q 450 506 399 560 q 501 374 501 453 l 501 44 l 586 44 m 113 149 q 148 63 113 97 q 246 28 183 28 q 337 44 292 28 q 442 96 382 60 l 442 250 q 258 272 344 272 q 153 242 194 272 q 113 149 113 213 m 326 -164 q 290 -150 304 -164 q 276 -118 276 -136 q 290 -85 276 -99 q 326 -71 303 -71 q 363 -84 350 -71 q 376 -118 376 -97 q 363 -149 376 -135 q 326 -164 349 -164 z "},"à":{"ha":621,"x_min":56,"x_max":586,"o":"m 586 44 l 586 0 l 453 0 l 444 54 q 240 -15 336 -15 q 106 31 157 -15 q 56 147 56 76 q 111 272 56 233 q 256 311 167 311 q 442 289 319 311 l 442 363 q 401 476 442 438 q 292 514 361 514 q 199 501 249 514 q 103 468 149 489 l 85 510 q 190 547 135 535 q 290 560 244 560 q 450 506 399 560 q 501 374 501 453 l 501 44 l 586 44 m 113 149 q 148 63 113 97 q 246 28 183 28 q 337 44 292 28 q 442 96 382 60 l 442 250 q 258 272 344 272 q 153 242 194 272 q 113 149 113 213 m 186 849 l 253 849 l 318 668 l 282 668 l 186 849 z "},"ả":{"ha":621,"x_min":56,"x_max":586,"o":"m 586 44 l 586 0 l 453 0 l 444 54 q 240 -15 336 -15 q 106 31 157 -15 q 56 147 56 76 q 111 272 56 233 q 256 311 167 311 q 442 289 319 311 l 442 363 q 401 476 442 438 q 292 514 361 514 q 199 501 249 514 q 103 468 149 489 l 85 510 q 190 547 135 535 q 290 560 244 560 q 450 506 399 560 q 501 374 501 453 l 501 44 l 586 44 m 113 149 q 148 63 113 97 q 246 28 183 28 q 337 44 292 28 q 442 96 382 60 l 442 250 q 258 272 344 272 q 153 242 194 272 q 113 149 113 213 m 288 647 q 331 696 331 663 q 318 725 331 714 q 283 736 306 736 q 224 718 256 736 l 207 757 q 288 778 249 778 q 353 756 329 778 q 378 699 378 733 q 303 607 378 633 l 288 647 z "},"ȃ":{"ha":621,"x_min":56,"x_max":586,"o":"m 586 44 l 586 0 l 453 0 l 444 54 q 240 -15 336 -15 q 106 31 157 -15 q 56 147 56 76 q 111 272 56 233 q 256 311 167 311 q 442 289 319 311 l 442 363 q 401 476 442 438 q 292 514 361 514 q 199 501 249 514 q 103 468 149 489 l 85 510 q 190 547 135 535 q 290 560 244 560 q 450 506 399 560 q 501 374 501 453 l 501 44 l 586 44 m 113 149 q 148 63 113 97 q 246 28 183 28 q 337 44 292 28 q 442 96 382 60 l 442 250 q 258 272 344 272 q 153 242 194 272 q 113 149 113 213 m 182 646 q 223 729 192 700 q 303 758 254 758 q 384 728 353 758 q 422 646 415 699 l 378 646 q 303 711 361 711 q 228 646 243 711 l 182 646 z "},"ā":{"ha":621,"x_min":56,"x_max":586,"o":"m 586 44 l 586 0 l 453 0 l 444 54 q 240 -15 336 -15 q 106 31 157 -15 q 56 147 56 76 q 111 272 56 233 q 256 311 167 311 q 442 289 319 311 l 442 363 q 401 476 442 438 q 292 514 361 514 q 199 501 249 514 q 103 468 149 489 l 85 510 q 190 547 135 535 q 290 560 244 560 q 450 506 399 560 q 501 374 501 453 l 501 44 l 586 44 m 113 149 q 148 63 113 97 q 246 28 183 28 q 337 44 292 28 q 442 96 382 60 l 442 250 q 258 272 344 272 q 153 242 194 272 q 113 149 113 213 m 169 706 l 436 706 l 436 667 l 169 667 l 169 706 z "},"ą":{"ha":621,"x_min":56,"x_max":610,"o":"m 546 -178 q 610 -157 578 -178 l 610 -193 q 531 -219 571 -219 q 461 -195 489 -219 q 433 -131 433 -171 q 508 0 433 -67 l 453 0 l 444 54 q 240 -15 336 -15 q 106 31 157 -15 q 56 147 56 76 q 111 272 56 233 q 256 311 167 311 q 442 289 319 311 l 442 363 q 401 476 442 438 q 292 514 361 514 q 199 501 249 514 q 103 468 149 489 l 85 510 q 190 547 135 535 q 290 560 244 560 q 450 506 399 560 q 501 374 501 453 l 501 44 l 586 44 l 586 0 l 549 0 q 482 -117 482 -67 q 499 -162 482 -147 q 546 -178 517 -178 m 113 149 q 148 63 113 97 q 246 28 183 28 q 337 44 292 28 q 442 96 382 60 l 442 250 q 258 272 344 272 q 153 242 194 272 q 113 149 113 213 z "},"å":{"ha":621,"x_min":56,"x_max":586,"o":"m 586 44 l 586 0 l 453 0 l 444 54 q 240 -15 336 -15 q 106 31 157 -15 q 56 147 56 76 q 111 272 56 233 q 256 311 167 311 q 442 289 319 311 l 442 363 q 401 476 442 438 q 292 514 361 514 q 199 501 249 514 q 103 468 149 489 l 85 510 q 190 547 135 535 q 290 560 244 560 q 450 506 399 560 q 501 374 501 453 l 501 44 l 586 44 m 113 149 q 148 63 113 97 q 246 28 183 28 q 337 44 292 28 q 442 96 382 60 l 442 250 q 258 272 344 272 q 153 242 194 272 q 113 149 113 213 m 304 628 q 236 651 261 628 q 211 714 211 675 q 237 776 213 753 q 303 800 261 800 q 369 776 344 800 q 394 714 394 753 q 370 651 394 675 q 304 628 346 628 m 304 656 q 346 672 331 656 q 361 714 361 688 q 346 756 361 740 q 304 771 331 771 q 260 756 276 771 q 244 714 244 740 q 260 672 244 688 q 304 656 276 656 z "},"ǻ":{"ha":621,"x_min":56,"x_max":586,"o":"m 586 44 l 586 0 l 453 0 l 444 54 q 240 -15 336 -15 q 106 31 157 -15 q 56 147 56 76 q 111 272 56 233 q 256 311 167 311 q 442 289 319 311 l 442 363 q 401 476 442 438 q 292 514 361 514 q 199 501 249 514 q 103 468 149 489 l 85 510 q 190 547 135 535 q 290 560 244 560 q 450 506 399 560 q 501 374 501 453 l 501 44 l 586 44 m 113 149 q 148 63 113 97 q 246 28 183 28 q 337 44 292 28 q 442 96 382 60 l 442 250 q 258 272 344 272 q 153 242 194 272 q 113 149 113 213 m 304 628 q 236 651 261 628 q 211 714 211 675 q 237 776 213 753 q 303 800 261 800 q 369 776 344 800 q 394 714 394 753 q 370 651 394 675 q 304 628 346 628 m 304 656 q 346 672 331 656 q 361 714 361 688 q 346 756 361 740 q 304 771 331 771 q 260 756 276 771 q 244 714 244 740 q 260 672 244 688 q 304 656 276 656 m 353 1031 l 419 1031 l 324 850 l 288 850 l 353 1031 z "},"ã":{"ha":621,"x_min":56,"x_max":586,"o":"m 586 44 l 586 0 l 453 0 l 444 54 q 240 -15 336 -15 q 106 31 157 -15 q 56 147 56 76 q 111 272 56 233 q 256 311 167 311 q 442 289 319 311 l 442 363 q 401 476 442 438 q 292 514 361 514 q 199 501 249 514 q 103 468 149 489 l 85 510 q 190 547 135 535 q 290 560 244 560 q 450 506 399 560 q 501 374 501 453 l 501 44 l 586 44 m 113 149 q 148 63 113 97 q 246 28 183 28 q 337 44 292 28 q 442 96 382 60 l 442 250 q 258 272 344 272 q 153 242 194 272 q 113 149 113 213 m 381 665 q 342 672 363 665 q 296 693 322 679 q 253 713 271 706 q 221 719 236 719 q 182 668 183 719 l 150 668 q 172 739 151 713 q 226 765 192 765 q 263 758 244 765 q 308 738 281 751 q 351 718 333 725 q 383 711 368 711 q 425 763 421 711 l 457 763 q 437 690 454 715 q 381 665 419 665 z "},"æ":{"ha":1056,"x_min":56,"x_max":989,"o":"m 247 -15 q 108 27 160 -15 q 56 140 56 69 q 117 262 56 224 q 278 300 179 300 l 442 300 l 442 363 q 401 476 442 438 q 292 514 361 514 q 199 501 249 514 q 103 468 149 489 l 85 510 q 190 547 135 535 q 290 560 244 560 q 424 522 376 560 q 488 426 472 485 q 588 526 524 492 q 726 561 651 561 q 916 486 843 561 q 989 274 989 411 l 989 258 l 503 258 q 574 94 508 157 q 736 32 639 32 q 859 59 799 32 q 957 129 919 86 l 978 88 q 868 12 931 39 q 736 -15 806 -15 q 592 19 658 -15 q 488 115 525 53 q 387 18 449 51 q 247 -15 325 -15 m 931 300 q 872 460 931 403 q 726 517 813 517 q 572 458 636 517 q 503 300 508 399 l 931 300 m 253 28 q 378 61 322 28 q 464 160 433 94 q 442 258 446 204 l 281 258 q 160 231 207 258 q 113 142 113 203 q 149 58 113 89 q 253 28 185 28 z "},"ǽ":{"ha":1056,"x_min":56,"x_max":989,"o":"m 247 -15 q 108 27 160 -15 q 56 140 56 69 q 117 262 56 224 q 278 300 179 300 l 442 300 l 442 363 q 401 476 442 438 q 292 514 361 514 q 199 501 249 514 q 103 468 149 489 l 85 510 q 190 547 135 535 q 290 560 244 560 q 424 522 376 560 q 488 426 472 485 q 588 526 524 492 q 726 561 651 561 q 916 486 843 561 q 989 274 989 411 l 989 258 l 503 258 q 574 94 508 157 q 736 32 639 32 q 859 59 799 32 q 957 129 919 86 l 978 88 q 868 12 931 39 q 736 -15 806 -15 q 592 19 658 -15 q 488 115 525 53 q 387 18 449 51 q 247 -15 325 -15 m 931 300 q 872 460 931 403 q 726 517 813 517 q 572 458 636 517 q 503 300 508 399 l 931 300 m 253 28 q 378 61 322 28 q 464 160 433 94 q 442 258 446 204 l 281 258 q 160 231 207 258 q 113 142 113 203 q 149 58 113 89 q 253 28 185 28 m 546 849 l 613 849 l 517 668 l 481 668 l 546 849 z "},"ǣ":{"ha":1056,"x_min":56,"x_max":989,"o":"m 247 -15 q 108 27 160 -15 q 56 140 56 69 q 117 262 56 224 q 278 300 179 300 l 442 300 l 442 363 q 401 476 442 438 q 292 514 361 514 q 199 501 249 514 q 103 468 149 489 l 85 510 q 190 547 135 535 q 290 560 244 560 q 424 522 376 560 q 488 426 472 485 q 588 526 524 492 q 726 561 651 561 q 916 486 843 561 q 989 274 989 411 l 989 258 l 503 258 q 574 94 508 157 q 736 32 639 32 q 859 59 799 32 q 957 129 919 86 l 978 88 q 868 12 931 39 q 736 -15 806 -15 q 592 19 658 -15 q 488 115 525 53 q 387 18 449 51 q 247 -15 325 -15 m 931 300 q 872 460 931 403 q 726 517 813 517 q 572 458 636 517 q 503 300 508 399 l 931 300 m 253 28 q 378 61 322 28 q 464 160 433 94 q 442 258 446 204 l 281 258 q 160 231 207 258 q 113 142 113 203 q 149 58 113 89 q 253 28 185 28 m 363 706 l 629 706 l 629 667 l 363 667 l 363 706 z "},"b":{"ha":713,"x_min":40,"x_max":674,"o":"m 399 560 q 598 485 522 560 q 674 279 674 410 q 637 122 674 189 q 535 20 600 56 q 386 -15 469 -15 q 285 3 333 -15 q 199 58 236 22 l 199 0 l 40 0 l 40 44 l 138 44 l 138 751 l 44 751 l 44 796 l 199 796 l 199 489 q 296 541 243 522 q 399 560 349 560 m 378 31 q 547 95 483 31 q 611 271 611 160 q 550 449 611 383 q 388 514 489 514 q 292 495 343 514 q 199 442 242 476 l 199 104 q 285 50 238 69 q 378 31 332 31 z "},"ḃ":{"ha":713,"x_min":40,"x_max":674,"o":"m 399 560 q 598 485 522 560 q 674 279 674 410 q 637 122 674 189 q 535 20 600 56 q 386 -15 469 -15 q 285 3 333 -15 q 199 58 236 22 l 199 0 l 40 0 l 40 44 l 138 44 l 138 751 l 44 751 l 44 796 l 199 796 l 199 489 q 296 541 243 522 q 399 560 349 560 m 378 31 q 547 95 483 31 q 611 271 611 160 q 550 449 611 383 q 388 514 489 514 q 292 495 343 514 q 199 442 242 476 l 199 104 q 285 50 238 69 q 378 31 332 31 m 418 660 q 382 674 396 660 q 368 706 368 688 q 381 739 368 725 q 418 753 394 753 q 455 740 442 753 q 468 706 468 726 q 454 674 468 689 q 418 660 440 660 z "},"c":{"ha":650,"x_min":40,"x_max":564,"o":"m 564 89 q 326 -15 471 -15 q 178 22 243 -15 q 76 125 113 58 q 40 275 40 192 q 76 423 40 358 q 177 524 113 488 q 324 560 242 560 q 435 535 385 560 q 510 471 485 511 l 510 547 l 563 547 l 563 375 l 515 375 q 455 476 504 438 q 333 514 406 514 q 214 483 267 514 q 131 398 161 453 q 101 275 101 343 q 131 150 101 206 q 212 64 160 94 q 331 33 264 33 q 444 56 396 33 q 540 128 492 79 l 564 89 z "},"ć":{"ha":650,"x_min":40,"x_max":564,"o":"m 564 89 q 326 -15 471 -15 q 178 22 243 -15 q 76 125 113 58 q 40 275 40 192 q 76 423 40 358 q 177 524 113 488 q 324 560 242 560 q 435 535 385 560 q 510 471 485 511 l 510 547 l 563 547 l 563 375 l 515 375 q 455 476 504 438 q 333 514 406 514 q 214 483 267 514 q 131 398 161 453 q 101 275 101 343 q 131 150 101 206 q 212 64 160 94 q 331 33 264 33 q 444 56 396 33 q 540 128 492 79 l 564 89 m 382 849 l 449 849 l 353 668 l 317 668 l 382 849 z "},"č":{"ha":650,"x_min":40,"x_max":564,"o":"m 564 89 q 326 -15 471 -15 q 178 22 243 -15 q 76 125 113 58 q 40 275 40 192 q 76 423 40 358 q 177 524 113 488 q 324 560 242 560 q 435 535 385 560 q 510 471 485 511 l 510 547 l 563 547 l 563 375 l 515 375 q 455 476 504 438 q 333 514 406 514 q 214 483 267 514 q 131 398 161 453 q 101 275 101 343 q 131 150 101 206 q 212 64 160 94 q 331 33 264 33 q 444 56 396 33 q 540 128 492 79 l 564 89 m 190 854 l 238 854 l 332 686 l 426 854 l 472 854 l 357 646 l 308 646 l 190 854 z "},"ç":{"ha":650,"x_min":40,"x_max":564,"o":"m 324 -15 l 304 -79 q 372 -100 349 -81 q 396 -149 396 -119 q 372 -199 396 -182 q 308 -215 347 -215 q 222 -194 267 -215 l 222 -167 q 286 -178 254 -178 q 339 -146 339 -178 q 320 -118 339 -128 q 257 -107 301 -108 l 292 -14 q 110 77 179 -3 q 40 275 40 157 q 76 423 40 358 q 177 524 113 488 q 324 560 242 560 q 435 535 385 560 q 510 471 485 511 l 510 547 l 563 547 l 563 375 l 515 375 q 455 476 504 438 q 333 514 406 514 q 214 483 267 514 q 131 398 161 453 q 101 275 101 343 q 131 150 101 206 q 212 64 160 94 q 331 33 264 33 q 444 56 396 33 q 540 128 492 79 l 564 89 q 326 -15 471 -15 l 324 -15 z "},"ḉ":{"ha":650,"x_min":40,"x_max":564,"o":"m 353 668 l 317 668 l 382 849 l 449 849 l 353 668 m 324 -15 l 304 -79 q 372 -100 349 -81 q 396 -149 396 -119 q 372 -199 396 -182 q 308 -215 347 -215 q 222 -194 267 -215 l 222 -167 q 286 -178 254 -178 q 339 -146 339 -178 q 320 -118 339 -128 q 257 -107 301 -108 l 292 -14 q 110 77 179 -3 q 40 275 40 157 q 76 423 40 358 q 177 524 113 488 q 324 560 242 560 q 435 535 385 560 q 510 471 485 511 l 510 547 l 563 547 l 563 375 l 515 375 q 455 476 504 438 q 333 514 406 514 q 214 483 267 514 q 131 398 161 453 q 101 275 101 343 q 131 150 101 206 q 212 64 160 94 q 331 33 264 33 q 444 56 396 33 q 540 128 492 79 l 564 89 q 326 -15 471 -15 l 324 -15 z "},"ĉ":{"ha":650,"x_min":40,"x_max":564,"o":"m 564 89 q 326 -15 471 -15 q 178 22 243 -15 q 76 125 113 58 q 40 275 40 192 q 76 423 40 358 q 177 524 113 488 q 324 560 242 560 q 435 535 385 560 q 510 471 485 511 l 510 547 l 563 547 l 563 375 l 515 375 q 455 476 504 438 q 333 514 406 514 q 214 483 267 514 q 131 398 161 453 q 101 275 101 343 q 131 150 101 206 q 212 64 160 94 q 331 33 264 33 q 444 56 396 33 q 540 128 492 79 l 564 89 m 306 840 l 360 840 l 476 628 l 429 628 l 332 806 l 235 628 l 188 628 l 306 840 z "},"ċ":{"ha":650,"x_min":40,"x_max":564,"o":"m 564 89 q 326 -15 471 -15 q 178 22 243 -15 q 76 125 113 58 q 40 275 40 192 q 76 423 40 358 q 177 524 113 488 q 324 560 242 560 q 435 535 385 560 q 510 471 485 511 l 510 547 l 563 547 l 563 375 l 515 375 q 455 476 504 438 q 333 514 406 514 q 214 483 267 514 q 131 398 161 453 q 101 275 101 343 q 131 150 101 206 q 212 64 160 94 q 331 33 264 33 q 444 56 396 33 q 540 128 492 79 l 564 89 m 332 660 q 296 674 310 660 q 282 706 282 688 q 295 739 282 725 q 332 753 308 753 q 369 740 356 753 q 382 706 382 726 q 368 674 382 689 q 332 660 354 660 z "},"d":{"ha":697,"x_min":40,"x_max":671,"o":"m 671 44 l 671 0 l 519 0 l 519 53 q 326 -15 436 -15 q 181 21 246 -15 q 78 122 115 57 q 40 274 40 188 q 77 424 40 360 q 178 524 114 489 q 321 560 242 560 q 428 542 375 560 q 519 492 481 525 l 519 751 l 425 751 l 425 796 l 579 796 l 579 44 l 671 44 m 103 267 q 168 97 103 161 q 336 32 233 32 q 519 99 435 32 l 519 444 q 329 514 435 514 q 166 447 229 514 q 103 267 103 379 z "},"ð":{"ha":628,"x_min":40,"x_max":579,"o":"m 358 713 q 519 500 460 610 q 579 269 579 390 q 543 119 579 183 q 446 19 507 54 q 311 -15 385 -15 q 163 22 224 -15 q 71 121 101 60 q 40 254 40 182 q 73 394 40 333 q 165 490 106 456 q 303 524 225 524 q 417 501 368 524 q 496 440 465 478 q 310 692 438 564 l 129 613 l 108 654 l 275 726 q 90 886 217 781 l 122 922 q 174 879 115 928 q 324 747 267 803 l 496 821 l 517 782 l 358 713 m 311 36 q 469 103 417 36 q 522 263 522 169 q 460 422 522 365 q 308 478 397 478 q 205 452 253 478 q 128 376 157 426 q 100 257 100 326 q 124 149 100 200 q 194 67 147 99 q 311 36 242 36 z "},"ď":{"ha":719,"x_min":40,"x_max":724,"o":"m 671 44 l 671 0 l 519 0 l 519 53 q 326 -15 436 -15 q 181 21 246 -15 q 78 122 115 57 q 40 274 40 188 q 77 424 40 360 q 178 524 114 489 q 321 560 242 560 q 428 542 375 560 q 519 492 481 525 l 519 751 l 425 751 l 425 796 l 579 796 l 579 44 l 671 44 m 103 267 q 168 97 103 161 q 336 32 233 32 q 519 99 435 32 l 519 444 q 329 514 435 514 q 166 447 229 514 q 103 267 103 379 m 631 614 q 674 638 663 619 q 686 706 686 656 l 635 706 l 635 796 l 724 796 l 722 703 q 631 588 725 588 l 631 614 z "},"đ":{"ha":697,"x_min":40,"x_max":671,"o":"m 579 647 l 579 44 l 671 44 l 671 0 l 519 0 l 519 53 q 326 -15 436 -15 q 181 21 246 -15 q 78 122 115 57 q 40 274 40 188 q 77 424 40 360 q 178 524 114 489 q 321 560 242 560 q 428 542 375 560 q 519 492 481 525 l 519 647 l 319 647 l 319 686 l 519 686 l 519 797 l 579 797 l 579 686 l 671 686 l 671 647 l 579 647 m 103 267 q 168 97 103 161 q 336 32 233 32 q 519 99 435 32 l 519 444 q 329 514 435 514 q 166 447 229 514 q 103 267 103 379 z "},"ḋ":{"ha":697,"x_min":40,"x_max":671,"o":"m 671 44 l 671 0 l 519 0 l 519 53 q 326 -15 436 -15 q 181 21 246 -15 q 78 122 115 57 q 40 274 40 188 q 77 424 40 360 q 178 524 114 489 q 321 560 242 560 q 428 542 375 560 q 519 492 481 525 l 519 751 l 425 751 l 425 796 l 579 796 l 579 44 l 671 44 m 103 267 q 168 97 103 161 q 336 32 233 32 q 519 99 435 32 l 519 444 q 329 514 435 514 q 166 447 229 514 q 103 267 103 379 m 550 910 q 514 924 528 910 q 500 956 500 938 q 513 989 500 975 q 550 1003 526 1003 q 587 990 574 1003 q 600 956 600 976 q 586 924 600 939 q 550 910 572 910 z "},"ḍ":{"ha":697,"x_min":40,"x_max":671,"o":"m 671 44 l 671 0 l 519 0 l 519 53 q 326 -15 436 -15 q 181 21 246 -15 q 78 122 115 57 q 40 274 40 188 q 77 424 40 360 q 178 524 114 489 q 321 560 242 560 q 428 542 375 560 q 519 492 481 525 l 519 751 l 425 751 l 425 796 l 579 796 l 579 44 l 671 44 m 103 267 q 168 97 103 161 q 336 32 233 32 q 519 99 435 32 l 519 444 q 329 514 435 514 q 166 447 229 514 q 103 267 103 379 m 368 -164 q 332 -150 346 -164 q 318 -118 318 -136 q 331 -85 318 -99 q 368 -71 344 -71 q 405 -84 392 -71 q 418 -118 418 -97 q 404 -149 418 -135 q 368 -164 390 -164 z "},"ḏ":{"ha":697,"x_min":40,"x_max":671,"o":"m 671 44 l 671 0 l 519 0 l 519 53 q 326 -15 436 -15 q 181 21 246 -15 q 78 122 115 57 q 40 274 40 188 q 77 424 40 360 q 178 524 114 489 q 321 560 242 560 q 428 542 375 560 q 519 492 481 525 l 519 751 l 425 751 l 425 796 l 579 796 l 579 44 l 671 44 m 103 267 q 168 97 103 161 q 336 32 233 32 q 519 99 435 32 l 519 444 q 329 514 435 514 q 166 447 229 514 q 103 267 103 379 m 235 -65 l 501 -65 l 501 -104 l 235 -104 l 235 -65 z "},"ǳ":{"ha":1328,"x_min":40,"x_max":1238,"o":"m 671 44 l 671 0 l 519 0 l 519 53 q 326 -15 436 -15 q 181 21 246 -15 q 78 122 115 57 q 40 274 40 188 q 77 424 40 360 q 178 524 114 489 q 321 560 242 560 q 428 542 375 560 q 519 492 481 525 l 519 751 l 425 751 l 425 796 l 579 796 l 579 44 l 671 44 m 103 267 q 168 97 103 161 q 336 32 233 32 q 519 99 435 32 l 519 444 q 329 514 435 514 q 166 447 229 514 q 103 267 103 379 m 786 47 l 1164 503 l 850 503 l 850 378 l 800 378 l 800 546 l 1229 546 l 1229 494 l 857 42 l 1188 42 l 1188 185 l 1238 185 l 1238 0 l 786 0 l 786 47 z "},"ǆ":{"ha":1328,"x_min":40,"x_max":1238,"o":"m 671 44 l 671 0 l 519 0 l 519 53 q 326 -15 436 -15 q 181 21 246 -15 q 78 122 115 57 q 40 274 40 188 q 77 424 40 360 q 178 524 114 489 q 321 560 242 560 q 428 542 375 560 q 519 492 481 525 l 519 751 l 425 751 l 425 796 l 579 796 l 579 44 l 671 44 m 103 267 q 168 97 103 161 q 336 32 233 32 q 519 99 435 32 l 519 444 q 329 514 435 514 q 166 447 229 514 q 103 267 103 379 m 786 47 l 1164 503 l 850 503 l 850 378 l 800 378 l 800 546 l 1229 546 l 1229 494 l 857 42 l 1188 42 l 1188 185 l 1238 185 l 1238 0 l 786 0 l 786 47 m 879 854 l 926 854 l 1021 686 l 1115 854 l 1161 854 l 1046 646 l 997 646 l 879 854 z "},"e":{"ha":653,"x_min":39,"x_max":588,"o":"m 588 258 l 101 258 q 173 94 108 157 q 333 32 238 32 q 456 59 396 32 q 554 129 517 86 l 575 88 q 465 12 528 39 q 333 -15 403 -15 q 187 20 254 -15 q 79 122 119 56 q 39 274 39 188 q 78 428 39 363 q 181 527 117 493 q 321 561 246 561 q 513 486 439 561 q 588 274 588 411 l 588 258 m 529 300 q 469 460 529 403 q 321 517 408 517 q 170 458 232 517 q 101 300 108 399 l 529 300 z "},"é":{"ha":653,"x_min":39,"x_max":588,"o":"m 588 258 l 101 258 q 173 94 108 157 q 333 32 238 32 q 456 59 396 32 q 554 129 517 86 l 575 88 q 465 12 528 39 q 333 -15 403 -15 q 187 20 254 -15 q 79 122 119 56 q 39 274 39 188 q 78 428 39 363 q 181 527 117 493 q 321 561 246 561 q 513 486 439 561 q 588 274 588 411 l 588 258 m 529 300 q 469 460 529 403 q 321 517 408 517 q 170 458 232 517 q 101 300 108 399 l 529 300 m 379 849 l 446 849 l 350 668 l 314 668 l 379 849 z "},"ĕ":{"ha":653,"x_min":39,"x_max":588,"o":"m 588 258 l 101 258 q 173 94 108 157 q 333 32 238 32 q 456 59 396 32 q 554 129 517 86 l 575 88 q 465 12 528 39 q 333 -15 403 -15 q 187 20 254 -15 q 79 122 119 56 q 39 274 39 188 q 78 428 39 363 q 181 527 117 493 q 321 561 246 561 q 513 486 439 561 q 588 274 588 411 l 588 258 m 529 300 q 469 460 529 403 q 321 517 408 517 q 170 458 232 517 q 101 300 108 399 l 529 300 m 329 656 q 250 684 281 656 q 213 764 219 713 l 251 764 q 329 696 268 696 q 406 764 389 696 l 446 764 q 408 685 438 713 q 329 656 378 657 z "},"ě":{"ha":653,"x_min":39,"x_max":588,"o":"m 588 258 l 101 258 q 173 94 108 157 q 333 32 238 32 q 456 59 396 32 q 554 129 517 86 l 575 88 q 465 12 528 39 q 333 -15 403 -15 q 187 20 254 -15 q 79 122 119 56 q 39 274 39 188 q 78 428 39 363 q 181 527 117 493 q 321 561 246 561 q 513 486 439 561 q 588 274 588 411 l 588 258 m 529 300 q 469 460 529 403 q 321 517 408 517 q 170 458 232 517 q 101 300 108 399 l 529 300 m 188 854 l 235 854 l 329 686 l 424 854 l 469 854 l 354 646 l 306 646 l 188 854 z "},"ȩ":{"ha":653,"x_min":39,"x_max":588,"o":"m 588 258 l 101 258 q 173 94 108 157 q 333 32 238 32 q 456 59 396 32 q 554 129 517 86 l 575 88 q 469 13 529 40 q 342 -15 408 -14 l 322 -79 q 390 -100 367 -81 q 414 -149 414 -119 q 390 -199 414 -182 q 326 -215 365 -215 q 240 -194 285 -215 l 240 -167 q 304 -178 272 -178 q 357 -146 357 -178 q 338 -118 357 -128 q 275 -107 319 -108 l 310 -14 q 173 28 235 -8 q 75 127 111 64 q 39 274 39 190 q 78 428 39 363 q 181 527 117 493 q 321 561 246 561 q 513 486 439 561 q 588 274 588 411 l 588 258 m 529 300 q 469 460 529 403 q 321 517 408 517 q 170 458 232 517 q 101 300 108 399 l 529 300 z "},"ḝ":{"ha":653,"x_min":39,"x_max":588,"o":"m 329 656 q 250 684 281 656 q 213 764 219 713 l 251 764 q 329 696 268 696 q 406 764 389 696 l 446 764 q 408 685 438 713 q 329 656 378 657 m 588 258 l 101 258 q 173 94 108 157 q 333 32 238 32 q 456 59 396 32 q 554 129 517 86 l 575 88 q 469 13 529 40 q 342 -15 408 -14 l 322 -79 q 390 -100 367 -81 q 414 -149 414 -119 q 390 -199 414 -182 q 326 -215 365 -215 q 240 -194 285 -215 l 240 -167 q 304 -178 272 -178 q 357 -146 357 -178 q 338 -118 357 -128 q 275 -107 319 -108 l 310 -14 q 173 28 235 -8 q 75 127 111 64 q 39 274 39 190 q 78 428 39 363 q 181 527 117 493 q 321 561 246 561 q 513 486 439 561 q 588 274 588 411 l 588 258 m 529 300 q 469 460 529 403 q 321 517 408 517 q 170 458 232 517 q 101 300 108 399 l 529 300 z "},"ê":{"ha":653,"x_min":39,"x_max":588,"o":"m 588 258 l 101 258 q 173 94 108 157 q 333 32 238 32 q 456 59 396 32 q 554 129 517 86 l 575 88 q 465 12 528 39 q 333 -15 403 -15 q 187 20 254 -15 q 79 122 119 56 q 39 274 39 188 q 78 428 39 363 q 181 527 117 493 q 321 561 246 561 q 513 486 439 561 q 588 274 588 411 l 588 258 m 529 300 q 469 460 529 403 q 321 517 408 517 q 170 458 232 517 q 101 300 108 399 l 529 300 m 303 840 l 357 840 l 474 628 l 426 628 l 329 806 l 232 628 l 185 628 l 303 840 z "},"ế":{"ha":653,"x_min":39,"x_max":588,"o":"m 588 258 l 101 258 q 173 94 108 157 q 333 32 238 32 q 456 59 396 32 q 554 129 517 86 l 575 88 q 465 12 528 39 q 333 -15 403 -15 q 187 20 254 -15 q 79 122 119 56 q 39 274 39 188 q 78 428 39 363 q 181 527 117 493 q 321 561 246 561 q 513 486 439 561 q 588 274 588 411 l 588 258 m 529 300 q 469 460 529 403 q 321 517 408 517 q 170 458 232 517 q 101 300 108 399 l 529 300 m 486 907 l 546 907 l 465 750 l 429 750 l 486 907 m 303 799 l 357 799 l 474 628 l 426 628 l 329 764 l 232 628 l 185 628 l 303 799 z "},"ệ":{"ha":653,"x_min":39,"x_max":588,"o":"m 588 258 l 101 258 q 173 94 108 157 q 333 32 238 32 q 456 59 396 32 q 554 129 517 86 l 575 88 q 465 12 528 39 q 333 -15 403 -15 q 187 20 254 -15 q 79 122 119 56 q 39 274 39 188 q 78 428 39 363 q 181 527 117 493 q 321 561 246 561 q 513 486 439 561 q 588 274 588 411 l 588 258 m 529 300 q 469 460 529 403 q 321 517 408 517 q 170 458 232 517 q 101 300 108 399 l 529 300 m 331 -164 q 294 -150 308 -164 q 281 -118 281 -136 q 294 -85 281 -99 q 331 -71 307 -71 q 367 -84 354 -71 q 381 -118 381 -97 q 367 -149 381 -135 q 331 -164 353 -164 m 303 840 l 357 840 l 474 628 l 426 628 l 329 806 l 232 628 l 185 628 l 303 840 z "},"ề":{"ha":653,"x_min":39,"x_max":588,"o":"m 588 258 l 101 258 q 173 94 108 157 q 333 32 238 32 q 456 59 396 32 q 554 129 517 86 l 575 88 q 465 12 528 39 q 333 -15 403 -15 q 187 20 254 -15 q 79 122 119 56 q 39 274 39 188 q 78 428 39 363 q 181 527 117 493 q 321 561 246 561 q 513 486 439 561 q 588 274 588 411 l 588 258 m 529 300 q 469 460 529 403 q 321 517 408 517 q 170 458 232 517 q 101 300 108 399 l 529 300 m 450 750 l 369 907 l 429 907 l 486 750 l 450 750 m 303 799 l 357 799 l 474 628 l 426 628 l 329 764 l 232 628 l 185 628 l 303 799 z "},"ể":{"ha":653,"x_min":39,"x_max":588,"o":"m 588 258 l 101 258 q 173 94 108 157 q 333 32 238 32 q 456 59 396 32 q 554 129 517 86 l 575 88 q 465 12 528 39 q 333 -15 403 -15 q 187 20 254 -15 q 79 122 119 56 q 39 274 39 188 q 78 428 39 363 q 181 527 117 493 q 321 561 246 561 q 513 486 439 561 q 588 274 588 411 l 588 258 m 529 300 q 469 460 529 403 q 321 517 408 517 q 170 458 232 517 q 101 300 108 399 l 529 300 m 422 782 q 465 831 465 797 q 453 860 465 849 q 418 871 440 871 q 358 853 390 871 l 342 892 q 422 913 383 913 q 488 890 464 913 q 513 833 513 868 q 438 742 513 768 l 422 782 m 303 799 l 357 799 l 474 628 l 426 628 l 329 764 l 232 628 l 185 628 l 303 799 z "},"ễ":{"ha":653,"x_min":39,"x_max":588,"o":"m 588 258 l 101 258 q 173 94 108 157 q 333 32 238 32 q 456 59 396 32 q 554 129 517 86 l 575 88 q 465 12 528 39 q 333 -15 403 -15 q 187 20 254 -15 q 79 122 119 56 q 39 274 39 188 q 78 428 39 363 q 181 527 117 493 q 321 561 246 561 q 513 486 439 561 q 588 274 588 411 l 588 258 m 529 300 q 469 460 529 403 q 321 517 408 517 q 170 458 232 517 q 101 300 108 399 l 529 300 m 399 825 q 365 831 381 825 q 321 849 349 836 q 253 871 274 871 q 217 828 221 871 l 185 828 q 207 892 186 868 q 261 917 228 917 q 294 910 278 917 q 336 893 311 904 q 371 878 353 885 q 401 871 389 871 q 440 914 436 871 l 472 914 q 399 825 469 825 m 303 799 l 357 799 l 474 628 l 426 628 l 329 764 l 232 628 l 185 628 l 303 799 z "},"ȅ":{"ha":653,"x_min":39,"x_max":588,"o":"m 588 258 l 101 258 q 173 94 108 157 q 333 32 238 32 q 456 59 396 32 q 554 129 517 86 l 575 88 q 465 12 528 39 q 333 -15 403 -15 q 187 20 254 -15 q 79 122 119 56 q 39 274 39 188 q 78 428 39 363 q 181 527 117 493 q 321 561 246 561 q 513 486 439 561 q 588 274 588 411 l 588 258 m 529 300 q 469 460 529 403 q 321 517 408 517 q 170 458 232 517 q 101 300 108 399 l 529 300 m 117 872 l 183 872 l 258 668 l 222 668 l 117 872 m 268 872 l 333 872 l 408 668 l 372 668 l 268 872 z "},"ë":{"ha":653,"x_min":39,"x_max":588,"o":"m 588 258 l 101 258 q 173 94 108 157 q 333 32 238 32 q 456 59 396 32 q 554 129 517 86 l 575 88 q 465 12 528 39 q 333 -15 403 -15 q 187 20 254 -15 q 79 122 119 56 q 39 274 39 188 q 78 428 39 363 q 181 527 117 493 q 321 561 246 561 q 513 486 439 561 q 588 274 588 411 l 588 258 m 529 300 q 469 460 529 403 q 321 517 408 517 q 170 458 232 517 q 101 300 108 399 l 529 300 m 211 660 q 182 671 193 660 q 171 700 171 682 q 182 728 171 718 q 211 739 193 739 q 242 728 231 739 q 253 700 253 718 q 242 671 253 682 q 211 660 231 660 m 447 660 q 417 670 428 660 q 406 699 406 681 q 417 728 406 717 q 447 739 428 739 q 476 728 465 739 q 488 699 488 717 q 476 670 488 681 q 447 660 465 660 z "},"ė":{"ha":653,"x_min":39,"x_max":588,"o":"m 588 258 l 101 258 q 173 94 108 157 q 333 32 238 32 q 456 59 396 32 q 554 129 517 86 l 575 88 q 465 12 528 39 q 333 -15 403 -15 q 187 20 254 -15 q 79 122 119 56 q 39 274 39 188 q 78 428 39 363 q 181 527 117 493 q 321 561 246 561 q 513 486 439 561 q 588 274 588 411 l 588 258 m 529 300 q 469 460 529 403 q 321 517 408 517 q 170 458 232 517 q 101 300 108 399 l 529 300 m 329 660 q 293 674 307 660 q 279 706 279 688 q 292 739 279 725 q 329 753 306 753 q 366 740 353 753 q 379 706 379 726 q 365 674 379 689 q 329 660 351 660 z "},"ẹ":{"ha":653,"x_min":39,"x_max":588,"o":"m 588 258 l 101 258 q 173 94 108 157 q 333 32 238 32 q 456 59 396 32 q 554 129 517 86 l 575 88 q 465 12 528 39 q 333 -15 403 -15 q 187 20 254 -15 q 79 122 119 56 q 39 274 39 188 q 78 428 39 363 q 181 527 117 493 q 321 561 246 561 q 513 486 439 561 q 588 274 588 411 l 588 258 m 529 300 q 469 460 529 403 q 321 517 408 517 q 170 458 232 517 q 101 300 108 399 l 529 300 m 331 -164 q 294 -150 308 -164 q 281 -118 281 -136 q 294 -85 281 -99 q 331 -71 307 -71 q 367 -84 354 -71 q 381 -118 381 -97 q 367 -149 381 -135 q 331 -164 353 -164 z "},"è":{"ha":653,"x_min":39,"x_max":588,"o":"m 588 258 l 101 258 q 173 94 108 157 q 333 32 238 32 q 456 59 396 32 q 554 129 517 86 l 575 88 q 465 12 528 39 q 333 -15 403 -15 q 187 20 254 -15 q 79 122 119 56 q 39 274 39 188 q 78 428 39 363 q 181 527 117 493 q 321 561 246 561 q 513 486 439 561 q 588 274 588 411 l 588 258 m 529 300 q 469 460 529 403 q 321 517 408 517 q 170 458 232 517 q 101 300 108 399 l 529 300 m 213 849 l 279 849 l 344 668 l 308 668 l 213 849 z "},"ẻ":{"ha":653,"x_min":39,"x_max":588,"o":"m 588 258 l 101 258 q 173 94 108 157 q 333 32 238 32 q 456 59 396 32 q 554 129 517 86 l 575 88 q 465 12 528 39 q 333 -15 403 -15 q 187 20 254 -15 q 79 122 119 56 q 39 274 39 188 q 78 428 39 363 q 181 527 117 493 q 321 561 246 561 q 513 486 439 561 q 588 274 588 411 l 588 258 m 529 300 q 469 460 529 403 q 321 517 408 517 q 170 458 232 517 q 101 300 108 399 l 529 300 m 314 647 q 357 696 357 663 q 344 725 357 714 q 310 736 332 736 q 250 718 282 736 l 233 757 q 314 778 275 778 q 380 756 356 778 q 404 699 404 733 q 329 607 404 633 l 314 647 z "},"ȇ":{"ha":653,"x_min":39,"x_max":588,"o":"m 588 258 l 101 258 q 173 94 108 157 q 333 32 238 32 q 456 59 396 32 q 554 129 517 86 l 575 88 q 465 12 528 39 q 333 -15 403 -15 q 187 20 254 -15 q 79 122 119 56 q 39 274 39 188 q 78 428 39 363 q 181 527 117 493 q 321 561 246 561 q 513 486 439 561 q 588 274 588 411 l 588 258 m 529 300 q 469 460 529 403 q 321 517 408 517 q 170 458 232 517 q 101 300 108 399 l 529 300 m 208 646 q 249 729 218 700 q 329 758 281 758 q 410 728 379 758 q 449 646 442 699 l 404 646 q 329 711 388 711 q 254 646 269 711 l 208 646 z "},"ē":{"ha":653,"x_min":39,"x_max":588,"o":"m 588 258 l 101 258 q 173 94 108 157 q 333 32 238 32 q 456 59 396 32 q 554 129 517 86 l 575 88 q 465 12 528 39 q 333 -15 403 -15 q 187 20 254 -15 q 79 122 119 56 q 39 274 39 188 q 78 428 39 363 q 181 527 117 493 q 321 561 246 561 q 513 486 439 561 q 588 274 588 411 l 588 258 m 529 300 q 469 460 529 403 q 321 517 408 517 q 170 458 232 517 q 101 300 108 399 l 529 300 m 196 706 l 463 706 l 463 667 l 196 667 l 196 706 z "},"ḗ":{"ha":653,"x_min":39,"x_max":588,"o":"m 588 258 l 101 258 q 173 94 108 157 q 333 32 238 32 q 456 59 396 32 q 554 129 517 86 l 575 88 q 465 12 528 39 q 333 -15 403 -15 q 187 20 254 -15 q 79 122 119 56 q 39 274 39 188 q 78 428 39 363 q 181 527 117 493 q 321 561 246 561 q 513 486 439 561 q 588 274 588 411 l 588 258 m 529 300 q 469 460 529 403 q 321 517 408 517 q 170 458 232 517 q 101 300 108 399 l 529 300 m 196 706 l 463 706 l 463 667 l 196 667 l 196 706 m 379 993 l 446 993 l 350 813 l 314 813 l 379 993 z "},"ḕ":{"ha":653,"x_min":39,"x_max":588,"o":"m 588 258 l 101 258 q 173 94 108 157 q 333 32 238 32 q 456 59 396 32 q 554 129 517 86 l 575 88 q 465 12 528 39 q 333 -15 403 -15 q 187 20 254 -15 q 79 122 119 56 q 39 274 39 188 q 78 428 39 363 q 181 527 117 493 q 321 561 246 561 q 513 486 439 561 q 588 274 588 411 l 588 258 m 529 300 q 469 460 529 403 q 321 517 408 517 q 170 458 232 517 q 101 300 108 399 l 529 300 m 196 706 l 463 706 l 463 667 l 196 667 l 196 706 m 213 993 l 279 993 l 344 813 l 308 813 l 213 993 z "},"ę":{"ha":653,"x_min":39,"x_max":588,"o":"m 588 258 l 101 258 q 173 94 108 157 q 333 32 238 32 q 456 59 396 32 q 554 129 517 86 l 575 88 q 478 18 533 44 q 363 -14 424 -8 q 313 -114 313 -68 q 330 -160 313 -144 q 376 -175 347 -175 q 440 -154 410 -175 l 440 -190 q 361 -217 401 -217 q 292 -192 319 -217 q 264 -128 264 -168 q 319 -15 264 -71 q 179 25 243 -11 q 77 125 115 61 q 39 274 39 189 q 78 428 39 363 q 181 527 117 493 q 321 561 246 561 q 513 486 439 561 q 588 274 588 411 l 588 258 m 529 300 q 469 460 529 403 q 321 517 408 517 q 170 458 232 517 q 101 300 108 399 l 529 300 z "},"ẽ":{"ha":653,"x_min":39,"x_max":588,"o":"m 588 258 l 101 258 q 173 94 108 157 q 333 32 238 32 q 456 59 396 32 q 554 129 517 86 l 575 88 q 465 12 528 39 q 333 -15 403 -15 q 187 20 254 -15 q 79 122 119 56 q 39 274 39 188 q 78 428 39 363 q 181 527 117 493 q 321 561 246 561 q 513 486 439 561 q 588 274 588 411 l 588 258 m 529 300 q 469 460 529 403 q 321 517 408 517 q 170 458 232 517 q 101 300 108 399 l 529 300 m 407 665 q 369 672 389 665 q 322 693 349 679 q 280 713 297 706 q 247 719 263 719 q 208 668 210 719 l 176 668 q 198 739 178 713 q 253 765 218 765 q 289 758 271 765 q 335 738 307 751 q 377 718 360 725 q 410 711 394 711 q 451 763 447 711 l 483 763 q 463 690 481 715 q 407 665 446 665 z "},"ə":{"ha":653,"x_min":65,"x_max":613,"o":"m 322 561 q 467 526 401 561 q 573 426 533 492 q 613 274 613 360 q 574 118 613 183 q 472 19 536 53 q 333 -15 408 -15 q 140 60 215 -15 q 65 272 65 135 l 65 288 l 551 288 q 482 451 546 389 q 324 514 418 514 q 199 487 260 514 q 99 417 138 460 l 76 458 q 190 534 126 507 q 322 561 253 561 m 335 29 q 483 88 422 29 q 550 246 544 147 l 124 246 q 185 86 124 143 q 335 29 246 29 z "},"f":{"ha":394,"x_min":68,"x_max":428,"o":"m 69 44 l 172 44 l 172 501 l 68 501 l 68 546 l 172 546 l 172 686 q 207 781 172 747 q 304 815 242 815 q 390 790 357 815 q 428 713 422 764 l 381 696 q 307 771 369 771 q 254 749 274 771 q 235 685 235 728 l 235 546 l 388 546 l 388 501 l 235 501 l 235 44 l 369 44 l 369 0 l 69 0 l 69 44 z "},"ḟ":{"ha":394,"x_min":68,"x_max":428,"o":"m 69 44 l 172 44 l 172 501 l 68 501 l 68 546 l 172 546 l 172 686 q 207 781 172 747 q 304 815 242 815 q 390 790 357 815 q 428 713 422 764 l 381 696 q 307 771 369 771 q 254 749 274 771 q 235 685 235 728 l 235 546 l 388 546 l 388 501 l 235 501 l 235 44 l 369 44 l 369 0 l 69 0 l 69 44 m 304 915 q 268 929 282 915 q 254 961 254 943 q 267 994 254 981 q 304 1008 281 1008 q 341 995 328 1008 q 354 961 354 982 q 340 930 354 944 q 304 915 326 915 z "},"g":{"ha":697,"x_min":43,"x_max":681,"o":"m 681 546 l 681 501 l 589 501 l 589 -11 q 519 -197 589 -136 q 325 -257 449 -257 q 126 -225 240 -257 l 138 -178 q 325 -210 249 -210 q 476 -160 424 -210 q 528 -21 528 -111 l 528 68 q 435 15 489 35 q 328 -4 381 -4 q 182 31 247 -4 q 80 131 117 67 q 43 279 43 194 q 78 426 43 363 q 176 524 114 490 q 317 558 238 558 q 429 538 371 558 q 528 485 488 518 l 528 546 l 681 546 m 106 272 q 170 105 106 168 q 336 42 235 42 q 437 61 385 42 q 528 114 489 81 l 528 443 q 428 494 483 475 q 322 514 374 514 q 165 448 225 514 q 106 272 106 382 z "},"ǵ":{"ha":697,"x_min":43,"x_max":681,"o":"m 681 546 l 681 501 l 589 501 l 589 -11 q 519 -197 589 -136 q 325 -257 449 -257 q 126 -225 240 -257 l 138 -178 q 325 -210 249 -210 q 476 -160 424 -210 q 528 -21 528 -111 l 528 68 q 435 15 489 35 q 328 -4 381 -4 q 182 31 247 -4 q 80 131 117 67 q 43 279 43 194 q 78 426 43 363 q 176 524 114 490 q 317 558 238 558 q 429 538 371 558 q 528 485 488 518 l 528 546 l 681 546 m 106 272 q 170 105 106 168 q 336 42 235 42 q 437 61 385 42 q 528 114 489 81 l 528 443 q 428 494 483 475 q 322 514 374 514 q 165 448 225 514 q 106 272 106 382 m 385 849 l 451 849 l 356 668 l 319 668 l 385 849 z "},"ğ":{"ha":697,"x_min":43,"x_max":681,"o":"m 681 546 l 681 501 l 589 501 l 589 -11 q 519 -197 589 -136 q 325 -257 449 -257 q 126 -225 240 -257 l 138 -178 q 325 -210 249 -210 q 476 -160 424 -210 q 528 -21 528 -111 l 528 68 q 435 15 489 35 q 328 -4 381 -4 q 182 31 247 -4 q 80 131 117 67 q 43 279 43 194 q 78 426 43 363 q 176 524 114 490 q 317 558 238 558 q 429 538 371 558 q 528 485 488 518 l 528 546 l 681 546 m 106 272 q 170 105 106 168 q 336 42 235 42 q 437 61 385 42 q 528 114 489 81 l 528 443 q 428 494 483 475 q 322 514 374 514 q 165 448 225 514 q 106 272 106 382 m 335 656 q 256 684 286 656 q 218 764 225 713 l 257 764 q 335 696 274 696 q 411 764 394 696 l 451 764 q 413 685 443 713 q 335 656 383 657 z "},"ǧ":{"ha":697,"x_min":43,"x_max":681,"o":"m 681 546 l 681 501 l 589 501 l 589 -11 q 519 -197 589 -136 q 325 -257 449 -257 q 126 -225 240 -257 l 138 -178 q 325 -210 249 -210 q 476 -160 424 -210 q 528 -21 528 -111 l 528 68 q 435 15 489 35 q 328 -4 381 -4 q 182 31 247 -4 q 80 131 117 67 q 43 279 43 194 q 78 426 43 363 q 176 524 114 490 q 317 558 238 558 q 429 538 371 558 q 528 485 488 518 l 528 546 l 681 546 m 106 272 q 170 105 106 168 q 336 42 235 42 q 437 61 385 42 q 528 114 489 81 l 528 443 q 428 494 483 475 q 322 514 374 514 q 165 448 225 514 q 106 272 106 382 m 193 854 l 240 854 l 335 686 l 429 854 l 475 854 l 360 646 l 311 646 l 193 854 z "},"ĝ":{"ha":697,"x_min":43,"x_max":681,"o":"m 681 546 l 681 501 l 589 501 l 589 -11 q 519 -197 589 -136 q 325 -257 449 -257 q 126 -225 240 -257 l 138 -178 q 325 -210 249 -210 q 476 -160 424 -210 q 528 -21 528 -111 l 528 68 q 435 15 489 35 q 328 -4 381 -4 q 182 31 247 -4 q 80 131 117 67 q 43 279 43 194 q 78 426 43 363 q 176 524 114 490 q 317 558 238 558 q 429 538 371 558 q 528 485 488 518 l 528 546 l 681 546 m 106 272 q 170 105 106 168 q 336 42 235 42 q 437 61 385 42 q 528 114 489 81 l 528 443 q 428 494 483 475 q 322 514 374 514 q 165 448 225 514 q 106 272 106 382 m 308 840 l 363 840 l 479 628 l 432 628 l 335 806 l 238 628 l 190 628 l 308 840 z "},"ģ":{"ha":697,"x_min":43,"x_max":681,"o":"m 681 546 l 681 501 l 589 501 l 589 -11 q 519 -197 589 -136 q 325 -257 449 -257 q 126 -225 240 -257 l 138 -178 q 325 -210 249 -210 q 476 -160 424 -210 q 528 -21 528 -111 l 528 68 q 435 15 489 35 q 328 -4 381 -4 q 182 31 247 -4 q 80 131 117 67 q 43 279 43 194 q 78 426 43 363 q 176 524 114 490 q 317 558 238 558 q 429 538 371 558 q 528 485 488 518 l 528 546 l 681 546 m 106 272 q 170 105 106 168 q 336 42 235 42 q 437 61 385 42 q 528 114 489 81 l 528 443 q 428 494 483 475 q 322 514 374 514 q 165 448 225 514 q 106 272 106 382 m 382 839 q 335 810 347 835 q 324 738 324 786 l 374 738 l 374 654 l 286 654 l 286 744 q 382 865 286 867 l 382 839 z "},"ġ":{"ha":697,"x_min":43,"x_max":681,"o":"m 681 546 l 681 501 l 589 501 l 589 -11 q 519 -197 589 -136 q 325 -257 449 -257 q 126 -225 240 -257 l 138 -178 q 325 -210 249 -210 q 476 -160 424 -210 q 528 -21 528 -111 l 528 68 q 435 15 489 35 q 328 -4 381 -4 q 182 31 247 -4 q 80 131 117 67 q 43 279 43 194 q 78 426 43 363 q 176 524 114 490 q 317 558 238 558 q 429 538 371 558 q 528 485 488 518 l 528 546 l 681 546 m 106 272 q 170 105 106 168 q 336 42 235 42 q 437 61 385 42 q 528 114 489 81 l 528 443 q 428 494 483 475 q 322 514 374 514 q 165 448 225 514 q 106 272 106 382 m 335 660 q 299 674 313 660 q 285 706 285 688 q 298 739 285 725 q 335 753 311 753 q 372 740 358 753 q 385 706 385 726 q 371 674 385 689 q 335 660 357 660 z "},"ḡ":{"ha":697,"x_min":43,"x_max":681,"o":"m 681 546 l 681 501 l 589 501 l 589 -11 q 519 -197 589 -136 q 325 -257 449 -257 q 126 -225 240 -257 l 138 -178 q 325 -210 249 -210 q 476 -160 424 -210 q 528 -21 528 -111 l 528 68 q 435 15 489 35 q 328 -4 381 -4 q 182 31 247 -4 q 80 131 117 67 q 43 279 43 194 q 78 426 43 363 q 176 524 114 490 q 317 558 238 558 q 429 538 371 558 q 528 485 488 518 l 528 546 l 681 546 m 106 272 q 170 105 106 168 q 336 42 235 42 q 437 61 385 42 q 528 114 489 81 l 528 443 q 428 494 483 475 q 322 514 374 514 q 165 448 225 514 q 106 272 106 382 m 201 706 l 468 706 l 468 667 l 201 667 l 201 706 z "},"h":{"ha":688,"x_min":15,"x_max":672,"o":"m 672 44 l 672 0 l 400 0 l 400 44 l 508 44 l 508 389 q 476 479 508 446 q 386 513 443 513 q 176 440 299 513 l 176 44 l 272 44 l 272 0 l 15 0 l 15 44 l 115 44 l 115 751 l 18 751 l 18 796 l 176 796 l 176 482 q 292 540 240 521 q 397 560 343 560 q 522 514 475 560 q 568 388 568 468 l 568 44 l 672 44 z "},"ħ":{"ha":688,"x_min":13,"x_max":672,"o":"m 672 44 l 672 0 l 400 0 l 400 44 l 508 44 l 508 389 q 476 479 508 446 q 386 513 443 513 q 176 440 299 513 l 176 44 l 272 44 l 272 0 l 15 0 l 15 44 l 115 44 l 115 751 l 18 751 l 18 796 l 176 796 l 176 482 q 292 540 240 521 q 397 560 343 560 q 522 514 475 560 q 568 388 568 468 l 568 44 l 672 44 m 13 957 l 279 957 l 279 918 l 13 918 l 13 957 z "},"ḫ":{"ha":688,"x_min":15,"x_max":672,"o":"m 672 44 l 672 0 l 400 0 l 400 44 l 508 44 l 508 389 q 476 479 508 446 q 386 513 443 513 q 176 440 299 513 l 176 44 l 272 44 l 272 0 l 15 0 l 15 44 l 115 44 l 115 751 l 18 751 l 18 796 l 176 796 l 176 482 q 292 540 240 521 q 397 560 343 560 q 522 514 475 560 q 568 388 568 468 l 568 44 l 672 44 m 336 -179 q 257 -151 288 -179 q 219 -71 226 -122 l 258 -71 q 336 -139 275 -139 q 413 -71 396 -139 l 453 -71 q 415 -150 444 -122 q 336 -179 385 -178 z "},"ȟ":{"ha":688,"x_min":4,"x_max":672,"o":"m 672 44 l 672 0 l 400 0 l 400 44 l 508 44 l 508 389 q 476 479 508 446 q 386 513 443 513 q 176 440 299 513 l 176 44 l 272 44 l 272 0 l 15 0 l 15 44 l 115 44 l 115 751 l 18 751 l 18 796 l 176 796 l 176 482 q 292 540 240 521 q 397 560 343 560 q 522 514 475 560 q 568 388 568 468 l 568 44 l 672 44 m 4 1106 l 51 1106 l 146 938 l 240 1106 l 286 1106 l 171 897 l 122 897 l 4 1106 z "},"ĥ":{"ha":688,"x_min":1,"x_max":672,"o":"m 672 44 l 672 0 l 400 0 l 400 44 l 508 44 l 508 389 q 476 479 508 446 q 386 513 443 513 q 176 440 299 513 l 176 44 l 272 44 l 272 0 l 15 0 l 15 44 l 115 44 l 115 751 l 18 751 l 18 796 l 176 796 l 176 482 q 292 540 240 521 q 397 560 343 560 q 522 514 475 560 q 568 388 568 468 l 568 44 l 672 44 m 119 1092 l 174 1092 l 290 879 l 243 879 l 146 1057 l 49 879 l 1 879 l 119 1092 z "},"ḥ":{"ha":688,"x_min":15,"x_max":672,"o":"m 672 44 l 672 0 l 400 0 l 400 44 l 508 44 l 508 389 q 476 479 508 446 q 386 513 443 513 q 176 440 299 513 l 176 44 l 272 44 l 272 0 l 15 0 l 15 44 l 115 44 l 115 751 l 18 751 l 18 796 l 176 796 l 176 482 q 292 540 240 521 q 397 560 343 560 q 522 514 475 560 q 568 388 568 468 l 568 44 l 672 44 m 336 -164 q 300 -150 314 -164 q 286 -118 286 -136 q 299 -85 286 -99 q 336 -71 313 -71 q 373 -84 360 -71 q 386 -118 386 -97 q 372 -149 386 -135 q 336 -164 358 -164 z "},"i":{"ha":343,"x_min":26,"x_max":315,"o":"m 161 681 q 125 694 139 681 q 111 726 111 707 q 125 759 111 746 q 161 772 139 772 q 196 759 182 772 q 210 726 210 746 q 196 694 210 707 q 161 681 182 681 m 26 44 l 142 44 l 142 501 l 28 501 l 28 546 l 201 546 l 201 44 l 315 44 l 315 0 l 26 0 l 26 44 z "},"ı":{"ha":342,"x_min":26,"x_max":313,"o":"m 26 44 l 142 44 l 142 501 l 28 501 l 28 546 l 201 546 l 201 44 l 313 44 l 313 0 l 26 0 l 26 44 z "},"í":{"ha":342,"x_min":26,"x_max":313,"o":"m 26 44 l 142 44 l 142 501 l 28 501 l 28 546 l 201 546 l 201 44 l 313 44 l 313 0 l 26 0 l 26 44 m 211 849 l 278 849 l 182 668 l 146 668 l 211 849 z "},"ĭ":{"ha":342,"x_min":26,"x_max":313,"o":"m 26 44 l 142 44 l 142 501 l 28 501 l 28 546 l 201 546 l 201 44 l 313 44 l 313 0 l 26 0 l 26 44 m 161 656 q 82 684 113 656 q 44 764 51 713 l 83 764 q 161 696 100 696 q 238 764 221 696 l 278 764 q 240 685 269 713 q 161 656 210 657 z "},"ǐ":{"ha":342,"x_min":19,"x_max":313,"o":"m 26 44 l 142 44 l 142 501 l 28 501 l 28 546 l 201 546 l 201 44 l 313 44 l 313 0 l 26 0 l 26 44 m 19 854 l 67 854 l 161 686 l 256 854 l 301 854 l 186 646 l 138 646 l 19 854 z "},"î":{"ha":342,"x_min":17,"x_max":313,"o":"m 26 44 l 142 44 l 142 501 l 28 501 l 28 546 l 201 546 l 201 44 l 313 44 l 313 0 l 26 0 l 26 44 m 135 840 l 189 840 l 306 628 l 258 628 l 161 806 l 64 628 l 17 628 l 135 840 z "},"ȉ":{"ha":342,"x_min":-51,"x_max":313,"o":"m 26 44 l 142 44 l 142 501 l 28 501 l 28 546 l 201 546 l 201 44 l 313 44 l 313 0 l 26 0 l 26 44 m -51 872 l 15 872 l 90 668 l 54 668 l -51 872 m 100 872 l 165 872 l 240 668 l 204 668 l 100 872 z "},"ï":{"ha":342,"x_min":3,"x_max":319,"o":"m 26 44 l 142 44 l 142 501 l 28 501 l 28 546 l 201 546 l 201 44 l 313 44 l 313 0 l 26 0 l 26 44 m 43 660 q 14 671 25 660 q 3 700 3 682 q 14 728 3 718 q 43 739 25 739 q 74 728 63 739 q 85 700 85 718 q 74 671 85 682 q 43 660 63 660 m 279 660 q 249 670 260 660 q 238 699 238 681 q 249 728 238 717 q 279 739 260 739 q 308 728 297 739 q 319 699 319 717 q 308 670 319 681 q 279 660 297 660 z "},"ḯ":{"ha":342,"x_min":3,"x_max":319,"o":"m 26 44 l 142 44 l 142 501 l 28 501 l 28 546 l 201 546 l 201 44 l 313 44 l 313 0 l 26 0 l 26 44 m 43 660 q 14 671 25 660 q 3 700 3 682 q 14 728 3 718 q 43 739 25 739 q 74 728 63 739 q 85 700 85 718 q 74 671 85 682 q 43 660 63 660 m 279 660 q 249 670 260 660 q 238 699 238 681 q 249 728 238 717 q 279 739 260 739 q 308 728 297 739 q 319 699 319 717 q 308 670 319 681 q 279 660 297 660 m 211 1051 l 278 1051 l 182 871 l 146 871 l 211 1051 z "},"ị":{"ha":343,"x_min":26,"x_max":315,"o":"m 161 681 q 125 694 139 681 q 111 726 111 707 q 125 759 111 746 q 161 772 139 772 q 196 759 182 772 q 210 726 210 746 q 196 694 210 707 q 161 681 182 681 m 26 44 l 142 44 l 142 501 l 28 501 l 28 546 l 201 546 l 201 44 l 315 44 l 315 0 l 26 0 l 26 44 m 172 -164 q 136 -150 150 -164 q 122 -118 122 -136 q 135 -85 122 -99 q 172 -71 149 -71 q 209 -84 196 -71 q 222 -118 222 -97 q 208 -149 222 -135 q 172 -164 194 -164 z "},"ì":{"ha":342,"x_min":26,"x_max":313,"o":"m 26 44 l 142 44 l 142 501 l 28 501 l 28 546 l 201 546 l 201 44 l 313 44 l 313 0 l 26 0 l 26 44 m 44 849 l 111 849 l 176 668 l 140 668 l 44 849 z "},"ỉ":{"ha":342,"x_min":26,"x_max":313,"o":"m 26 44 l 142 44 l 142 501 l 28 501 l 28 546 l 201 546 l 201 44 l 313 44 l 313 0 l 26 0 l 26 44 m 146 647 q 189 696 189 663 q 176 725 189 714 q 142 736 164 736 q 82 718 114 736 l 65 757 q 146 778 107 778 q 212 756 188 778 q 236 699 236 733 q 161 607 236 633 l 146 647 z "},"ȋ":{"ha":342,"x_min":26,"x_max":313,"o":"m 26 44 l 142 44 l 142 501 l 28 501 l 28 546 l 201 546 l 201 44 l 313 44 l 313 0 l 26 0 l 26 44 m 40 646 q 81 729 50 700 q 161 758 113 758 q 242 728 211 758 q 281 646 274 699 l 236 646 q 161 711 219 711 q 86 646 101 711 l 40 646 z "},"ĳ":{"ha":644,"x_min":26,"x_max":561,"o":"m 161 681 q 125 694 139 681 q 111 726 111 707 q 125 759 111 746 q 161 772 139 772 q 196 759 182 772 q 210 726 210 746 q 196 694 210 707 q 161 681 182 681 m 26 44 l 142 44 l 142 501 l 28 501 l 28 546 l 201 546 l 201 44 l 315 44 l 315 0 l 26 0 l 26 44 m 511 681 q 476 694 490 681 q 461 728 461 707 q 476 759 461 746 q 511 772 490 772 q 547 760 533 772 q 561 728 561 747 q 547 694 561 707 q 511 681 533 681 m 354 -136 l 404 -136 q 475 -112 456 -136 q 494 -26 494 -87 l 494 503 l 386 503 l 386 546 l 558 546 l 558 -17 q 524 -142 558 -100 q 403 -183 490 -183 l 354 -183 l 354 -136 z "},"ī":{"ha":342,"x_min":26,"x_max":313,"o":"m 26 44 l 142 44 l 142 501 l 28 501 l 28 546 l 201 546 l 201 44 l 313 44 l 313 0 l 26 0 l 26 44 m 28 706 l 294 706 l 294 667 l 28 667 l 28 706 z "},"į":{"ha":342,"x_min":26,"x_max":313,"o":"m 26 44 l 142 44 l 142 501 l 28 501 l 28 546 l 201 546 l 201 44 l 313 44 l 313 0 l 26 0 l 26 44 m 154 -219 q 85 -195 113 -219 q 57 -131 57 -171 q 132 0 57 -67 l 172 0 q 106 -117 106 -67 q 123 -162 106 -147 q 169 -178 140 -178 q 233 -157 203 -178 l 233 -193 q 154 -219 194 -219 m 161 660 q 125 674 139 660 q 111 706 111 688 q 124 739 111 725 q 161 753 138 753 q 198 740 185 753 q 211 706 211 726 q 197 674 211 689 q 161 660 183 660 z "},"ĩ":{"ha":342,"x_min":8,"x_max":315,"o":"m 26 44 l 142 44 l 142 501 l 28 501 l 28 546 l 201 546 l 201 44 l 313 44 l 313 0 l 26 0 l 26 44 m 239 665 q 201 672 221 665 q 154 693 181 679 q 112 713 129 706 q 79 719 94 719 q 40 668 42 719 l 8 668 q 30 739 10 713 q 85 765 50 765 q 121 758 103 765 q 167 738 139 751 q 209 718 192 725 q 242 711 226 711 q 283 763 279 711 l 315 763 q 295 690 313 715 q 239 665 278 665 z "},"j":{"ha":301,"x_min":11,"x_max":218,"o":"m 168 681 q 133 694 147 681 q 118 728 118 707 q 133 759 118 746 q 168 772 147 772 q 204 760 190 772 q 218 728 218 747 q 204 694 218 707 q 168 681 190 681 m 11 -136 l 61 -136 q 132 -112 113 -136 q 151 -26 151 -87 l 151 503 l 43 503 l 43 546 l 215 546 l 215 -17 q 181 -142 215 -100 q 60 -183 147 -183 l 11 -183 l 11 -136 z "},"ȷ":{"ha":299,"x_min":11,"x_max":214,"o":"m 11 -136 l 61 -136 q 133 -111 114 -136 q 151 -24 151 -86 l 151 501 l 36 501 l 36 546 l 214 546 l 214 -14 q 181 -141 214 -99 q 60 -183 149 -183 l 11 -183 l 11 -136 z "},"ǰ":{"ha":299,"x_min":-7,"x_max":275,"o":"m 11 -136 l 61 -136 q 133 -111 114 -136 q 151 -24 151 -86 l 151 501 l 36 501 l 36 546 l 214 546 l 214 -14 q 181 -141 214 -99 q 60 -183 149 -183 l 11 -183 l 11 -136 m -7 854 l 40 854 l 135 686 l 229 854 l 275 854 l 160 646 l 111 646 l -7 854 z "},"ĵ":{"ha":299,"x_min":-10,"x_max":279,"o":"m 11 -136 l 61 -136 q 133 -111 114 -136 q 151 -24 151 -86 l 151 501 l 36 501 l 36 546 l 214 546 l 214 -14 q 181 -141 214 -99 q 60 -183 149 -183 l 11 -183 l 11 -136 m 108 840 l 163 840 l 279 628 l 232 628 l 135 806 l 38 628 l -10 628 l 108 840 z "},"k":{"ha":674,"x_min":40,"x_max":646,"o":"m 40 44 l 142 44 l 142 751 l 44 751 l 44 796 l 203 796 l 203 289 l 479 501 l 372 501 l 372 546 l 642 546 l 642 501 l 547 501 l 269 285 l 528 44 l 646 44 l 646 0 l 499 0 l 203 279 l 203 44 l 299 44 l 299 0 l 40 0 l 40 44 z "},"ǩ":{"ha":674,"x_min":31,"x_max":646,"o":"m 40 44 l 142 44 l 142 751 l 44 751 l 44 796 l 203 796 l 203 289 l 479 501 l 372 501 l 372 546 l 642 546 l 642 501 l 547 501 l 269 285 l 528 44 l 646 44 l 646 0 l 499 0 l 203 279 l 203 44 l 299 44 l 299 0 l 40 0 l 40 44 m 31 1104 l 78 1104 l 172 936 l 267 1104 l 313 1104 l 197 896 l 149 896 l 31 1104 z "},"ķ":{"ha":674,"x_min":40,"x_max":646,"o":"m 40 44 l 142 44 l 142 751 l 44 751 l 44 796 l 203 796 l 203 289 l 479 501 l 372 501 l 372 546 l 642 546 l 642 501 l 547 501 l 269 285 l 528 44 l 646 44 l 646 0 l 499 0 l 203 279 l 203 44 l 299 44 l 299 0 l 40 0 l 40 44 m 315 -256 q 362 -227 350 -251 q 374 -154 374 -203 l 324 -154 l 324 -71 l 411 -71 l 411 -161 q 315 -282 411 -283 l 315 -256 z "},"ĸ":{"ha":668,"x_min":51,"x_max":640,"o":"m 51 44 l 147 44 l 147 501 l 54 501 l 54 546 l 208 546 l 208 44 l 296 44 l 296 0 l 51 0 l 51 44 m 215 275 l 469 501 l 371 501 l 371 546 l 636 546 l 636 501 l 540 501 l 289 276 l 531 44 l 640 44 l 640 0 l 501 0 l 215 275 z "},"l":{"ha":328,"x_min":39,"x_max":297,"o":"m 39 44 l 140 44 l 140 751 l 42 751 l 42 796 l 200 796 l 200 44 l 297 44 l 297 0 l 39 0 l 39 44 z "},"ĺ":{"ha":328,"x_min":39,"x_max":297,"o":"m 39 44 l 140 44 l 140 751 l 42 751 l 42 796 l 200 796 l 200 44 l 297 44 l 297 0 l 39 0 l 39 44 m 219 1099 l 286 1099 l 190 918 l 154 918 l 219 1099 z "},"ľ":{"ha":328,"x_min":39,"x_max":344,"o":"m 39 44 l 140 44 l 140 751 l 42 751 l 42 796 l 200 796 l 200 44 l 297 44 l 297 0 l 39 0 l 39 44 m 251 614 q 295 638 283 619 q 307 706 307 656 l 256 706 l 256 796 l 344 796 l 343 703 q 251 588 346 588 l 251 614 z "},"ļ":{"ha":328,"x_min":39,"x_max":297,"o":"m 39 44 l 140 44 l 140 751 l 42 751 l 42 796 l 200 796 l 200 44 l 297 44 l 297 0 l 39 0 l 39 44 m 121 -256 q 167 -227 156 -251 q 179 -154 179 -203 l 129 -154 l 129 -71 l 217 -71 l 217 -161 q 121 -282 217 -283 l 121 -256 z "},"ŀ":{"ha":328,"x_min":39,"x_max":388,"o":"m 39 44 l 140 44 l 140 751 l 42 751 l 42 796 l 200 796 l 200 44 l 297 44 l 297 0 l 39 0 l 39 44 m 336 388 q 300 401 314 388 q 286 438 286 415 q 300 472 286 458 q 336 486 314 486 q 373 472 358 486 q 388 438 388 458 q 373 401 388 415 q 336 388 358 388 z "},"ḷ":{"ha":328,"x_min":39,"x_max":297,"o":"m 39 44 l 140 44 l 140 751 l 42 751 l 42 796 l 200 796 l 200 44 l 297 44 l 297 0 l 39 0 l 39 44 m 169 -164 q 133 -150 147 -164 q 119 -118 119 -136 q 133 -85 119 -99 q 169 -71 146 -71 q 206 -84 193 -71 q 219 -118 219 -97 q 206 -149 219 -135 q 169 -164 192 -164 z "},"ǉ":{"ha":629,"x_min":39,"x_max":546,"o":"m 39 44 l 140 44 l 140 751 l 42 751 l 42 796 l 200 796 l 200 44 l 297 44 l 297 0 l 39 0 l 39 44 m 496 681 q 460 694 475 681 q 446 728 446 707 q 460 759 446 746 q 496 772 475 772 q 532 760 518 772 q 546 728 546 747 q 532 694 546 707 q 496 681 518 681 m 339 -136 l 389 -136 q 460 -112 440 -136 q 479 -26 479 -87 l 479 503 l 371 503 l 371 546 l 543 546 l 543 -17 q 509 -142 543 -100 q 388 -183 475 -183 l 339 -183 l 339 -136 z "},"ḻ":{"ha":328,"x_min":36,"x_max":303,"o":"m 39 44 l 140 44 l 140 751 l 42 751 l 42 796 l 200 796 l 200 44 l 297 44 l 297 0 l 39 0 l 39 44 m 36 -65 l 303 -65 l 303 -104 l 36 -104 l 36 -65 z "},"ł":{"ha":324,"x_min":35,"x_max":299,"o":"m 200 389 l 200 44 l 297 44 l 297 0 l 39 0 l 39 44 l 140 44 l 140 354 l 35 293 l 35 347 l 140 410 l 140 751 l 42 751 l 42 796 l 200 796 l 200 444 l 299 503 l 299 446 l 200 389 z "},"m":{"ha":1078,"x_min":26,"x_max":1074,"o":"m 1074 44 l 1074 0 l 801 0 l 801 44 l 911 44 l 911 389 q 877 479 911 446 q 786 513 843 513 q 684 494 739 513 q 578 442 629 475 q 585 385 585 411 l 585 44 l 686 44 l 686 0 l 415 0 l 415 44 l 525 44 l 525 389 q 492 479 525 446 q 401 513 458 513 q 312 495 364 513 q 201 446 260 478 l 201 44 l 313 44 l 313 0 l 26 0 l 26 44 l 142 44 l 142 501 l 28 501 l 28 546 l 201 546 l 201 489 q 313 541 257 522 q 414 560 369 560 q 505 538 467 560 q 564 476 543 515 q 685 539 631 518 q 800 560 739 560 q 924 514 876 560 q 971 388 971 468 l 971 44 l 1074 44 z "},"ṁ":{"ha":1078,"x_min":26,"x_max":1074,"o":"m 1074 44 l 1074 0 l 801 0 l 801 44 l 911 44 l 911 389 q 877 479 911 446 q 786 513 843 513 q 684 494 739 513 q 578 442 629 475 q 585 385 585 411 l 585 44 l 686 44 l 686 0 l 415 0 l 415 44 l 525 44 l 525 389 q 492 479 525 446 q 401 513 458 513 q 312 495 364 513 q 201 446 260 478 l 201 44 l 313 44 l 313 0 l 26 0 l 26 44 l 142 44 l 142 501 l 28 501 l 28 546 l 201 546 l 201 489 q 313 541 257 522 q 414 560 369 560 q 505 538 467 560 q 564 476 543 515 q 685 539 631 518 q 800 560 739 560 q 924 514 876 560 q 971 388 971 468 l 971 44 l 1074 44 m 560 660 q 524 674 538 660 q 510 706 510 688 q 523 739 510 725 q 560 753 536 753 q 597 740 583 753 q 610 706 610 726 q 596 674 610 689 q 560 660 582 660 z "},"ṃ":{"ha":1078,"x_min":26,"x_max":1074,"o":"m 1074 44 l 1074 0 l 801 0 l 801 44 l 911 44 l 911 389 q 877 479 911 446 q 786 513 843 513 q 684 494 739 513 q 578 442 629 475 q 585 385 585 411 l 585 44 l 686 44 l 686 0 l 415 0 l 415 44 l 525 44 l 525 389 q 492 479 525 446 q 401 513 458 513 q 312 495 364 513 q 201 446 260 478 l 201 44 l 313 44 l 313 0 l 26 0 l 26 44 l 142 44 l 142 501 l 28 501 l 28 546 l 201 546 l 201 489 q 313 541 257 522 q 414 560 369 560 q 505 538 467 560 q 564 476 543 515 q 685 539 631 518 q 800 560 739 560 q 924 514 876 560 q 971 388 971 468 l 971 44 l 1074 44 m 556 -164 q 519 -150 533 -164 q 506 -118 506 -136 q 519 -85 506 -99 q 556 -71 532 -71 q 592 -84 579 -71 q 606 -118 606 -97 q 592 -149 606 -135 q 556 -164 578 -164 z "},"n":{"ha":700,"x_min":26,"x_max":696,"o":"m 696 44 l 696 0 l 424 0 l 424 44 l 532 44 l 532 389 q 499 479 532 446 q 408 513 465 513 q 201 442 329 513 l 201 44 l 313 44 l 313 0 l 26 0 l 26 44 l 142 44 l 142 501 l 28 501 l 28 546 l 201 546 l 201 486 q 422 560 325 560 q 546 514 499 560 q 593 388 593 468 l 593 44 l 696 44 z "},"ń":{"ha":700,"x_min":26,"x_max":696,"o":"m 696 44 l 696 0 l 424 0 l 424 44 l 532 44 l 532 389 q 499 479 532 446 q 408 513 465 513 q 201 442 329 513 l 201 44 l 313 44 l 313 0 l 26 0 l 26 44 l 142 44 l 142 501 l 28 501 l 28 546 l 201 546 l 201 486 q 422 560 325 560 q 546 514 499 560 q 593 388 593 468 l 593 44 l 696 44 m 425 849 l 492 849 l 396 668 l 360 668 l 425 849 z "},"ŉ":{"ha":969,"x_min":139,"x_max":967,"o":"m 139 647 q 183 671 171 653 q 194 739 194 689 l 143 739 l 143 829 l 232 829 l 231 736 q 139 621 233 621 l 139 647 m 967 44 l 967 0 l 694 0 l 694 44 l 803 44 l 803 389 q 769 479 803 446 q 679 513 736 513 q 472 442 600 513 l 472 44 l 583 44 l 583 0 l 297 0 l 297 44 l 413 44 l 413 501 l 299 501 l 299 546 l 472 546 l 472 486 q 693 560 596 560 q 817 514 769 560 q 864 388 864 468 l 864 44 l 967 44 z "},"ň":{"ha":700,"x_min":26,"x_max":696,"o":"m 696 44 l 696 0 l 424 0 l 424 44 l 532 44 l 532 389 q 499 479 532 446 q 408 513 465 513 q 201 442 329 513 l 201 44 l 313 44 l 313 0 l 26 0 l 26 44 l 142 44 l 142 501 l 28 501 l 28 546 l 201 546 l 201 486 q 422 560 325 560 q 546 514 499 560 q 593 388 593 468 l 593 44 l 696 44 m 233 854 l 281 854 l 375 686 l 469 854 l 515 854 l 400 646 l 351 646 l 233 854 z "},"ņ":{"ha":700,"x_min":26,"x_max":696,"o":"m 696 44 l 696 0 l 424 0 l 424 44 l 532 44 l 532 389 q 499 479 532 446 q 408 513 465 513 q 201 442 329 513 l 201 44 l 313 44 l 313 0 l 26 0 l 26 44 l 142 44 l 142 501 l 28 501 l 28 546 l 201 546 l 201 486 q 422 560 325 560 q 546 514 499 560 q 593 388 593 468 l 593 44 l 696 44 m 329 -256 q 376 -227 364 -251 q 388 -154 388 -203 l 338 -154 l 338 -71 l 425 -71 l 425 -161 q 329 -282 425 -283 l 329 -256 z "},"ṅ":{"ha":700,"x_min":26,"x_max":696,"o":"m 696 44 l 696 0 l 424 0 l 424 44 l 532 44 l 532 389 q 499 479 532 446 q 408 513 465 513 q 201 442 329 513 l 201 44 l 313 44 l 313 0 l 26 0 l 26 44 l 142 44 l 142 501 l 28 501 l 28 546 l 201 546 l 201 486 q 422 560 325 560 q 546 514 499 560 q 593 388 593 468 l 593 44 l 696 44 m 375 660 q 339 674 353 660 q 325 706 325 688 q 338 739 325 725 q 375 753 351 753 q 412 740 399 753 q 425 706 425 726 q 411 674 425 689 q 375 660 397 660 z "},"ṇ":{"ha":700,"x_min":26,"x_max":696,"o":"m 696 44 l 696 0 l 424 0 l 424 44 l 532 44 l 532 389 q 499 479 532 446 q 408 513 465 513 q 201 442 329 513 l 201 44 l 313 44 l 313 0 l 26 0 l 26 44 l 142 44 l 142 501 l 28 501 l 28 546 l 201 546 l 201 486 q 422 560 325 560 q 546 514 499 560 q 593 388 593 468 l 593 44 l 696 44 m 378 -164 q 342 -150 356 -164 q 328 -118 328 -136 q 341 -85 328 -99 q 378 -71 354 -71 q 415 -84 401 -71 q 428 -118 428 -97 q 414 -149 428 -135 q 378 -164 400 -164 z "},"ǹ":{"ha":700,"x_min":26,"x_max":696,"o":"m 696 44 l 696 0 l 424 0 l 424 44 l 532 44 l 532 389 q 499 479 532 446 q 408 513 465 513 q 201 442 329 513 l 201 44 l 313 44 l 313 0 l 26 0 l 26 44 l 142 44 l 142 501 l 28 501 l 28 546 l 201 546 l 201 486 q 422 560 325 560 q 546 514 499 560 q 593 388 593 468 l 593 44 l 696 44 m 258 849 l 325 849 l 390 668 l 354 668 l 258 849 z "},"ŋ":{"ha":700,"x_min":26,"x_max":593,"o":"m 326 -194 q 532 -7 532 -194 l 532 389 q 499 479 532 446 q 408 513 465 513 q 317 494 372 513 q 201 443 263 475 l 201 44 l 313 44 l 313 0 l 26 0 l 26 44 l 142 44 l 142 501 l 28 501 l 28 546 l 201 546 l 201 486 q 318 540 260 521 q 422 560 376 560 q 546 514 499 560 q 593 388 593 468 l 593 1 q 522 -180 593 -121 q 325 -239 450 -239 l 326 -194 z "},"ǌ":{"ha":1001,"x_min":26,"x_max":918,"o":"m 696 44 l 696 0 l 424 0 l 424 44 l 532 44 l 532 389 q 499 479 532 446 q 408 513 465 513 q 201 442 329 513 l 201 44 l 313 44 l 313 0 l 26 0 l 26 44 l 142 44 l 142 501 l 28 501 l 28 546 l 201 546 l 201 486 q 422 560 325 560 q 546 514 499 560 q 593 388 593 468 l 593 44 l 696 44 m 868 681 q 833 694 847 681 q 818 728 818 707 q 833 759 818 746 q 868 772 847 772 q 904 760 890 772 q 918 728 918 747 q 904 694 918 707 q 868 681 890 681 m 711 -136 l 761 -136 q 832 -112 813 -136 q 851 -26 851 -87 l 851 503 l 743 503 l 743 546 l 915 546 l 915 -17 q 881 -142 915 -100 q 760 -183 847 -183 l 711 -183 l 711 -136 z "},"ṉ":{"ha":700,"x_min":26,"x_max":696,"o":"m 696 44 l 696 0 l 424 0 l 424 44 l 532 44 l 532 389 q 499 479 532 446 q 408 513 465 513 q 201 442 329 513 l 201 44 l 313 44 l 313 0 l 26 0 l 26 44 l 142 44 l 142 501 l 28 501 l 28 546 l 201 546 l 201 486 q 422 560 325 560 q 546 514 499 560 q 593 388 593 468 l 593 44 l 696 44 m 244 -65 l 511 -65 l 511 -104 l 244 -104 l 244 -65 z "},"ñ":{"ha":700,"x_min":26,"x_max":696,"o":"m 696 44 l 696 0 l 424 0 l 424 44 l 532 44 l 532 389 q 499 479 532 446 q 408 513 465 513 q 201 442 329 513 l 201 44 l 313 44 l 313 0 l 26 0 l 26 44 l 142 44 l 142 501 l 28 501 l 28 546 l 201 546 l 201 486 q 422 560 325 560 q 546 514 499 560 q 593 388 593 468 l 593 44 l 696 44 m 453 665 q 415 672 435 665 q 368 693 394 679 q 326 713 343 706 q 293 719 308 719 q 254 668 256 719 l 222 668 q 244 739 224 713 q 299 765 264 765 q 335 758 317 765 q 381 738 353 751 q 423 718 406 725 q 456 711 440 711 q 497 763 493 711 l 529 763 q 509 690 526 715 q 453 665 492 665 z "},"o":{"ha":665,"x_min":39,"x_max":626,"o":"m 331 -17 q 180 20 246 -17 q 76 124 114 57 q 39 275 39 190 q 76 424 39 358 q 180 525 114 489 q 331 561 246 561 q 484 525 417 561 q 589 424 551 489 q 626 276 626 360 q 589 124 626 190 q 484 20 551 57 q 331 -17 417 -17 m 331 31 q 500 99 435 31 q 565 276 565 167 q 500 448 565 382 q 331 514 435 514 q 165 448 229 514 q 101 275 101 382 q 165 99 101 167 q 331 31 229 31 z "},"ó":{"ha":665,"x_min":39,"x_max":626,"o":"m 331 -17 q 180 20 246 -17 q 76 124 114 57 q 39 275 39 190 q 76 424 39 358 q 180 525 114 489 q 331 561 246 561 q 484 525 417 561 q 589 424 551 489 q 626 276 626 360 q 589 124 626 190 q 484 20 551 57 q 331 -17 417 -17 m 331 31 q 500 99 435 31 q 565 276 565 167 q 500 448 565 382 q 331 514 435 514 q 165 448 229 514 q 101 275 101 382 q 165 99 101 167 q 331 31 229 31 m 381 849 l 447 849 l 351 668 l 315 668 l 381 849 z "},"ŏ":{"ha":665,"x_min":39,"x_max":626,"o":"m 331 -17 q 180 20 246 -17 q 76 124 114 57 q 39 275 39 190 q 76 424 39 358 q 180 525 114 489 q 331 561 246 561 q 484 525 417 561 q 589 424 551 489 q 626 276 626 360 q 589 124 626 190 q 484 20 551 57 q 331 -17 417 -17 m 331 31 q 500 99 435 31 q 565 276 565 167 q 500 448 565 382 q 331 514 435 514 q 165 448 229 514 q 101 275 101 382 q 165 99 101 167 q 331 31 229 31 m 331 656 q 251 684 282 656 q 214 764 221 713 l 253 764 q 331 696 269 696 q 407 764 390 696 l 447 764 q 409 685 439 713 q 331 656 379 657 z "},"ǒ":{"ha":665,"x_min":39,"x_max":626,"o":"m 331 -17 q 180 20 246 -17 q 76 124 114 57 q 39 275 39 190 q 76 424 39 358 q 180 525 114 489 q 331 561 246 561 q 484 525 417 561 q 589 424 551 489 q 626 276 626 360 q 589 124 626 190 q 484 20 551 57 q 331 -17 417 -17 m 331 31 q 500 99 435 31 q 565 276 565 167 q 500 448 565 382 q 331 514 435 514 q 165 448 229 514 q 101 275 101 382 q 165 99 101 167 q 331 31 229 31 m 189 854 l 236 854 l 331 686 l 425 854 l 471 854 l 356 646 l 307 646 l 189 854 z "},"ô":{"ha":665,"x_min":39,"x_max":626,"o":"m 331 -17 q 180 20 246 -17 q 76 124 114 57 q 39 275 39 190 q 76 424 39 358 q 180 525 114 489 q 331 561 246 561 q 484 525 417 561 q 589 424 551 489 q 626 276 626 360 q 589 124 626 190 q 484 20 551 57 q 331 -17 417 -17 m 331 31 q 500 99 435 31 q 565 276 565 167 q 500 448 565 382 q 331 514 435 514 q 165 448 229 514 q 101 275 101 382 q 165 99 101 167 q 331 31 229 31 m 304 840 l 358 840 l 475 628 l 428 628 l 331 806 l 233 628 l 186 628 l 304 840 z "}}}
